<svg id="Layer_1" data-name="Layer 1" xmlns="http://www.w3.org/2000/svg" viewBox="0 0 80 75"><defs><style>.cls-1{fill:#fff;}.cls-2{fill:none;stroke:#40033d;stroke-width:1.5px;}.cls-3{fill:#e6cce7;}.cls-4{fill:#40033d;}.cls-5{fill:#d0d0d0;}</style></defs><g id="Group_3470" data-name="Group 3470"><g id="Rectangle_996" data-name="Rectangle 996"><rect class="cls-1" width="80" height="75"/><rect class="cls-2" x="0.75" y="0.75" width="78.5" height="73.5"/></g><g id="Path_14913" data-name="Path 14913"><path class="cls-3" d="M76.25,71.25H3.75V3.75h72.5Z"/><path class="cls-4" d="M4.5,4.5v66h71V4.5H4.5M3,3H77V72H3Z"/></g><path id="Path_14912" data-name="Path 14912" class="cls-5" d="M13,56.67q3.48,0,4.53-1.23a5.5,5.5,0,0,0,1-3.62V22.87c0-1.67-.4-2.77-1.19-3.29a9.46,9.46,0,0,0-4.23-1V17H28.52l12,28.24H41L53,17H68.34v1.55a8.08,8.08,0,0,0-4.23,1.15c-.75.6-1.13,2.09-1.13,4.45v27c0,2.25.38,3.72,1.13,4.41s2.17,1.08,4.23,1.16v1.55H48.09V56.67a8.63,8.63,0,0,0,4.08-.9c.91-.55,1.37-1.75,1.37-3.59V22.36h-.45l-15,35.86H36.5L21.4,23.08h-.27V50.69a7,7,0,0,0,1.14,4.43c.75.94,2.42,1.45,5,1.55v1.55H13Z"/><path id="Path_14911" data-name="Path 14911" class="cls-4" d="M11,56.67q3.48,0,4.53-1.23a5.5,5.5,0,0,0,1-3.62V22.87c0-1.67-.4-2.77-1.19-3.29a9.46,9.46,0,0,0-4.23-1V17H26.52l12,28.24H39L51,17H66.34v1.55a8.08,8.08,0,0,0-4.23,1.15c-.75.6-1.13,2.09-1.13,4.45v27c0,2.25.38,3.72,1.13,4.41s2.17,1.08,4.23,1.16v1.55H46.09V56.67a8.63,8.63,0,0,0,4.08-.9c.91-.55,1.37-1.75,1.37-3.59V22.36h-.45l-15,35.86H34.5L19.4,23.08h-.27V50.69a7,7,0,0,0,1.14,4.43c.75.94,2.42,1.45,5,1.55v1.55H11Z"/></g></svg>