<svg xmlns="http://www.w3.org/2000/svg" width="95" height="69.512" viewBox="0 0 95 69.512">
  <g id="Group_3468" data-name="Group 3468" transform="translate(-1.396 -3.081)">
    <path id="Path_14922" data-name="Path 14922" d="M.834,25.678q5.876-.05,7.634-2.084t1.758-6.1V-31.328q0-4.219-2.009-5.55T1.085-38.611v-2.612H27L47.242,6.391H48.1l20.14-47.614H94.153v2.612q-5.223.4-7.132,1.934t-1.909,7.509V16.286q0,5.675,1.909,7.433t7.132,1.959V28.29H60V25.678a14.624,14.624,0,0,0,6.881-1.532q2.31-1.381,2.31-6.052V-32.182h-.753L43.224,28.29H40.462L15-30.977h-.452V15.582q0,5.123,1.909,7.484t8.438,2.612V28.29H.834Z" transform="translate(2.243 44.303)" fill="#40033d"/>
    <path id="Path_14921" data-name="Path 14921" d="M.834,25.678q5.876-.05,7.634-2.084t1.758-6.1V-31.328q0-4.219-2.009-5.55T1.085-38.611v-2.612H27L47.242,6.391H48.1l20.14-47.614H94.153v2.612q-5.223.4-7.132,1.934t-1.909,7.509V16.286q0,5.675,1.909,7.433t7.132,1.959V28.29H60V25.678a14.624,14.624,0,0,0,6.881-1.532q2.31-1.381,2.31-6.052V-32.182h-.753L43.224,28.29H40.462L15-30.977h-.452V15.582q0,5.123,1.909,7.484t8.438,2.612V28.29H.834Z" transform="translate(0.562 44.303)" fill="#952e9b"/>
  </g>
</svg>
