<svg xmlns="http://www.w3.org/2000/svg" width="70.999" height="72" viewBox="0 0 70.999 72">
  <g id="phone-call" transform="translate(-10.218 -10)">
    <path id="Path_14736" data-name="Path 14736" d="M55.783,47.23V57.56a3.273,3.273,0,0,1-3.59,3.212A48.513,48.513,0,0,1,7.508,16.12a3.267,3.267,0,0,1,3.212-3.547L20.808,12.5a3.239,3.239,0,0,1,3.147,2.44l2.107,8.37a3.212,3.212,0,0,1-1.2,3.36l-5.155,3.84A40.578,40.578,0,0,0,37.547,48.451L41.509,43.2a3.256,3.256,0,0,1,3.383-1.193L53.321,44.1A3.227,3.227,0,0,1,55.783,47.23Z" transform="translate(4.843 19.087)" fill="#eee"/>
    <path id="Path_14737" data-name="Path 14737" d="M31.7,6.5h2.84a2.841,2.841,0,0,1,2.84,2.84v8.52H45.9a2.841,2.841,0,0,1,2.84,2.84v2.84a2.841,2.841,0,0,1-2.84,2.84h-8.52V34.9a2.841,2.841,0,0,1-2.84,2.84H31.7a2.841,2.841,0,0,1-2.84-2.84v-8.52H20.34a2.841,2.841,0,0,1-2.84-2.84V20.7a2.841,2.841,0,0,1,2.84-2.84h8.52V9.34A2.841,2.841,0,0,1,31.7,6.5Z" transform="translate(23.246 8.845)" fill="#eee"/>
    <path id="Path_14738" data-name="Path 14738" d="M26.02,19.02H20.34a2.848,2.848,0,0,1-2.84-2.84V13.34a2.848,2.848,0,0,1,2.84-2.84h5.68a2.848,2.848,0,0,0-2.84,2.84v2.84A2.848,2.848,0,0,0,26.02,19.02Z" transform="translate(23.246 15.998)" fill="#eee"/>
    <path id="Path_14739" data-name="Path 14739" d="M54.14,60.327a3.2,3.2,0,0,1-1.931.454,48.56,48.56,0,0,1-44.7-44.674,3.248,3.248,0,0,1,3.209-3.522L20.826,12.5a1.1,1.1,0,0,1,.426.057l-4.857.028a3.248,3.248,0,0,0-3.209,3.522A48.3,48.3,0,0,0,54.14,60.327Z" transform="translate(4.839 19.089)" fill="#d0d0d0"/>
    <path id="Path_14740" data-name="Path 14740" d="M53.84,64.29c-.145,0-.29-.006-.432-.017-24.8-1.92-44.853-21.962-46.643-46.62A5.493,5.493,0,0,1,8.194,13.54a5.275,5.275,0,0,1,3.891-1.718l10.088-.071A5.367,5.367,0,0,1,27.4,15.8l2.107,8.373a5.318,5.318,0,0,1-1.994,5.586l-3.689,2.746A38.712,38.712,0,0,0,38.333,47.087l2.86-3.786a5.365,5.365,0,0,1,5.595-1.977l8.429,2.093a5.35,5.35,0,0,1,4.076,5.194V58.942a5.253,5.253,0,0,1-1.707,3.9A5.551,5.551,0,0,1,53.84,64.29ZM22.187,16.008l-10.074.071a1.045,1.045,0,0,0-.79.349,1.2,1.2,0,0,0-.31.915A46.591,46.591,0,0,0,53.737,60.024a1.249,1.249,0,0,0,.954-.318,1.028,1.028,0,0,0,.338-.77V48.607a1.1,1.1,0,0,0-.841-1.059L45.76,45.454a1.118,1.118,0,0,0-1.167.409l-3.965,5.248a2.139,2.139,0,0,1-2.67.613A42.947,42.947,0,0,1,19.179,32.836a2.131,2.131,0,0,1,.633-2.661l5.155-3.84a1.078,1.078,0,0,0,.409-1.128l-2.107-8.373a1.111,1.111,0,0,0-1.082-.826Z" transform="translate(3.467 17.711)" fill="#3c3c37"/>
    <path id="Path_14741" data-name="Path 14741" d="M35.92,41.251H33.08a4.976,4.976,0,0,1-4.97-4.97v-6.39H21.72a4.976,4.976,0,0,1-4.97-4.97V22.08a4.976,4.976,0,0,1,4.97-4.97h6.39V10.72a4.976,4.976,0,0,1,4.97-4.97h2.84a4.976,4.976,0,0,1,4.97,4.97v6.39h6.39a4.976,4.976,0,0,1,4.97,4.97v2.84a4.976,4.976,0,0,1-4.97,4.97h-6.39v6.39A4.976,4.976,0,0,1,35.92,41.251ZM21.72,21.37a.71.71,0,0,0-.71.71v2.84a.71.71,0,0,0,.71.71h8.52a2.131,2.131,0,0,1,2.13,2.13v8.52a.71.71,0,0,0,.71.71h2.84a.71.71,0,0,0,.71-.71v-8.52a2.131,2.131,0,0,1,2.13-2.13h8.52a.71.71,0,0,0,.71-.71V22.08a.71.71,0,0,0-.71-.71h-8.52a2.131,2.131,0,0,1-2.13-2.13V10.72a.71.71,0,0,0-.71-.71H33.08a.71.71,0,0,0-.71.71v8.52a2.131,2.131,0,0,1-2.13,2.13Z" transform="translate(21.866 7.465)" fill="#3c3c37"/>
    <path id="Path_14742" data-name="Path 14742" d="M33.01,12.237a4.26,4.26,0,1,1,4.26-4.26A4.265,4.265,0,0,1,33.01,12.237Zm0-5.68a1.42,1.42,0,1,0,1.42,1.42A1.421,1.421,0,0,0,33.01,6.557Z" transform="translate(43.947 6.283)" fill="#d0d0d0"/>
  </g>
</svg>
