<svg xmlns="http://www.w3.org/2000/svg" width="93.222" height="72" viewBox="0 0 93.222 72">
  <g id="smartphone" transform="translate(0 -10.807)">
    <g id="Group_3132" data-name="Group 3132" transform="translate(13.838 15.064)">
      <path id="Path_14746" data-name="Path 14746" d="M48.991,12.577A5.825,5.825,0,0,0,43.165,6.75H12.576A5.825,5.825,0,0,0,6.75,12.577v53.9a5.825,5.825,0,0,0,5.826,5.827H43.165a5.825,5.825,0,0,0,5.826-5.827Z" transform="translate(-6.75 -6.75)" fill="#eee"/>
    </g>
    <g id="Group_3136" data-name="Group 3136" transform="translate(45.883 29.635)">
      <path id="Path_14749" data-name="Path 14749" d="M48.339,14.663V27.773a2.914,2.914,0,0,1-2.913,2.913H34.5l-8.011,8.74v-8.74H20.663a2.914,2.914,0,0,1-2.913-2.913V14.663a2.914,2.914,0,0,1,2.913-2.913H45.425A2.914,2.914,0,0,1,48.339,14.663Z" transform="translate(-17.75 -11.75)" fill="#eee"/>
    </g>
    <g id="Group_3137" data-name="Group 3137" transform="translate(13.838 15.064)">
      <path id="Path_14750" data-name="Path 14750" d="M13.3,66.481v-53.9A5.825,5.825,0,0,1,19.131,6.75H12.576A5.825,5.825,0,0,0,6.75,12.577v53.9a5.825,5.825,0,0,0,5.826,5.827h6.555A5.825,5.825,0,0,1,13.3,66.481Z" transform="translate(-6.75 -6.75)" fill="#d0d0d0"/>
    </g>
    <g id="Group_3138" data-name="Group 3138" transform="translate(21.121 15.064)">
      <path id="Path_14751" data-name="Path 14751" d="M20.174,11.12A4.371,4.371,0,0,0,15.8,6.75H9.25a4.371,4.371,0,0,1,4.37,4.37,2.914,2.914,0,0,0,2.913,2.913h6.555A2.914,2.914,0,0,1,20.174,11.12Z" transform="translate(-9.25 -6.75)" fill="#d0d0d0"/>
    </g>
    <g id="Group_3140" data-name="Group 3140" transform="translate(25.491 70.426)">
      <path id="Path_14753" data-name="Path 14753" d="M23.131,25.75H16.576a5.825,5.825,0,0,0-5.826,5.826v4.37H17.3v-4.37A5.825,5.825,0,0,1,23.131,25.75Z" transform="translate(-10.75 -25.75)" fill="#d0d0d0"/>
    </g>
    <g id="Group_3141" data-name="Group 3141" transform="translate(45.883 29.635)">
      <path id="Path_14754" data-name="Path 14754" d="M33.044,32.273V30.686H27.218A2.914,2.914,0,0,1,24.3,27.773V14.663a2.914,2.914,0,0,1,2.913-2.913H20.663a2.914,2.914,0,0,0-2.913,2.913V27.773a2.914,2.914,0,0,0,2.913,2.913H26.49v8.74Z" transform="translate(-17.75 -11.75)" fill="#d0d0d0"/>
    </g>
    <g id="Group_3142" data-name="Group 3142" transform="translate(19.664 12.88)">
      <path id="Path_14755" data-name="Path 14755" d="M30.6,17.653H17.49a5.1,5.1,0,0,1-5.1-5.1,2.188,2.188,0,0,0-2.185-2.185H8.75V6h1.457a6.563,6.563,0,0,1,6.555,6.555.729.729,0,0,0,.728.728H30.6a.729.729,0,0,0,.728-.728A6.563,6.563,0,0,1,37.882,6h1.457v4.37H37.882A2.188,2.188,0,0,0,35.7,12.555,5.1,5.1,0,0,1,30.6,17.653Z" transform="translate(-8.75 -6)" fill="#771c7d"/>
    </g>
    <g id="Group_3143" data-name="Group 3143" transform="translate(11.653 12.88)">
      <path id="Path_14756" data-name="Path 14756" d="M44.6,75.928H14.011A8.019,8.019,0,0,1,6,67.915v-53.9A8.019,8.019,0,0,1,14.011,6H44.6a8.019,8.019,0,0,1,8.011,8.013V16.2h-4.37V14.013A3.647,3.647,0,0,0,44.6,10.37H14.011a3.647,3.647,0,0,0-3.641,3.642v53.9a3.647,3.647,0,0,0,3.641,3.642H44.6a3.647,3.647,0,0,0,3.641-3.642V58.446h4.37v9.469A8.019,8.019,0,0,1,44.6,75.928Z" transform="translate(-6 -6)" fill="#771c7d"/>
    </g>
    <g id="Group_3144" data-name="Group 3144" transform="translate(29.132 53.672)">
      <path id="Path_14757" data-name="Path 14757" d="M17.826,31.653a5.826,5.826,0,1,1,5.826-5.826A5.832,5.832,0,0,1,17.826,31.653Zm0-7.283a1.457,1.457,0,1,0,1.457,1.457A1.459,1.459,0,0,0,17.826,24.37Z" transform="translate(-12 -20)" fill="#771c7d"/>
    </g>
    <g id="Group_3145" data-name="Group 3145" transform="translate(23.306 68.242)">
      <path id="Path_14758" data-name="Path 14758" d="M33.306,37.381h-4.37v-4.37a3.647,3.647,0,0,0-3.641-3.641H18.011a3.647,3.647,0,0,0-3.641,3.641v4.37H10v-4.37A8.018,8.018,0,0,1,18.011,25h7.283a8.018,8.018,0,0,1,8.011,8.011Z" transform="translate(-10 -25)" fill="#771c7d"/>
    </g>
    <g id="Group_3146" data-name="Group 3146" transform="translate(43.698 27.45)">
      <path id="Path_14759" data-name="Path 14759" d="M27.924,43.045a2.208,2.208,0,0,1-.792-.149A2.183,2.183,0,0,1,25.74,40.86V34.306H22.1a5.1,5.1,0,0,1-5.1-5.1V16.1A5.1,5.1,0,0,1,22.1,11H46.86a5.1,5.1,0,0,1,5.1,5.1V29.207a5.1,5.1,0,0,1-5.1,5.1H36.9l-7.362,8.032A2.186,2.186,0,0,1,27.924,43.045ZM22.1,15.37a.729.729,0,0,0-.728.728V29.207a.729.729,0,0,0,.728.728h5.826a2.186,2.186,0,0,1,2.185,2.185v3.123l4.215-4.6a2.186,2.186,0,0,1,1.611-.708H46.86a.729.729,0,0,0,.728-.728V16.1a.729.729,0,0,0-.728-.728Z" transform="translate(-17 -11)" fill="#771c7d"/>
    </g>
    <g id="Group_3147" data-name="Group 3147" transform="translate(51.709 36.918)">
      <ellipse id="Ellipse_48" data-name="Ellipse 48" cx="2.185" cy="2.185" rx="2.185" ry="2.185" fill="#771c7d"/>
    </g>
    <g id="Group_3148" data-name="Group 3148" transform="translate(58.992 36.918)">
      <ellipse id="Ellipse_49" data-name="Ellipse 49" cx="2.185" cy="2.185" rx="2.185" ry="2.185" fill="#771c7d"/>
    </g>
    <g id="Group_3149" data-name="Group 3149" transform="translate(66.275 36.918)">
      <ellipse id="Ellipse_50" data-name="Ellipse 50" cx="2.185" cy="2.185" rx="2.185" ry="2.185" fill="#771c7d"/>
    </g>
    <g id="Group_3150" data-name="Group 3150" transform="translate(0 78.438)">
      <path id="Path_14760" data-name="Path 14760" d="M2,28.5H95.222v4.37H2Z" transform="translate(-2 -28.5)" fill="#771c7d"/>
    </g>
    <path id="Path_14865" data-name="Path 14865" d="M7.757,34.264a4.257,4.257,0,1,1,4.257-4.257A4.262,4.262,0,0,1,7.757,34.264Zm0-5.676a1.419,1.419,0,1,0,1.419,1.419A1.419,1.419,0,0,0,7.757,28.588Z" transform="translate(81.209 -14.943)" fill="#d0d0d0"/>
  </g>
</svg>
