<svg xmlns="http://www.w3.org/2000/svg" width="84.68" height="72" viewBox="0 0 84.68 72">
  <g id="emails" transform="translate(-20.898 -31.973)">
    <path id="Path_14684" data-name="Path 14684" d="M10.75,47.193v1.593a4.779,4.779,0,0,0,4.778,4.778H64.9a4.779,4.779,0,0,0,4.778-4.778V18.528A4.779,4.779,0,0,0,64.9,13.75H17.12a6.368,6.368,0,0,0-6.37,6.37Z" transform="translate(33.517 33.352)" fill="#eee"/>
    <path id="Path_14685" data-name="Path 14685" d="M17.12,48.785V20.12a6.368,6.368,0,0,1,6.37-6.37H17.12a6.368,6.368,0,0,0-6.37,6.37V48.785a4.779,4.779,0,0,0,4.778,4.778H21.9A4.779,4.779,0,0,1,17.12,48.785Z" transform="translate(33.517 33.352)" fill="#d0d0d0"/>
    <path id="Path_14686" data-name="Path 14686" d="M65.673,12.03V36.809a4.6,4.6,0,0,1-4.65,4.586H11.4a4.6,4.6,0,0,1-4.65-4.586V12.03L33.791,25.662a5.2,5.2,0,0,0,4.841,0Z" transform="translate(24.777 29.594)" fill="#eee"/>
    <path id="Path_14687" data-name="Path 14687" d="M13.916,36.809V15.642L6.75,12.03V36.809A4.6,4.6,0,0,0,11.4,41.4h7.166A4.6,4.6,0,0,1,13.916,36.809Z" transform="translate(24.777 29.594)" fill="#d0d0d0"/>
    <path id="Path_14688" data-name="Path 14688" d="M18.288,25.662a5.2,5.2,0,0,0,4.841,0L43,15.642V12.03L17.125,25.076Z" transform="translate(47.446 29.594)" fill="#d0d0d0"/>
    <g id="Group_3089" data-name="Group 3089" transform="translate(20.898 94.418)">
      <path id="Path_14689" data-name="Path 14689" d="M8.278,35.305a4.778,4.778,0,1,1,4.778-4.778A4.783,4.783,0,0,1,8.278,35.305Zm0-6.37A1.593,1.593,0,1,0,9.87,30.528,1.593,1.593,0,0,0,8.278,28.935Z" transform="translate(-3.5 -25.75)" fill="#d0d0d0"/>
    </g>
    <path id="Path_14694" data-name="Path 14694" d="M65.673,14.336v2.675L38.632,30.644a5.2,5.2,0,0,1-4.841,0L6.75,17.012V14.336A4.6,4.6,0,0,1,11.4,9.75H61.023a4.6,4.6,0,0,1,4.65,4.586Z" transform="translate(24.777 24.612)" fill="#eee"/>
    <path id="Path_14695" data-name="Path 14695" d="M13.916,16.216V14.336a4.6,4.6,0,0,1,4.65-4.586H11.4a4.6,4.6,0,0,0-4.65,4.586v2.675L33.791,30.644a5.2,5.2,0,0,0,4.841,0l1.163-1.382Z" transform="translate(24.777 24.612)" fill="#d0d0d0"/>
    <path id="Path_14696" data-name="Path 14696" d="M62.662,50.405H13.039A7.012,7.012,0,0,1,6,43.436V15.966A7.012,7.012,0,0,1,13.039,9H62.662A7.012,7.012,0,0,1,69.7,15.969V43.44A7.012,7.012,0,0,1,62.662,50.405ZM13.039,13.778a2.229,2.229,0,0,0-2.261,2.191V43.44a2.231,2.231,0,0,0,2.261,2.191H62.662a2.229,2.229,0,0,0,2.261-2.191V15.969a2.231,2.231,0,0,0-2.261-2.191Z" transform="translate(23.138 22.973)" fill="#771c7d"/>
    <path id="Path_14697" data-name="Path 14697" d="M36.961,30.11a7.586,7.586,0,0,1-3.558-.876L6.413,15.628l2.15-4.268L35.6,24.992a2.807,2.807,0,0,0,2.644.025L65.336,11.36l2.15,4.268L40.445,29.26a7.424,7.424,0,0,1-3.484.85Z" transform="translate(24.041 28.13)" fill="#771c7d"/>
    <path id="Path_14698" data-name="Path 14698" d="M66.534,57.59H17.166A7.173,7.173,0,0,1,10,50.424V48.831h4.778v1.593a2.39,2.39,0,0,0,2.389,2.389H66.534a2.39,2.39,0,0,0,2.389-2.389V20.166a2.39,2.39,0,0,0-2.389-2.389V13A7.173,7.173,0,0,1,73.7,20.166V50.424A7.173,7.173,0,0,1,66.534,57.59Z" transform="translate(31.878 31.713)" fill="#771c7d"/>
  </g>
</svg>
