<svg id="share" xmlns="http://www.w3.org/2000/svg" width="36" height="36" viewBox="0 0 36 36">
  <g id="color" transform="translate(1.125 1.124)">
    <g id="Group_1637" data-name="Group 1637" transform="translate(13.5)">
      <path id="Path_1876" data-name="Path 1876" d="M25.875,9.921,24.436,8.363a4.818,4.818,0,0,0-7.2,0,5.833,5.833,0,0,0,0,7.79L25.875,25.5l8.634-9.348a5.833,5.833,0,0,0,0-7.79,4.818,4.818,0,0,0-7.2,0Z" transform="translate(-15.75 -6.749)" fill="#cd8ed1"/>
    </g>
    <g id="Group_1638" data-name="Group 1638" transform="translate(0 18.001)">
      <path id="Path_1877" data-name="Path 1877" d="M6.75,18.75V31.5h4.125l3-11.079S11.688,18.75,6.75,18.75Z" transform="translate(-6.75 -18.75)" fill="#eee"/>
    </g>
    <g id="Group_1639" data-name="Group 1639" transform="translate(4.545 20.941)">
      <path id="Path_1878" data-name="Path 1878" d="M28.86,27.25c-.03.015-.045.015-.075.03h.075v-.03c2.16-.66,4.425-1.6,6.375-1.6,3,0,3.75,1.875,3.75,1.875s-10.875,6-15.375,6c-3.585,0-10.965-3.33-13.83-4.68l2.235-8.13L26.46,23.665a3,3,0,0,1,2.4,2.94Z" transform="translate(-9.78 -20.71)" fill="#eee"/>
    </g>
  </g>
  <g id="shadow" transform="translate(1.125 1.139)">
    <g id="Group_1642" data-name="Group 1642" transform="translate(13.5)">
      <g id="Group_1640" data-name="Group 1640">
        <path id="Path_1879" data-name="Path 1879" d="M20.616,16.147a5.833,5.833,0,0,1,0-7.79,4.975,4.975,0,0,1,1.91-1.282,4.8,4.8,0,0,0-5.285,1.282,5.833,5.833,0,0,0,0,7.79L25.875,25.5l1.687-1.827Z" transform="translate(-15.75 -6.759)" fill="#834f83"/>
      </g>
    </g>
    <g id="Group_1643" data-name="Group 1643" transform="translate(0 17.986)">
      <path id="Path_1881" data-name="Path 1881" d="M6.75,18.75V31.5h3.375V19.05A18.234,18.234,0,0,0,6.75,18.75Z" transform="translate(-6.75 -18.75)" fill="#d0d0d0"/>
    </g>
    <g id="Group_1647" data-name="Group 1647" transform="translate(4.545 20.926)">
      <g id="Group_1644" data-name="Group 1644" transform="translate(22.38 6.54)">
        <path id="Path_1882" data-name="Path 1882" d="M24.775,25.1v-.03c-.03.015-.045.015-.075.03Z" transform="translate(-24.7 -25.07)" fill="#d0d0d0"/>
      </g>
      <g id="Group_1645" data-name="Group 1645">
        <path id="Path_1883" data-name="Path 1883" d="M13.155,28.84l2.055-7.476-3.2-.654L9.78,28.84c2.865,1.35,10.245,4.68,13.83,4.68a8.547,8.547,0,0,0,1.616-.2C21.369,32.6,15.609,30,13.155,28.84Z" transform="translate(-9.78 -20.71)" fill="#d0d0d0"/>
      </g>
      <g id="Group_1646" data-name="Group 1646" transform="translate(22.418 4.935)">
        <path id="Path_1884" data-name="Path 1884" d="M24.763,24.96v.645c1.522-.465,3.094-1.065,4.574-1.383A5.5,5.5,0,0,0,27.763,24a11.15,11.15,0,0,0-3.038.535A2.844,2.844,0,0,1,24.763,24.96Z" transform="translate(-24.725 -24)" fill="#d0d0d0"/>
      </g>
    </g>
  </g>
  <g id="_x31_.5" transform="translate(0)">
    <g id="Group_1649" data-name="Group 1649" transform="translate(13.509)">
      <g id="Group_1648" data-name="Group 1648">
        <path id="Path_1885" data-name="Path 1885" d="M26.247,27a1.124,1.124,0,0,1-.826-.362l-8.636-9.347a6.989,6.989,0,0,1,0-9.316,5.945,5.945,0,0,1,8.85,0l.612.664.612-.663a5.943,5.943,0,0,1,8.849,0,6.989,6.989,0,0,1,0,9.317l-8.636,9.346a1.114,1.114,0,0,1-.825.363ZM21.211,8.25A3.758,3.758,0,0,0,18.438,9.5a4.7,4.7,0,0,0,0,6.264l7.809,8.453,7.809-8.453a4.7,4.7,0,0,0,0-6.264,3.779,3.779,0,0,0-5.544,0l-1.439,1.558a1.162,1.162,0,0,1-1.653,0L23.982,9.5A3.754,3.754,0,0,0,21.211,8.25Z" transform="translate(-15.006 -6)" fill="#40033d"/>
      </g>
    </g>
    <g id="Group_1651" data-name="Group 1651" transform="translate(0 18)">
      <g id="Group_1650" data-name="Group 1650">
        <path id="Path_1886" data-name="Path 1886" d="M11.25,33H7.125A1.125,1.125,0,0,1,6,31.875V19.125A1.125,1.125,0,0,1,7.125,18c5.259,0,7.707,1.825,7.808,1.9a1.125,1.125,0,0,1,.4,1.188l-3,11.079A1.124,1.124,0,0,1,11.25,33Zm-3-2.25h2.139l2.547-9.406A12.744,12.744,0,0,0,8.25,20.283Z" transform="translate(-6 -18)" fill="#40033d"/>
      </g>
    </g>
    <g id="Group_1653" data-name="Group 1653" transform="translate(5.192 25.876)">
      <g id="Group_1652" data-name="Group 1652">
        <path id="Path_1887" data-name="Path 1887" d="M23.77,33.374c-3.614,0-10.517-3-14.309-4.786l.958-2.035c6.165,2.907,11.031,4.573,13.35,4.573,3.042,0,9.948-3.285,13.568-5.181a3.849,3.849,0,0,0-1.943-.444,15.884,15.884,0,0,0-4.52,1.068,17.39,17.39,0,0,1-5.231,1.182,26.989,26.989,0,0,1-7.509-1.568l.768-2.115A25.1,25.1,0,0,0,25.645,25.5a15.884,15.884,0,0,0,4.52-1.068,17.39,17.39,0,0,1,5.231-1.182c3.719,0,4.752,2.477,4.794,2.583a1.124,1.124,0,0,1-.5,1.4C39.235,27.485,28.505,33.374,23.77,33.374Z" transform="translate(-9.461 -23.251)" fill="#40033d"/>
      </g>
    </g>
    <g id="Group_1655" data-name="Group 1655" transform="translate(7.679 20.962)">
      <g id="Group_1654" data-name="Group 1654">
        <path id="Path_1888" data-name="Path 1888" d="M29.316,27.647h-2.25v-.675a1.887,1.887,0,0,0-1.5-1.839L11.119,22.178l.452-2.2L26.017,22.93a4.14,4.14,0,0,1,3.3,4.041Z" transform="translate(-11.119 -19.975)" fill="#40033d"/>
      </g>
    </g>
  </g>
</svg>
