<?xml version="1.0" encoding="utf-8"?>
<!-- Generator: Adobe Illustrator 26.0.1, SVG Export Plug-In . SVG Version: 6.00 Build 0)  -->
<svg version="1.1" id="Group_255" xmlns="http://www.w3.org/2000/svg" xmlns:xlink="http://www.w3.org/1999/xlink" x="0px" y="0px"
	 viewBox="0 0 22.9 23" style="enable-background:new 0 0 22.9 23;" xml:space="preserve">
<style type="text/css">
	.st0{fill:#CD8ED1;}
	.st1{fill:#40033D;}
</style>
<path class="st0" d="M20.6,22.4h-8.6c-0.9,0-1.7-0.8-1.7-1.7v-8.6c0-0.9,0.8-1.7,1.7-1.7h8.6c0.9,0,1.7,0.8,1.7,1.7v8.6
	C22.3,21.6,21.5,22.4,20.6,22.4z"/>
<path class="st0" d="M10.9,12.6H2.3c-0.9,0-1.7-0.8-1.7-1.7V2.3c0-0.9,0.8-1.7,1.7-1.7h8.6c0.9,0,1.7,0.8,1.7,1.7v8.6
	C12.6,11.8,11.8,12.6,10.9,12.6z"/>
<g id="Group_254">
	<g id="Group_244">
		<g id="Group_243">
			<path id="Path_1061" class="st1" d="M20.8,9.7h-7.5V2.2C13.2,1,12.2,0,11,0c0,0,0,0,0,0H2.2C1,0,0,1,0,2.2c0,0,0,0,0,0l0,0V11
				c0,1.2,1,2.2,2.2,2.2l0,0h7.6v7.6c0,1.2,1,2.2,2.2,2.2h8.9c1.2,0,2.2-1,2.2-2.2c0,0,0,0,0,0l0,0v-8.9C22.9,10.7,22,9.7,20.8,9.7z
				 M9.7,11.9L9.7,11.9v0.3l-7.6,0C1.5,12.2,1,11.7,1,11c0,0,0,0,0,0V2.2C1,1.5,1.5,1,2.2,1H11c0.7,0,1.2,0.5,1.2,1.2v7.6h-0.3
				C10.7,9.8,9.7,10.7,9.7,11.9C9.7,11.9,9.7,11.9,9.7,11.9L9.7,11.9z M22,20.8c0,0.7-0.5,1.2-1.2,1.2c0,0,0,0,0,0h-8.9
				c-0.6,0-1.2-0.5-1.2-1.2v-8.9c0-0.7,0.5-1.2,1.2-1.2c0,0,0,0,0,0h8.9c0.7,0,1.2,0.5,1.2,1.2V20.8z"/>
		</g>
	</g>
</g>
<g id="Group_246" transform="translate(13.439 12.597)">
	<g id="Group_245">
		<path id="Path_1062" class="st1" d="M5.8,6.9L3.4,0.3C3.3,0,2.9-0.1,2.7,0.1C2.6,0.1,2.5,0.2,2.4,0.3L0,6.8
			c-0.1,0.3,0,0.5,0.3,0.7c0.3,0.1,0.5,0,0.7-0.3c0,0,0,0,0,0l0.6-1.6h2.8l0.6,1.6C5,7.5,5.3,7.6,5.5,7.6C5.8,7.5,5.9,7.2,5.8,6.9
			C5.9,6.9,5.9,6.9,5.8,6.9L5.8,6.9z M1.9,4.6l1-2.7l1,2.7H1.9z"/>
	</g>
</g>
<g id="Group_248" transform="translate(2.937 2.449)">
	<g id="Group_247">
		<path id="Path_1063" class="st1" d="M6.8,7.3C6,7.3,5.2,7.1,4.5,6.6C5.3,5.7,5.9,4.6,6,3.3h0.8c0.3,0,0.5-0.2,0.5-0.5
			S7.1,2.3,6.8,2.3H4.2V0.5C4.2,0.2,3.9,0,3.7,0S3.2,0.2,3.2,0.5v1.8H0.5C0.2,2.3,0,2.5,0,2.8s0.2,0.5,0.5,0.5h0.8
			C1.5,4.6,2,5.7,2.9,6.6C2.2,7.1,1.3,7.3,0.5,7.3C0.2,7.3,0,7.6,0,7.8s0.2,0.5,0.5,0.5c1.1,0,2.2-0.3,3.2-1c0.9,0.7,2,1,3.2,1
			c0.3,0,0.5-0.2,0.5-0.5S7.1,7.3,6.8,7.3L6.8,7.3z M2.4,3.3H5c-0.1,1-0.6,2-1.3,2.7C2.9,5.3,2.5,4.3,2.4,3.3L2.4,3.3z"/>
	</g>
</g>
<g id="Group_250" transform="translate(14.964)">
	<g id="Group_249">
		<path id="Path_1064" class="st1" d="M8,7.5C8,3.4,4.6,0,0.5,0C0.2,0,0,0.2,0,0.5S0.2,1,0.5,1C4,1,6.8,3.7,7,7.2H5.3
			c-0.3,0-0.5,0.2-0.5,0.5s0.2,0.5,0.5,0.5h2.1C7.7,8.2,8,8,8,7.7C8,7.7,8,7.6,8,7.5C8,7.6,8,7.5,8,7.5z"/>
	</g>
</g>
<g id="Group_252" transform="translate(0.028 14.785)">
	<g id="Group_251">
		<path id="Path_1065" class="st1" d="M7.5,7.2C4,7.2,1.2,4.5,1,1h1.6c0.3,0,0.5-0.2,0.5-0.5S2.9,0,2.6,0H0.5C0.2,0,0,0.2,0,0.5
			c0,0,0,0.1,0,0.1c0,0,0,0.1,0,0.1c0,4.1,3.3,7.5,7.5,7.5C7.7,8.2,8,8,8,7.7S7.7,7.2,7.5,7.2L7.5,7.2z"/>
	</g>
</g>
</svg>
