<svg xmlns="http://www.w3.org/2000/svg" width="32.494" height="30.654" viewBox="0 0 32.494 30.654"><defs><style>.a{fill:#cd8ed1;}.b{fill:#40033d;}.c{fill:#834f83;}.d{fill:none;stroke:#40033d;stroke-width:2px;}</style></defs><g transform="translate(-1115.164 -14.351)"><g transform="translate(1118.883 15.351)"><path class="a" d="M27.775,13.887A13.887,13.887,0,1,1,13.887,0,13.887,13.887,0,0,1,27.775,13.887Zm0,0"/><g transform="translate(6.893 8.106)"><path class="b" d="M175.2,184.127h2.555a4.44,4.44,0,0,1,8.881,0h2.555a7,7,0,0,0-3.5-6.056,4.593,4.593,0,1,0-6.987,0A7,7,0,0,0,175.2,184.127Zm4.956-9.034a2.039,2.039,0,1,1,2.039,2.039A2.041,2.041,0,0,1,180.155,175.093Zm0,0" transform="translate(-175.199 -170.5)"/></g></g><path class="c" d="M13.887,21.648A13.876,13.876,0,0,1,0,7.761,13.819,13.819,0,0,1,2.369,0,15.168,15.168,0,0,0,6,15.643a15.2,15.2,0,0,0,15.642,3.636A13.819,13.819,0,0,1,13.887,21.648Z" transform="matrix(0.927, 0.375, -0.375, 0.927, 1123.273, 16.824)"/><path class="d" d="M27.775,13.887A13.887,13.887,0,1,1,13.887,0,13.887,13.887,0,0,1,27.775,13.887Zm0,0" transform="translate(1118.883 15.351)"/></g></svg>