<svg id="Layer_1" data-name="Layer 1" xmlns="http://www.w3.org/2000/svg" viewBox="0 0 314.79 184.28"><defs><style>.cls-1{fill:#fff;}</style></defs><path class="cls-1" d="M188.16,85.8a15.44,15.44,0,0,1-3,.48c-4.79-.14-9.58-.38-14.37-.56a6.83,6.83,0,0,0-2.48.22,2,2,0,0,0-1.16,1.37,2.09,2.09,0,0,0,1,1.44,4.43,4.43,0,0,0,1.91.37c3.06.18,6.11.29,9.16.49a22.8,22.8,0,0,1,2.7.48l.08.78a9.54,9.54,0,0,1-2.4.58c-4.08,0-8.15-.21-12.22-.28-1.35,0-3.22-.24-3.31,1.56-.1,2.06,1.9,1.75,3.26,1.82,3.77.21,7.55.32,11.32.49a4.94,4.94,0,0,1,1.59.23c.38.16.64.59,1,.9-.43.25-.85.71-1.29.73-2.21.06-4.43,0-6.65,0a19.77,19.77,0,0,0-3.93.21c-.66.15-1.18.94-1.76,1.44.61.46,1.2,1.29,1.84,1.33,3.46.23,6.94.25,10.42.41a17,17,0,0,1,2.6.5l0,.71a9.29,9.29,0,0,1-2,.71c-1.85.21-3.71.29-5.56.43a7.38,7.38,0,0,0-2.12.26c-.52.21-.88.83-1.32,1.26a10.78,10.78,0,0,0,1.32,1.22,2.22,2.22,0,0,0,1.05.18c11.25.49,22.4.06,33.31-3.12,14.45-4.22,25.06-13.16,32.53-26.06.69-1.19,1.34-2.41,2.14-3.53.29-.41.93-.57,1.41-.85.21.57.74,1.26.58,1.69C243,76,242.06,78.23,241,80.45c-.52,1.14-1.3,2.16-1.83,3.3a1.51,1.51,0,0,0,.18,1.4,1.53,1.53,0,0,0,1.44,0,9.39,9.39,0,0,0,2-2c3-3.94,6-7.93,9-11.86.79-1,1.65-3.07,3-2.12,1.53,1.08-.35,2.38-1,3.39-1.86,2.71-3.87,5.33-5.82,8a2.73,2.73,0,0,0-.64,1.07,9.41,9.41,0,0,0,.1,1.83,5,5,0,0,0,1.74-.36,6.82,6.82,0,0,0,1.44-1.58c2.79-3.53,5.54-7.08,8.36-10.57.62-.76,1.22-2.14,2.48-1.29.27.19-.2,2-.74,2.74-2.47,3.46-5.09,6.81-7.65,10.21a5.24,5.24,0,0,0-1,1.65,7.68,7.68,0,0,0,0,2.09c.69-.18,1.63-.14,2-.58,1.65-1.82,3.13-3.79,4.69-5.68.92-1.1,1.86-2.2,2.87-3.22.27-.28.82-.28,1.25-.41,0,.48.25,1.1,0,1.44-.85,1.37-1.81,2.67-2.77,4-1.62,2.16-3.32,4.25-4.85,6.46-.39.56-.24,1.49-.34,2.25.75-.15,1.72-.05,2.21-.49,1.57-1.38,2.93-3,4.43-4.44a14.33,14.33,0,0,1,2-1.39l.65.61A48.18,48.18,0,0,1,261,89.67C255.49,96,250,102.26,244.38,108.35a291.31,291.31,0,0,1-37.23,34.29c-1.62,1.23-3.1,2.65-4.79,3.77a2.86,2.86,0,0,1-2.44.25c-17.67-9.63-34.91-19.87-48-35.6-6.58-7.88-11.42-16.62-13.45-26.85a33.83,33.83,0,0,1,13.72-34C163.52,42.41,176,41.38,189,44.85a71.82,71.82,0,0,1,10.38,4c1.66.73,2.54.47,3.59-1,6.63-9.22,15.17-15.57,26.72-17.16a19.37,19.37,0,0,1,10.73,1.41,10.79,10.79,0,0,1,6.55,12,25.07,25.07,0,0,1-4.42,10.71c-6.93,10-15.55,18-27.13,22.42-9.36,3.55-19.06,4-28.88,2.8-2.44-.29-4.86-.74-7.29-1.08-1-.15-2.34-.56-2.77.83s.7,2.16,1.78,2.5c2.61.82,5.29,1.43,7.94,2.14.69.19,1.36.44,2,.67Z"/><path class="cls-1" d="M96.52,85.54q0,13.2,0,26.4c0,2.2.27,2.49,2.48,2.5,3.42,0,6.83,0,10.25,0,1.52,0,2.16.51,2.13,2.09-.07,3.83-.07,7.67,0,11.5,0,1.43-.44,2.08-1.94,2.07q-24.36,0-48.71,0c-1.18,0-1.78-.41-1.77-1.67,0-4.07,0-8.14,0-12.21,0-1.31.57-1.8,1.86-1.78,3.47,0,7,0,10.42,0,2.24,0,2.57-.37,2.57-2.65q0-26.49,0-53c0-2.17-.42-2.6-2.66-2.61-3.36,0-6.71-.05-10.06,0-1.5,0-2.19-.4-2.15-2,.09-3.83.07-7.66,0-11.49,0-1.49.41-2.16,2-2.16q24.17.06,48.34,0c1.6,0,2.08.66,2.06,2.17q-.1,5.74,0,11.49c0,1.48-.53,2-2,2-3.35-.05-6.71,0-10.06,0-2.54,0-2.8.27-2.8,2.76Q96.51,72.25,96.52,85.54Z"/><path class="cls-1" d="M218.63,14.22c-.79,11.38-4.87,19.14-15.1,24.06-7.49,3.61-14.26-.33-15.67-8.55C186.19,20.08,191.56,3,205.63.22c5-1,9.93,1.48,11.78,5.62A21.21,21.21,0,0,1,218.63,14.22Z"/><path class="cls-1" d="M69,174.13c0-2.51,0-5,0-7.54,0-1.29.43-1.82,1.76-1.85,3.57-.08,3.57-.12,5.06,3.18.66,1.48,1.27,3,2,4.41.25.48.77,1.08,1.2,1.11s1-.59,1.18-1.06c1-2,1.84-4,2.77-6,.67-1.43,4.52-2.32,5.62-1.25a2.2,2.2,0,0,1,.43,1.46c0,5.15,0,10.3,0,15.45,0,1.66-.92,1.82-2.2,1.8s-2.29-.07-2.25-1.76c.06-2.51.07-5,0-7.54a8.66,8.66,0,0,0-.6-2.09,9.19,9.19,0,0,0-1.41,1.6,33.48,33.48,0,0,0-1.37,3.12c-.43,1-.93,1.91-2.29,1.91s-1.9-.78-2.33-1.85c-.51-1.28-1-2.56-1.64-3.79-.2-.41-.72-.66-1.1-1-.22.45-.61.9-.62,1.35-.06,2.69-.1,5.39,0,8.08.06,1.7-.82,2-2.23,2s-2.07-.46-2-2c.08-2.57,0-5.15,0-7.72Z"/><path class="cls-1" d="M58.12,172.14c-.75,1.57-1.55,3.12-2.22,4.73-.48,1.16-.92,2.19-2.46,2.18S51.5,178,51,176.82c-.68-1.59-1.46-3.14-2.2-4.7l-.75.18a18.35,18.35,0,0,0-.31,2.33c0,2.45,0,4.91,0,7.36,0,1.48-.7,1.85-2,1.83s-2.27-.1-2.26-1.77c0-5.21,0-10.43,0-15.64,0-1.13.51-1.58,1.62-1.66,3.52-.24,3.7-.17,5.18,3,.68,1.47,1.29,3,2,4.41a8,8,0,0,0,1.23,1.4A8.17,8.17,0,0,0,54.94,172c.87-1.77,1.62-3.6,2.44-5.4.76-1.65,4.21-2.68,5.67-1.63a2,2,0,0,1,.55,1.4c0,5.27,0,10.54,0,15.81,0,1.79-1.25,1.55-2.38,1.59s-2.13-.14-2.09-1.72c.08-2.57.06-5.15,0-7.72a14.54,14.54,0,0,0-.32-2.05Z"/><path class="cls-1" d="M133.56,174.38c0,2.27,0,4.55,0,6.82,0,.93.49,2.3-1,2.5s-3.15.58-4.2-1.14c-1.77-2.91-3.55-5.83-5.39-8.7a18,18,0,0,0-1.93-2.18,15.31,15.31,0,0,0-.73,2.91c-.1,2.45-.07,4.91,0,7.36,0,1.45-.65,1.88-2,1.87s-2.18-.24-2.16-1.86c0-5.15,0-10.3,0-15.44,0-1.21.48-1.66,1.69-1.78,2.6-.25,4.6.24,5.85,2.91a45.39,45.39,0,0,0,3.82,6.07c.28.41.91.58,1.37.86a4.69,4.69,0,0,0,.55-1.4c.05-2.15.08-4.31,0-6.46-.05-1.52.61-2,2-2s2.13.34,2.08,1.92C133.5,169.22,133.56,171.8,133.56,174.38Z"/><path class="cls-1" d="M310.28,175.37a22.11,22.11,0,0,0,.43-2.69c.05-2.1.06-4.19,0-6.29,0-1.62,1-1.62,2.14-1.64s1.95.26,1.94,1.68c0,5.21,0,10.42-.05,15.63,0,.56-.55,1.55-.94,1.6-1.48.17-3.14.66-4.2-1.08-1.87-3.06-3.77-6.11-5.66-9.16a2.87,2.87,0,0,0-.47-.76,16.56,16.56,0,0,0-1.38-1,4.9,4.9,0,0,0-.61,1.53c-.05,2.87-.07,5.75,0,8.62.05,1.5-.54,2-2,2s-2.07-.44-2.05-2q.1-7.55,0-15.08c0-1.62.65-1.93,2.13-2.07a4.78,4.78,0,0,1,5.33,2.9,56.77,56.77,0,0,0,3.51,5.63A23.07,23.07,0,0,0,310.28,175.37Z"/><path class="cls-1" d="M293.18,174.34c0,6.08-3.82,9.95-9.81,9.94s-9.8-3.89-9.76-10.15c0-6,3.78-9.81,9.71-9.85S293.19,168.14,293.18,174.34Zm-4.54-.09.16,0c-.27-1.1-.45-2.22-.82-3.28a4.57,4.57,0,0,0-4.31-3.25,4.37,4.37,0,0,0-4.7,2.9,13.06,13.06,0,0,0-.68,4.89c.16,3.33,2.28,5.42,5.09,5.42s4.83-2.1,5.19-5.39C288.61,175.09,288.62,174.67,288.64,174.25Z"/><path class="cls-1" d="M38.84,174.45c-.05,6.1-3.88,9.9-9.9,9.83s-9.75-4-9.67-10.26c.07-6,3.9-9.75,9.84-9.74S38.89,168.19,38.84,174.45Zm-4.47,0a24,24,0,0,0-.43-2.82,5,5,0,0,0-4.39-3.92c-3.27-.28-5.59,2.22-5.71,6.16-.14,4.31,2,7.14,5.38,7C32.29,180.8,34.22,178.33,34.37,174.43Z"/><path class="cls-1" d="M94.12,172c0-1.86.06-3.71,0-5.57-.06-1.6.91-1.71,2.09-1.69s2.33-.09,2.31,1.67c0,3.41-.06,6.83,0,10.24.08,3,1.55,4.37,4.35,4.22,2.23-.12,3.46-1.22,3.59-3.68.18-3.28.11-6.58.13-9.87,0-2.47.25-2.66,2.65-2.59,1.23,0,1.7.54,1.68,1.75,0,3.65,0,7.31,0,11-.08,3.49-1.77,5.55-5.21,6.35a14.62,14.62,0,0,1-4.26.41c-5-.36-7.3-2.87-7.31-7.89C94.11,174.9,94.12,173.46,94.12,172Z"/><path class="cls-1" d="M216,183.8c-1.31.23-2.2-.44-2.58-1.89a2.6,2.6,0,0,0-3.1-2.06,15,15,0,0,1-2.51,0c-1.9-.15-3.21.38-3.73,2.46-.35,1.37-2.87,2.14-4,1.28-.31-.23-.35-1.17-.17-1.66,1.44-4.06,3-8.09,4.46-12.13.27-.73.53-1.47.8-2.2,1-2.84,1-2.74,4.08-2.87,1.84-.08,2.67.66,3.25,2.32,1.69,4.86,3.53,9.67,5.31,14.49C218.47,183.55,218.3,183.81,216,183.8Zm-7.2-6.83c2.53,0,2.83-.43,2-2.87-.32-.89-.57-1.82-1-2.68-.17-.39-.65-1-.86-.95a1.91,1.91,0,0,0-1.14.92c-.42.9-.64,1.91-1,2.85C206,176.47,206.33,177,208.76,177Z"/><path class="cls-1" d="M237,178.9c1,2.92.53,4-2,4.64a17.29,17.29,0,0,1-4.93.67c-4.84-.23-7.9-2.93-8.81-7.47-1-4.82.89-9.42,4.64-11.28a12.22,12.22,0,0,1,10.11-.18c1.52.57,1.75,1.67,1.06,4.42l-2.3-1.19c-3.27-1.68-6.74-.79-8.26,2.1-1.86,3.57-.7,8.15,2.49,9.72a6,6,0,0,0,5.21,0C235.09,180,236,179.44,237,178.9Z"/><path class="cls-1" d="M16,178.86c.81,3.23.39,4.15-2.37,4.75a16.22,16.22,0,0,1-5.48.49c-6-.83-8.87-5.22-8-11.78.67-5.18,5-8.51,10.55-8a18.38,18.38,0,0,1,4,.88,2.46,2.46,0,0,1,1.49,1.36,10.1,10.1,0,0,1-.08,2.79,13.16,13.16,0,0,1-2.19-.76c-2.93-1.54-6-1.16-7.87,1A8.15,8.15,0,0,0,6,178.89c1.74,2.18,5,2.64,7.86,1.12Z"/><path class="cls-1" d="M170.53,165.34c2.81-1.25,4.49-.75,5.78,1.53.68,1.2,1.32,2.42,2,3.59.85,1.42,1.66,1.41,2.47,0,.68-1.19,1.31-2.42,2-3.63,1.21-2.22,2.78-2.7,5.53-1.57-.27.52-.5,1.05-.79,1.54-1,1.64-1.87,3.36-3,4.9a13.39,13.39,0,0,0-2.81,10.06c.22,1.61-.6,2.09-2.11,2.06s-2.65-.22-2.32-2c.83-4.51-1.54-7.92-3.75-11.41C172.47,168.74,171.53,167,170.53,165.34Z"/><path class="cls-1" d="M247.93,164.77c2.22,0,4.44,0,6.65,0,1.09,0,1.67.39,1.67,1.58s-.42,1.72-1.67,1.79c-4.47.25-4.47.28-4.47,4.87,0,3-.05,6,0,9,.05,1.81-1.06,1.81-2.35,1.84s-2.18-.24-2.15-1.86c.07-3.83,0-7.66.05-11.49,0-1.71-.69-2.43-2.34-2.36-.6,0-1.2,0-1.8,0-1.26.07-2.09-.24-2.09-1.75s.86-1.63,2-1.61C243.62,164.79,245.78,164.77,247.93,164.77Z"/><path class="cls-1" d="M160.27,164.77c2.21,0,4.43,0,6.64,0,1.17,0,1.77.41,1.75,1.67s-.57,1.73-1.77,1.68c-5.2-.2-4.29.44-4.35,4.58,0,3.05-.07,6.1,0,9.14.05,1.67-.75,2-2.19,2s-2.37-.26-2.31-2.07c.11-3.7,0-7.41,0-11.11,0-2.18-.33-2.5-2.47-2.54-.66,0-1.31,0-2,0-1.18,0-1.75-.44-1.76-1.68s.56-1.69,1.75-1.67C155.85,164.8,158.06,164.77,160.27,164.77Z"/><path class="cls-1" d="M264.4,164.77a25.73,25.73,0,0,1,3.93.06c.56.08,1.39.83,1.41,1.3a2,2,0,0,1-1.26,1.46c-1.57.18-2,1-2,2.41q.06,4.4,0,8.79c0,1.27.43,2.08,1.83,2.1a1.34,1.34,0,0,1,1.51,1.56c0,1.14-.79,1.35-1.72,1.35h-7.53c-.9,0-1.68-.17-1.72-1.33s.48-1.54,1.5-1.55c1.31,0,1.79-.76,1.79-2,0-3.11,0-6.21,0-9.32,0-1.19-.49-1.95-1.79-2a1.32,1.32,0,0,1-1.49-1.56c.05-1.17.82-1.32,1.73-1.32Z"/><path class="cls-1" d="M141.38,174.33c0-1.55,0-3.11,0-4.66,0-1.16-.42-2-1.75-2-1,0-1.57-.43-1.54-1.52s.75-1.37,1.68-1.37h7.54c.91,0,1.68.16,1.73,1.32a1.33,1.33,0,0,1-1.47,1.59c-1.38,0-1.86.81-1.85,2.09q0,4.58,0,9.15c0,1.21.48,2,1.77,2,1.12,0,1.83.63,1.48,1.67a2.35,2.35,0,0,1-1.76,1.19c-2.38.14-4.78.07-7.17,0-.92,0-1.87,0-1.95-1.29s.56-1.59,1.64-1.61,1.65-.8,1.65-1.9C141.38,177.44,141.38,175.88,141.38,174.33Z"/></svg>