<?xml version="1.0" encoding="UTF-8"?>
<svg xmlns="http://www.w3.org/2000/svg" xmlns:xlink="http://www.w3.org/1999/xlink" width="871.39pt" height="491.87pt" viewBox="0 0 871.39 491.87" version="1.1">
<defs>
<clipPath id="clip1">
  <path d="M 76 489 L 798 489 L 798 491.871094 L 76 491.871094 Z M 76 489 "/>
</clipPath>
<clipPath id="clip2">
  <path d="M 866 67 L 871.390625 67 L 871.390625 73 L 866 73 Z M 866 67 "/>
</clipPath>
</defs>
<g id="surface1">
<path style=" stroke:none;fill-rule:nonzero;fill:rgb(8.235168%,29.019165%,48.626709%);fill-opacity:1;" d="M 465.890625 130.144531 C 466.683594 126.492188 466.8125 124.332031 466.441406 122.921875 C 466.070313 121.507813 465.085938 121.011719 463.480469 121.011719 C 460.019531 121.011719 458.355469 124 455.972656 135.039063 C 453.582031 146.085938 453.96875 148.992188 457.429688 148.992188 C 460.21875 148.992188 462.199219 147.246094 463.417969 141.601563 L 464.046875 138.695313 L 477.722656 138.695313 C 476.199219 145.753906 474.039063 150.652344 470.386719 153.890625 C 466.730469 157.128906 461.679688 158.625 455.351563 158.625 C 443.699219 158.625 436.433594 155.136719 440.613281 135.792969 C 445.207031 114.535156 454.925781 111.378906 466.320313 111.378906 C 479.828125 111.378906 481.992188 118.9375 479.570313 130.144531 L 465.890625 130.144531 "/>
<path style=" stroke:none;fill-rule:nonzero;fill:rgb(8.235168%,29.019165%,48.626709%);fill-opacity:1;" d="M 501.148438 148.992188 C 504.613281 148.992188 505.949219 146.335938 508.386719 135.039063 C 510.847656 123.667969 510.660156 121.011719 507.199219 121.011719 C 503.820313 121.011719 502.402344 123.667969 499.945313 135.039063 C 497.507813 146.335938 497.773438 148.992188 501.148438 148.992188 Z M 499.070313 158.625 C 481.257813 158.625 481.96875 147.914063 484.765625 134.960938 C 487.316406 123.167969 492.144531 111.378906 509.277344 111.378906 C 527.09375 111.378906 526.382813 122.089844 523.582031 135.039063 C 521.03125 146.835938 516.207031 158.625 499.070313 158.625 "/>
<path style=" stroke:none;fill-rule:nonzero;fill:rgb(8.235168%,29.019165%,48.626709%);fill-opacity:1;" d="M 555.441406 127.816406 C 556.253906 124.082031 555.578125 122.503906 552.878906 122.503906 C 550.175781 122.503906 548.820313 124.082031 548.015625 127.816406 L 541.605469 157.460938 L 526.410156 157.460938 L 536.121094 112.539063 L 550.808594 112.539063 L 549.625 118.023438 L 549.796875 118.023438 C 552.6875 113.625 557.054688 111.378906 562.285156 111.378906 C 568.535156 111.378906 571.070313 113.703125 571.941406 118.273438 C 575.398438 113.207031 580.269531 111.378906 584.914063 111.378906 C 591.582031 111.378906 596.261719 113.953125 594.183594 123.585938 L 586.859375 157.460938 L 571.660156 157.460938 L 578.070313 127.816406 C 578.875 124.082031 578.203125 122.503906 575.503906 122.503906 C 572.800781 122.503906 571.449219 124.082031 570.640625 127.816406 L 564.230469 157.460938 L 549.039063 157.460938 L 555.441406 127.816406 "/>
<path style=" stroke:none;fill-rule:nonzero;fill:rgb(8.235168%,29.019165%,48.626709%);fill-opacity:1;" d="M 624.484375 127.816406 C 625.296875 124.082031 624.621094 122.503906 621.921875 122.503906 C 619.21875 122.503906 617.867188 124.082031 617.0625 127.816406 L 610.652344 157.460938 L 595.453125 157.460938 L 605.164063 112.539063 L 619.855469 112.539063 L 618.671875 118.023438 L 618.839844 118.023438 C 621.730469 113.625 626.101563 111.378906 631.332031 111.378906 C 637.578125 111.378906 640.117188 113.703125 640.984375 118.273438 C 644.445313 113.207031 649.316406 111.378906 653.960938 111.378906 C 660.625 111.378906 665.304688 113.953125 663.226563 123.585938 L 655.902344 157.460938 L 640.707031 157.460938 L 647.113281 127.816406 C 647.917969 124.082031 647.246094 122.503906 644.546875 122.503906 C 641.84375 122.503906 640.492188 124.082031 639.683594 127.816406 L 633.273438 157.460938 L 618.082031 157.460938 L 624.484375 127.816406 "/>
<path style=" stroke:none;fill-rule:nonzero;fill:rgb(8.235168%,29.019165%,48.626709%);fill-opacity:1;" d="M 676.320313 112.539063 L 691.515625 112.539063 L 685.109375 142.183594 C 684.300781 145.921875 684.972656 147.496094 687.671875 147.496094 C 690.378906 147.496094 691.730469 145.921875 692.535156 142.183594 L 698.945313 112.539063 L 714.140625 112.539063 L 704.433594 157.460938 L 689.742188 157.460938 L 690.925781 151.980469 L 690.757813 151.980469 C 687.863281 156.382813 683.496094 158.625 678.265625 158.625 C 671.59375 158.625 666.914063 156.050781 668.996094 146.421875 L 676.320313 112.539063 "/>
<path style=" stroke:none;fill-rule:nonzero;fill:rgb(8.235168%,29.019165%,48.626709%);fill-opacity:1;" d="M 721.894531 112.539063 L 736.585938 112.539063 L 735.398438 118.023438 L 735.570313 118.023438 C 738.464844 113.625 742.828125 111.378906 748.0625 111.378906 C 754.734375 111.378906 759.410156 113.953125 757.328125 123.585938 L 750.007813 157.460938 L 734.8125 157.460938 L 741.21875 127.816406 C 742.023438 124.082031 741.355469 122.503906 738.648438 122.503906 C 735.949219 122.503906 734.597656 124.082031 733.789063 127.816406 L 727.382813 157.460938 L 712.1875 157.460938 L 721.894531 112.539063 "/>
<path style=" stroke:none;fill-rule:nonzero;fill:rgb(8.235168%,29.019165%,48.626709%);fill-opacity:1;" d="M 770.835938 98.175781 L 786.027344 98.175781 L 783.621094 109.304688 L 768.429688 109.304688 Z M 767.730469 112.539063 L 782.925781 112.539063 L 773.214844 157.460938 L 758.019531 157.460938 L 767.730469 112.539063 "/>
<path style=" stroke:none;fill-rule:nonzero;fill:rgb(8.235168%,29.019165%,48.626709%);fill-opacity:1;" d="M 789.757813 112.539063 L 794.820313 112.539063 L 797.675781 99.339844 L 812.871094 99.339844 L 810.015625 112.539063 L 816.011719 112.539063 L 813.839844 122.589844 L 807.847656 122.589844 L 803.21875 144.011719 C 802.660156 146.582031 803.644531 147.496094 806.09375 147.496094 L 808.457031 147.496094 L 806.304688 157.460938 C 803.441406 157.792969 800.453125 157.960938 797.921875 157.960938 C 788.636719 157.960938 785.328125 156.46875 787.480469 146.503906 L 792.648438 122.589844 L 787.585938 122.589844 L 789.757813 112.539063 "/>
<path style=" stroke:none;fill-rule:nonzero;fill:rgb(8.235168%,29.019165%,48.626709%);fill-opacity:1;" d="M 813.238281 161.277344 C 814.28125 161.53125 815.445313 161.609375 816.542969 161.609375 C 820.34375 161.609375 822.144531 159.121094 822.34375 158.210938 C 822.488281 157.542969 822.472656 156.050781 822.382813 154.890625 L 819.46875 112.539063 L 835.171875 112.539063 L 833.261719 142.847656 L 833.429688 142.847656 L 844.371094 112.539063 L 859.5625 112.539063 L 837.296875 158.957031 C 832.367188 169.253906 827.617188 172.078125 819.433594 172.078125 C 816.222656 172.078125 813.457031 171.992188 810.976563 171.746094 L 813.238281 161.277344 "/>
<path style=" stroke:none;fill-rule:nonzero;fill:rgb(82.743835%,6.666565%,27.058411%);fill-opacity:1;" d="M 172.070313 43.121094 C 164.929688 66.023438 145.0625 83.859375 127.703125 82.960938 C 110.339844 82.0625 102.058594 62.765625 109.195313 39.867188 C 116.339844 16.972656 136.203125 -0.867188 153.5625 0.0351563 C 170.929688 0.933594 179.210938 20.230469 172.070313 43.121094 "/>
<path style=" stroke:none;fill-rule:nonzero;fill:rgb(82.743835%,6.666565%,27.058411%);fill-opacity:1;" d="M 135.992188 104.464844 C 135.992188 104.464844 158.949219 66.664063 196.3125 63.359375 C 222.421875 60.050781 244.480469 74.699219 224.671875 112.492188 C 204.867188 150.289063 165.703125 169.1875 124.289063 168.242188 C 109.054688 168.40625 83.273438 163.308594 81.582031 166.414063 C 79.894531 169.515625 87.074219 176.613281 108.632813 178.609375 C 108.632813 178.609375 103.136719 180.828125 92.148438 180.828125 C 80.730469 180.808594 62.523438 179.289063 62.523438 183.414063 C 62.523438 187.542969 73.488281 188.84375 95.625 190.363281 C 95.625 190.363281 93.96875 191.667969 82.175781 192.105469 C 70.386719 192.539063 54.457031 191.667969 54.664063 196.015625 C 54.867188 199.488281 68.527344 201.878906 93.765625 200.574219 C 93.765625 200.574219 92.941406 203.613281 85.078125 204.050781 C 77.210938 204.484375 62.523438 204.050781 62.523438 207.960938 C 62.523438 211.863281 81.761719 212.949219 96.453125 212.300781 C 96.453125 212.300781 93.96875 215.128906 88.386719 215.34375 C 82.796875 215.554688 71.417969 216.648438 71.417969 220.117188 C 71.417969 223.59375 86.933594 223.589844 98.527344 223.371094 C 110.109375 223.160156 160.59375 220.765625 189.765625 194.277344 C 214.386719 171.476563 222.25 149.539063 225.148438 150.628906 C 228.042969 151.71875 226.800781 157.359375 221.835938 166.480469 C 216.871094 175.601563 214.800781 179.292969 216.664063 180.160156 C 218.527344 181.03125 229.910156 167.132813 240.460938 154.535156 C 248.320313 145.199219 248.734375 142.160156 251.011719 143.898438 C 253.285156 145.636719 247.078125 154.101563 240.664063 162.789063 C 234.253906 171.476563 233.011719 174.296875 234.046875 176.253906 C 235.082031 178.203125 252.667969 155.84375 257.425781 150.632813 C 262.183594 145.421875 263.628906 143.25 265.492188 144.984375 C 267.359375 146.71875 262.804688 151.933594 260.113281 155.195313 C 257.425781 158.449219 240.460938 179.296875 243.355469 182.335938 C 246.253906 185.375 264.875 156.929688 267.980469 159.972656 C 272.53125 164.097656 247.285156 186.679688 250.183594 191.238281 C 252.460938 193.628906 267.980469 174.734375 269.839844 176.902344 C 271.082031 180.167969 256.390625 195.796875 247.285156 207.089844 C 238.1875 218.382813 189.109375 273.4375 136.292969 311.234375 C 136.292969 311.234375 72.972656 282.574219 37.410156 242.414063 C 1.847656 202.257813 -0.402344 179.582031 0.046875 158.792969 C 0.496094 138.007813 18.953125 90.289063 77.472656 89.34375 C 108.535156 89.34375 135.992188 104.464844 135.992188 104.464844 "/>
<path style=" stroke:none;fill-rule:nonzero;fill:rgb(8.235168%,29.019165%,48.626709%);fill-opacity:1;" d="M 366.214844 210.148438 L 331.878906 210.148438 C 362.308594 170.421875 388.566406 136.601563 388.566406 136.601563 Z M 369.183594 105.523438 C 300.097656 202.378906 182.308594 313.214844 182.308594 313.214844 L 254.378906 313.214844 C 268.449219 293.660156 291.023438 263.695313 313.671875 233.972656 L 358.972656 233.972656 L 334.890625 313.214844 L 386.082031 313.214844 L 434.785156 105.523438 L 369.183594 105.523438 "/>
<path style=" stroke:none;fill-rule:nonzero;fill:rgb(8.235168%,29.019165%,48.626709%);fill-opacity:1;" d="M 473.355469 253.078125 C 475.253906 244.460938 475.5625 239.371094 474.675781 236.039063 C 473.78125 232.714844 471.402344 231.535156 467.546875 231.535156 C 459.21875 231.535156 455.226563 238.585938 449.492188 264.632813 C 443.753906 290.675781 444.675781 297.535156 453.003906 297.535156 C 459.703125 297.535156 464.464844 293.417969 467.398438 280.105469 L 468.910156 273.25 L 501.804688 273.25 C 498.132813 289.894531 492.949219 301.449219 484.160156 309.085938 C 475.371094 316.726563 463.226563 320.25 447.996094 320.25 C 419.980469 320.25 402.5 312.023438 412.554688 266.394531 C 423.601563 216.261719 446.96875 208.816406 474.378906 208.816406 C 506.859375 208.816406 512.070313 226.640625 506.246094 253.078125 L 473.355469 253.078125 "/>
<path style=" stroke:none;fill-rule:nonzero;fill:rgb(8.235168%,29.019165%,48.626709%);fill-opacity:1;" d="M 518.648438 211.5625 L 530.828125 211.5625 L 537.6875 180.425781 L 574.234375 180.425781 L 567.375 211.5625 L 581.789063 211.5625 L 576.570313 235.257813 L 562.152344 235.257813 L 551.023438 285.78125 C 549.683594 291.851563 552.050781 294.003906 557.941406 294.003906 L 563.625 294.003906 L 558.449219 317.507813 C 551.574219 318.289063 544.382813 318.683594 538.289063 318.683594 C 515.957031 318.683594 508.003906 315.15625 513.179688 291.660156 L 525.609375 235.257813 L 513.425781 235.257813 L 518.648438 211.5625 "/>
<path style=" stroke:none;fill-rule:nonzero;fill:rgb(8.235168%,29.019165%,48.626709%);fill-opacity:1;" d="M 600.914063 177.683594 L 637.460938 177.683594 L 631.679688 203.921875 L 595.136719 203.921875 Z M 593.453125 211.5625 L 629.996094 211.5625 L 606.652344 317.507813 L 570.105469 317.507813 L 593.453125 211.5625 "/>
<path style=" stroke:none;fill-rule:nonzero;fill:rgb(8.235168%,29.019165%,48.626709%);fill-opacity:1;" d="M 666.402344 297.535156 C 674.726563 297.535156 677.933594 291.265625 683.800781 264.632813 C 689.714844 237.804688 689.265625 231.535156 680.941406 231.535156 C 672.820313 231.535156 669.410156 237.804688 663.496094 264.632813 C 657.628906 291.265625 658.277344 297.535156 666.402344 297.535156 Z M 661.394531 320.25 C 618.554688 320.25 620.261719 294.988281 626.996094 264.4375 C 633.121094 236.628906 644.730469 208.816406 685.949219 208.816406 C 728.785156 208.816406 727.078125 234.082031 720.347656 264.632813 C 714.21875 292.441406 702.609375 320.25 661.394531 320.25 "/>
<path style=" stroke:none;fill-rule:nonzero;fill:rgb(8.235168%,29.019165%,48.626709%);fill-opacity:1;" d="M 743.417969 211.5625 L 778.742188 211.5625 L 775.898438 224.484375 L 776.304688 224.484375 C 783.257813 214.109375 793.761719 208.816406 806.351563 208.816406 C 822.390625 208.816406 833.640625 214.890625 828.636719 237.605469 L 811.03125 317.507813 L 774.484375 317.507813 L 789.890625 247.59375 C 791.832031 238.78125 790.214844 235.0625 783.71875 235.0625 C 777.222656 235.0625 773.964844 238.78125 772.023438 247.59375 L 756.621094 317.507813 L 720.074219 317.507813 L 743.417969 211.5625 "/>
<path style=" stroke:none;fill-rule:nonzero;fill:rgb(8.235168%,29.019165%,48.626709%);fill-opacity:1;" d="M 826.472656 307.164063 L 827.488281 307.164063 C 828.929688 307.164063 829.820313 307.109375 830.164063 307.003906 C 830.511719 306.898438 830.785156 306.710938 830.988281 306.441406 C 831.1875 306.175781 831.289063 305.875 831.289063 305.53125 C 831.289063 305.203125 831.195313 304.90625 830.996094 304.652344 C 830.800781 304.394531 830.519531 304.210938 830.160156 304.097656 C 829.796875 303.984375 828.90625 303.933594 827.488281 303.933594 L 826.472656 303.933594 Z M 823.984375 313.890625 L 823.984375 302.054688 L 826.472656 302.054688 C 828.8125 302.054688 830.117188 302.058594 830.402344 302.082031 C 831.226563 302.152344 831.867188 302.304688 832.324219 302.550781 C 832.78125 302.800781 833.164063 303.179688 833.472656 303.691406 C 833.78125 304.199219 833.933594 304.765625 833.933594 305.386719 C 833.933594 306.238281 833.644531 306.972656 833.066406 307.578125 C 832.484375 308.1875 831.675781 308.5625 830.628906 308.707031 C 831 308.84375 831.285156 308.992188 831.488281 309.152344 C 831.6875 309.308594 831.964844 309.617188 832.316406 310.058594 C 832.40625 310.179688 832.710938 310.660156 833.222656 311.503906 L 834.675781 313.890625 L 831.589844 313.890625 L 830.566406 311.96875 C 829.871094 310.675781 829.300781 309.863281 828.847656 309.527344 C 828.390625 309.195313 827.816406 309.027344 827.128906 309.027344 L 826.472656 309.027344 L 826.472656 313.890625 Z M 829.222656 298.949219 C 827.632813 298.949219 826.109375 299.335938 824.644531 300.101563 C 823.1875 300.871094 822.039063 301.972656 821.203125 303.40625 C 820.359375 304.84375 819.941406 306.347656 819.941406 307.917969 C 819.941406 309.480469 820.347656 310.976563 821.171875 312.390625 C 821.988281 313.808594 823.132813 314.914063 824.605469 315.710938 C 826.070313 316.507813 827.613281 316.90625 829.222656 316.90625 C 830.84375 316.90625 832.386719 316.507813 833.851563 315.710938 C 835.3125 314.914063 836.460938 313.808594 837.28125 312.390625 C 838.109375 310.976563 838.519531 309.480469 838.519531 307.917969 C 838.519531 306.347656 838.101563 304.84375 837.261719 303.40625 C 836.421875 301.972656 835.269531 300.871094 833.800781 300.101563 C 832.339844 299.335938 830.8125 298.949219 829.222656 298.949219 Z M 829.207031 296.765625 C 831.1875 296.765625 833.089844 297.242188 834.914063 298.203125 C 836.734375 299.15625 838.167969 300.527344 839.210938 302.316406 C 840.246094 304.101563 840.769531 305.96875 840.769531 307.917969 C 840.769531 309.863281 840.257813 311.714844 839.238281 313.472656 C 838.21875 315.238281 836.792969 316.613281 834.96875 317.597656 C 833.140625 318.585938 831.21875 319.074219 829.207031 319.074219 C 827.195313 319.074219 825.277344 318.585938 823.449219 317.597656 C 821.621094 316.613281 820.199219 315.238281 819.179688 313.472656 C 818.15625 311.714844 817.644531 309.863281 817.644531 307.917969 C 817.644531 305.96875 818.164063 304.101563 819.207031 302.316406 C 820.25 300.527344 821.683594 299.15625 823.5 298.203125 C 825.324219 297.242188 827.226563 296.765625 829.207031 296.765625 "/>
<path style=" stroke:none;fill-rule:nonzero;fill:rgb(8.235168%,29.019165%,48.626709%);fill-opacity:1;" d="M 89.894531 355.097656 L 92.996094 355.097656 C 97.238281 355.097656 100.230469 350.863281 100.230469 348.296875 C 100.230469 346.179688 97.671875 345.6875 95.660156 345.6875 C 94.464844 345.6875 93.210938 345.773438 92.125 345.910156 Z M 83.640625 340.28125 L 101.753906 340.28125 C 107.453125 340.28125 110.71875 343.207031 110.71875 346.855469 C 110.71875 352.125 105.390625 360.230469 93.375 360.230469 L 88.703125 360.230469 L 85.65625 372.839844 L 75.8125 372.839844 L 83.640625 340.28125 "/>
<path style=" stroke:none;fill-rule:nonzero;fill:rgb(8.235168%,29.019165%,48.626709%);fill-opacity:1;" d="M 164.503906 359.554688 L 162.136719 348.207031 L 162.039063 348.207031 L 155.300781 359.554688 Z M 159.976563 340.28125 L 169.636719 340.28125 L 176.625 372.839844 L 167.371094 372.839844 L 165.609375 364.6875 L 152.179688 364.6875 L 147.300781 372.839844 L 140.40625 372.839844 L 159.976563 340.28125 "/>
<path style=" stroke:none;fill-rule:nonzero;fill:rgb(8.235168%,29.019165%,48.626709%);fill-opacity:1;" d="M 228.980469 354.960938 L 230.917969 354.960938 C 235.722656 354.960938 239.09375 351.226563 239.09375 348.164063 C 239.09375 345.820313 236.664063 345.6875 234.632813 345.6875 C 233.445313 345.6875 232.152344 345.773438 231.011719 345.867188 Z M 223.28125 340.28125 L 239.289063 340.28125 C 246.378906 340.28125 248.65625 343.65625 248.65625 346.675781 C 248.65625 351.71875 244.34375 355.953125 239.191406 357.980469 L 246.179688 372.839844 L 236.167969 372.839844 L 231.261719 359.824219 L 227.992188 359.824219 L 225.117188 372.839844 L 216.144531 372.839844 L 223.28125 340.28125 "/>
<path style=" stroke:none;fill-rule:nonzero;fill:rgb(8.235168%,29.019165%,48.626709%);fill-opacity:1;" d="M 297.378906 345.6875 L 284.152344 345.6875 L 285.347656 340.28125 L 321.285156 340.28125 L 320.089844 345.6875 L 306.96875 345.6875 L 300.953125 372.839844 L 291.359375 372.839844 L 297.378906 345.6875 "/>
<path style=" stroke:none;fill-rule:nonzero;fill:rgb(8.235168%,29.019165%,48.626709%);fill-opacity:1;" d="M 358.46875 340.28125 L 366.523438 340.28125 L 377.703125 360.636719 L 377.804688 360.636719 L 382.335938 340.28125 L 389.582031 340.28125 L 382.335938 372.839844 L 374.378906 372.839844 L 363.101563 352.484375 L 362.996094 352.484375 L 358.519531 372.839844 L 351.21875 372.839844 L 358.46875 340.28125 "/>
<path style=" stroke:none;fill-rule:nonzero;fill:rgb(8.235168%,29.019165%,48.626709%);fill-opacity:1;" d="M 436.269531 340.28125 L 461.851563 340.28125 L 460.601563 345.6875 L 445.074219 345.6875 L 443.199219 353.613281 L 455.65625 353.613281 L 454.5625 358.476563 L 442.15625 358.476563 L 440.074219 367.4375 L 456.851563 367.4375 L 455.597656 372.839844 L 428.765625 372.839844 L 436.269531 340.28125 "/>
<path style=" stroke:none;fill-rule:nonzero;fill:rgb(8.235168%,29.019165%,48.626709%);fill-opacity:1;" d="M 509.898438 354.960938 L 511.863281 354.960938 C 516.742188 354.960938 520.152344 351.226563 520.152344 348.164063 C 520.152344 345.820313 517.691406 345.6875 515.628906 345.6875 C 514.425781 345.6875 513.117188 345.773438 511.960938 345.867188 Z M 504.125 340.28125 L 520.355469 340.28125 C 527.546875 340.28125 529.855469 343.65625 529.855469 346.675781 C 529.855469 351.71875 525.484375 355.953125 520.261719 357.980469 L 527.34375 372.839844 L 517.1875 372.839844 L 512.21875 359.824219 L 508.894531 359.824219 L 505.980469 372.839844 L 496.882813 372.839844 L 504.125 340.28125 "/>
<path style=" stroke:none;fill-rule:nonzero;fill:rgb(8.235168%,29.019165%,48.626709%);fill-opacity:1;" d="M 569.121094 366.445313 C 572.230469 367.347656 575.441406 368.246094 578.761719 368.246094 C 581.816406 368.246094 584.929688 367.390625 584.929688 364.195313 C 584.929688 359.242188 572.484375 357.480469 572.484375 350.097656 C 572.484375 345.867188 576.515625 339.46875 587.480469 339.46875 C 591.105469 339.46875 594.773438 340.058594 598.246094 340.957031 L 596.964844 346.675781 C 594.113281 345.820313 590.644531 344.875 587.632813 344.875 C 585.390625 344.875 582.332031 345.503906 582.332031 348.027344 C 582.332031 352.394531 595.390625 354.917969 595.390625 362.710938 C 595.390625 366.265625 592.628906 373.652344 577.839844 373.652344 C 574.269531 373.652344 569.988281 373.019531 567.742188 372.707031 L 569.121094 366.445313 "/>
<path style=" stroke:none;fill-rule:nonzero;fill:rgb(8.235168%,29.019165%,48.626709%);fill-opacity:1;" d="M 641.835938 340.28125 L 651.855469 340.28125 L 648.890625 353.160156 L 662.335938 353.160156 L 665.289063 340.28125 L 675.308594 340.28125 L 667.839844 372.839844 L 657.820313 372.839844 L 661.140625 358.566406 L 647.699219 358.566406 L 644.378906 372.839844 L 634.359375 372.839844 L 641.835938 340.28125 "/>
<path style=" stroke:none;fill-rule:nonzero;fill:rgb(8.235168%,29.019165%,48.626709%);fill-opacity:1;" d="M 721.136719 340.28125 L 730.53125 340.28125 L 723.527344 372.839844 L 714.132813 372.839844 L 721.136719 340.28125 "/>
<path style=" stroke:none;fill-rule:nonzero;fill:rgb(8.235168%,29.019165%,48.626709%);fill-opacity:1;" d="M 783.191406 355.097656 L 786.167969 355.097656 C 790.238281 355.097656 793.105469 350.863281 793.105469 348.296875 C 793.105469 346.179688 790.652344 345.6875 788.722656 345.6875 C 787.570313 345.6875 786.371094 345.773438 785.328125 345.910156 Z M 777.195313 340.28125 L 794.5625 340.28125 C 800.042969 340.28125 803.175781 343.207031 803.175781 346.855469 C 803.175781 352.125 798.058594 360.230469 786.53125 360.230469 L 782.046875 360.230469 L 779.125 372.839844 L 769.679688 372.839844 L 777.195313 340.28125 "/>
<path style=" stroke:none;fill-rule:nonzero;fill:rgb(82.743835%,6.666565%,27.058411%);fill-opacity:1;" d="M 89.277344 466.542969 L 86.046875 457.066406 L 82.824219 466.542969 Z M 83.941406 450.8125 L 90.296875 450.8125 L 99.417969 477.566406 L 93.03125 477.566406 L 90.722656 470.757813 L 81.40625 470.757813 L 79.070313 477.566406 L 74.820313 477.566406 L 83.941406 450.8125 "/>
<path style=" stroke:none;fill-rule:nonzero;fill:rgb(82.743835%,6.666565%,27.058411%);fill-opacity:1;" d="M 102.613281 450.8125 L 110.8125 450.8125 L 115.785156 467.875 L 115.851563 467.875 L 120.921875 450.8125 L 128.035156 450.8125 L 128.035156 477.566406 L 122.269531 477.566406 L 122.269531 458.84375 L 122.203125 458.84375 L 117.101563 475.792969 L 112.492188 475.792969 L 107.453125 458.363281 L 107.386719 458.363281 L 107.386719 477.566406 L 102.613281 477.566406 L 102.613281 450.8125 "/>
<path style=" stroke:none;fill-rule:nonzero;fill:rgb(82.743835%,6.666565%,27.058411%);fill-opacity:1;" d="M 136.199219 450.8125 L 152.46875 450.8125 L 152.46875 455.253906 L 142.558594 455.253906 L 142.558594 461.765625 L 150.6875 461.765625 L 150.6875 465.761719 L 142.558594 465.761719 L 142.558594 473.125 L 153.257813 473.125 L 153.257813 477.566406 L 136.199219 477.566406 L 136.199219 450.8125 "/>
<path style=" stroke:none;fill-rule:nonzero;fill:rgb(82.743835%,6.666565%,27.058411%);fill-opacity:1;" d="M 162.742188 462.875 L 164.851563 462.875 C 167.054688 462.875 168.242188 460.25 168.242188 458.289063 C 168.242188 456.476563 167.515625 455.253906 164.6875 455.253906 L 162.742188 455.253906 Z M 156.78125 450.8125 L 168.109375 450.8125 C 171.074219 450.8125 174.597656 452.703125 174.597656 457.511719 C 174.597656 460.769531 172.71875 463.765625 170.152344 465.132813 L 177.789063 477.566406 L 170.117188 477.566406 L 164.980469 466.875 L 162.742188 466.875 L 162.742188 477.566406 L 156.78125 477.566406 L 156.78125 450.8125 "/>
<path style=" stroke:none;fill-rule:nonzero;fill:rgb(82.743835%,6.666565%,27.058411%);fill-opacity:1;" d="M 179.636719 450.8125 L 185.988281 450.8125 L 185.988281 477.566406 L 179.636719 477.566406 L 179.636719 450.8125 "/>
<path style=" stroke:none;fill-rule:nonzero;fill:rgb(82.743835%,6.666565%,27.058411%);fill-opacity:1;" d="M 210.6875 456.179688 C 208.414063 455.21875 206.042969 454.589844 203.605469 454.589844 C 197.847656 454.589844 196.035156 459.214844 196.035156 464.023438 C 196.035156 470.019531 198.832031 473.792969 204.265625 473.792969 C 206.539063 473.792969 209.007813 472.980469 211.082031 471.867188 L 211.082031 476.792969 C 208.382813 477.789063 205.484375 478.234375 202.191406 478.234375 C 194.453125 478.234375 189.285156 473.089844 189.285156 464.210938 C 189.285156 455.332031 194.453125 450.148438 202.191406 450.148438 C 205.351563 450.148438 208.085938 450.40625 210.6875 451.039063 L 210.6875 456.179688 "/>
<path style=" stroke:none;fill-rule:nonzero;fill:rgb(82.743835%,6.666565%,27.058411%);fill-opacity:1;" d="M 226.230469 466.542969 L 223.003906 457.066406 L 219.777344 466.542969 Z M 220.894531 450.8125 L 227.25 450.8125 L 236.371094 477.566406 L 229.984375 477.566406 L 227.679688 470.757813 L 218.359375 470.757813 L 216.023438 477.566406 L 211.773438 477.566406 L 220.894531 450.8125 "/>
<path style=" stroke:none;fill-rule:nonzero;fill:rgb(82.743835%,6.666565%,27.058411%);fill-opacity:1;" d="M 235.140625 446.148438 L 234.230469 457.9375 L 236.648438 458.511719 L 241.324219 447.617188 L 235.140625 446.148438 "/>
<path style=" stroke:none;fill-rule:nonzero;fill:rgb(82.743835%,6.666565%,27.058411%);fill-opacity:1;" d="M 243.484375 472.203125 C 245.527344 473.125 247.734375 473.792969 249.941406 473.792969 C 251.617188 473.792969 253.890625 473.273438 253.890625 470.871094 C 253.890625 466.542969 243.289063 466.097656 243.289063 457.660156 C 243.289063 452.292969 247.570313 450.148438 251.75 450.148438 C 254.121094 450.148438 256.492188 450.480469 258.832031 450.960938 L 258.832031 456.03125 C 256.886719 455.253906 254.8125 454.589844 252.738281 454.589844 C 251.488281 454.589844 249.644531 455.144531 249.644531 456.882813 C 249.644531 460.917969 260.640625 461.433594 260.640625 470.167969 C 260.640625 472.867188 259.390625 478.234375 250.894531 478.234375 C 247.832031 478.234375 245.230469 477.898438 243.484375 477.566406 L 243.484375 472.203125 "/>
<path style=" stroke:none;fill-rule:nonzero;fill:rgb(82.743835%,6.666565%,27.058411%);fill-opacity:1;" d="M 280.167969 463.210938 C 282.375 463.210938 285.601563 462.914063 285.601563 458.511719 C 285.601563 456.070313 283.988281 455.253906 282.046875 455.253906 C 281.421875 455.253906 280.796875 455.367188 280.167969 455.511719 Z M 274.210938 450.8125 L 284.84375 450.8125 C 289.289063 450.8125 291.957031 452.703125 291.957031 457.957031 C 291.957031 463.285156 288.960938 467.207031 283.660156 467.207031 L 280.167969 467.207031 L 280.167969 477.566406 L 274.210938 477.566406 L 274.210938 450.8125 "/>
<path style=" stroke:none;fill-rule:nonzero;fill:rgb(82.743835%,6.666565%,27.058411%);fill-opacity:1;" d="M 307.828125 473.792969 C 312.308594 473.792969 313.953125 468.5 313.953125 464.210938 C 313.953125 459.917969 312.308594 454.589844 307.828125 454.589844 C 303.316406 454.589844 301.671875 459.917969 301.671875 464.210938 C 301.671875 468.5 303.316406 473.792969 307.828125 473.792969 Z M 307.828125 450.148438 C 315.566406 450.148438 320.703125 455.332031 320.703125 464.210938 C 320.703125 473.089844 315.566406 478.234375 307.828125 478.234375 C 300.09375 478.234375 294.921875 473.089844 294.921875 464.210938 C 294.921875 455.332031 300.09375 450.148438 307.828125 450.148438 "/>
<path style=" stroke:none;fill-rule:nonzero;fill:rgb(82.743835%,6.666565%,27.058411%);fill-opacity:1;" d="M 319.75 450.8125 L 326.5 450.8125 L 332.757813 470.3125 L 332.824219 470.3125 L 338.949219 450.8125 L 343.164063 450.8125 L 334.734375 477.566406 L 328.378906 477.566406 L 319.75 450.8125 "/>
<path style=" stroke:none;fill-rule:nonzero;fill:rgb(82.743835%,6.666565%,27.058411%);fill-opacity:1;" d="M 344.910156 450.8125 L 361.175781 450.8125 L 361.175781 455.253906 L 351.265625 455.253906 L 351.265625 461.765625 L 359.398438 461.765625 L 359.398438 465.761719 L 351.265625 465.761719 L 351.265625 473.125 L 361.964844 473.125 L 361.964844 477.566406 L 344.910156 477.566406 L 344.910156 450.8125 "/>
<path style=" stroke:none;fill-rule:nonzero;fill:rgb(82.743835%,6.666565%,27.058411%);fill-opacity:1;" d="M 371.449219 462.875 L 373.558594 462.875 C 375.765625 462.875 376.949219 460.25 376.949219 458.289063 C 376.949219 456.476563 376.226563 455.253906 373.394531 455.253906 L 371.449219 455.253906 Z M 365.488281 450.8125 L 376.816406 450.8125 C 379.78125 450.8125 383.304688 452.703125 383.304688 457.511719 C 383.304688 460.769531 381.429688 463.765625 378.859375 465.132813 L 386.496094 477.566406 L 378.824219 477.566406 L 373.6875 466.875 L 371.449219 466.875 L 371.449219 477.566406 L 365.488281 477.566406 L 365.488281 450.8125 "/>
<path style=" stroke:none;fill-rule:nonzero;fill:rgb(82.743835%,6.666565%,27.058411%);fill-opacity:1;" d="M 391.867188 455.292969 L 383.238281 455.292969 L 383.238281 450.8125 L 406.847656 450.8125 L 406.847656 455.292969 L 398.222656 455.292969 L 398.222656 477.566406 L 391.867188 477.566406 L 391.867188 455.292969 "/>
<path style=" stroke:none;fill-rule:nonzero;fill:rgb(82.743835%,6.666565%,27.058411%);fill-opacity:1;" d="M 414.09375 466.316406 L 406.058594 450.8125 L 412.941406 450.8125 L 418.441406 461.398438 L 423.972656 450.8125 L 428.582031 450.8125 L 420.449219 466.316406 L 420.449219 477.566406 L 414.09375 477.566406 L 414.09375 466.316406 "/>
<path style=" stroke:none;fill-rule:nonzero;fill:rgb(82.743835%,6.666565%,27.058411%);fill-opacity:1;" d="M 439.582031 450.8125 L 456.046875 450.8125 L 456.046875 455.253906 L 445.9375 455.253906 L 445.9375 462.65625 L 454.167969 462.65625 L 454.167969 466.652344 L 445.9375 466.652344 L 445.9375 477.566406 L 439.582031 477.566406 L 439.582031 450.8125 "/>
<path style=" stroke:none;fill-rule:nonzero;fill:rgb(82.743835%,6.666565%,27.058411%);fill-opacity:1;" d="M 460.0625 450.8125 L 466.417969 450.8125 L 466.417969 477.566406 L 460.0625 477.566406 L 460.0625 450.8125 "/>
<path style=" stroke:none;fill-rule:nonzero;fill:rgb(82.743835%,6.666565%,27.058411%);fill-opacity:1;" d="M 492.464844 476.9375 C 489.863281 477.824219 487.230469 478.234375 483.9375 478.234375 C 476.199219 478.234375 471.027344 473.089844 471.027344 464.210938 C 471.027344 455.332031 476.199219 450.148438 483.9375 450.148438 C 487.097656 450.148438 489.832031 450.40625 492.433594 451.039063 L 492.433594 456.179688 C 490.160156 455.21875 487.789063 454.589844 485.355469 454.589844 C 479.589844 454.589844 477.777344 459.214844 477.777344 464.023438 C 477.777344 470.019531 480.578125 473.792969 486.109375 473.792969 L 486.109375 464.984375 L 492.464844 464.984375 L 492.464844 476.9375 "/>
<path style=" stroke:none;fill-rule:nonzero;fill:rgb(82.743835%,6.666565%,27.058411%);fill-opacity:1;" d="M 497.601563 450.8125 L 503.957031 450.8125 L 503.957031 461.324219 L 512.484375 461.324219 L 512.484375 450.8125 L 518.84375 450.8125 L 518.84375 477.566406 L 512.484375 477.566406 L 512.484375 465.761719 L 503.957031 465.761719 L 503.957031 477.566406 L 497.601563 477.566406 L 497.601563 450.8125 "/>
<path style=" stroke:none;fill-rule:nonzero;fill:rgb(82.743835%,6.666565%,27.058411%);fill-opacity:1;" d="M 527.898438 455.292969 L 519.269531 455.292969 L 519.269531 450.8125 L 542.882813 450.8125 L 542.882813 455.292969 L 534.253906 455.292969 L 534.253906 477.566406 L 527.898438 477.566406 L 527.898438 455.292969 "/>
<path style=" stroke:none;fill-rule:nonzero;fill:rgb(82.743835%,6.666565%,27.058411%);fill-opacity:1;" d="M 543.308594 450.8125 L 549.664063 450.8125 L 549.664063 477.566406 L 543.308594 477.566406 L 543.308594 450.8125 "/>
<path style=" stroke:none;fill-rule:nonzero;fill:rgb(82.743835%,6.666565%,27.058411%);fill-opacity:1;" d="M 554.785156 450.8125 L 560.5625 450.8125 L 571.582031 466.875 L 571.652344 466.875 L 571.652344 450.8125 L 576.855469 450.8125 L 576.855469 477.566406 L 571.113281 477.566406 L 560.0625 461.507813 L 559.988281 461.507813 L 559.988281 477.566406 L 554.785156 477.566406 L 554.785156 450.8125 "/>
<path style=" stroke:none;fill-rule:nonzero;fill:rgb(82.743835%,6.666565%,27.058411%);fill-opacity:1;" d="M 602.496094 476.9375 C 599.894531 477.824219 597.261719 478.234375 593.96875 478.234375 C 586.230469 478.234375 581.058594 473.089844 581.058594 464.210938 C 581.058594 455.332031 586.230469 450.148438 593.96875 450.148438 C 597.128906 450.148438 599.859375 450.40625 602.460938 451.039063 L 602.460938 456.179688 C 600.1875 455.21875 597.820313 454.589844 595.382813 454.589844 C 589.621094 454.589844 587.808594 459.214844 587.808594 464.023438 C 587.808594 470.019531 590.605469 473.792969 596.140625 473.792969 L 596.140625 464.984375 L 602.496094 464.984375 L 602.496094 476.9375 "/>
<path style=" stroke:none;fill-rule:nonzero;fill:rgb(82.743835%,6.666565%,27.058411%);fill-opacity:1;" d="M 618.425781 450.8125 L 624.023438 450.8125 L 634.699219 466.875 L 634.769531 466.875 L 634.769531 450.8125 L 639.8125 450.8125 L 639.8125 477.566406 L 634.246094 477.566406 L 623.535156 461.507813 L 623.46875 461.507813 L 623.46875 477.566406 L 618.425781 477.566406 L 618.425781 450.8125 "/>
<path style=" stroke:none;fill-rule:nonzero;fill:rgb(82.743835%,6.666565%,27.058411%);fill-opacity:1;" d="M 644.804688 450.8125 L 661.070313 450.8125 L 661.070313 455.253906 L 651.160156 455.253906 L 651.160156 461.765625 L 659.292969 461.765625 L 659.292969 465.761719 L 651.160156 465.761719 L 651.160156 473.125 L 661.863281 473.125 L 661.863281 477.566406 L 644.804688 477.566406 L 644.804688 450.8125 "/>
<path style=" stroke:none;fill-rule:nonzero;fill:rgb(82.743835%,6.666565%,27.058411%);fill-opacity:1;" d="M 670.226563 455.292969 L 661.597656 455.292969 L 661.597656 450.8125 L 685.210938 450.8125 L 685.210938 455.292969 L 676.582031 455.292969 L 676.582031 477.566406 L 670.226563 477.566406 L 670.226563 455.292969 "/>
<path style=" stroke:none;fill-rule:nonzero;fill:rgb(82.743835%,6.666565%,27.058411%);fill-opacity:1;" d="M 683.480469 450.8125 L 689.941406 450.8125 L 694.140625 468.945313 L 694.214844 468.945313 L 698.269531 450.8125 L 703.613281 450.8125 L 707.492188 468.980469 L 707.5625 468.980469 L 711.835938 450.8125 L 716.246094 450.8125 L 709.859375 477.566406 L 703.363281 477.566406 L 699.917969 461.359375 L 699.847656 461.359375 L 696.222656 477.566406 L 689.761719 477.566406 L 683.480469 450.8125 "/>
<path style=" stroke:none;fill-rule:nonzero;fill:rgb(82.743835%,6.666565%,27.058411%);fill-opacity:1;" d="M 731.421875 473.792969 C 735.898438 473.792969 737.542969 468.5 737.542969 464.210938 C 737.542969 459.917969 735.898438 454.589844 731.421875 454.589844 C 726.90625 454.589844 725.261719 459.917969 725.261719 464.210938 C 725.261719 468.5 726.90625 473.792969 731.421875 473.792969 Z M 731.421875 450.148438 C 739.15625 450.148438 744.296875 455.332031 744.296875 464.210938 C 744.296875 473.089844 739.15625 478.234375 731.421875 478.234375 C 723.683594 478.234375 718.511719 473.089844 718.511719 464.210938 C 718.511719 455.332031 723.683594 450.148438 731.421875 450.148438 "/>
<path style=" stroke:none;fill-rule:nonzero;fill:rgb(82.743835%,6.666565%,27.058411%);fill-opacity:1;" d="M 754.863281 462.875 L 756.972656 462.875 C 759.179688 462.875 760.363281 460.25 760.363281 458.289063 C 760.363281 456.476563 759.640625 455.253906 756.808594 455.253906 L 754.863281 455.253906 Z M 748.90625 450.8125 L 760.234375 450.8125 C 763.195313 450.8125 766.71875 452.703125 766.71875 457.511719 C 766.71875 460.769531 764.84375 463.765625 762.273438 465.132813 L 769.914063 477.566406 L 762.242188 477.566406 L 757.105469 466.875 L 754.863281 466.875 L 754.863281 477.566406 L 748.90625 477.566406 L 748.90625 450.8125 "/>
<path style=" stroke:none;fill-rule:nonzero;fill:rgb(82.743835%,6.666565%,27.058411%);fill-opacity:1;" d="M 773.074219 450.8125 L 779.429688 450.8125 L 779.429688 463.652344 L 779.496094 463.652344 L 787.859375 450.8125 L 792.800781 450.8125 L 785.160156 462.433594 L 794.710938 477.566406 L 787.105469 477.566406 L 779.496094 464.765625 L 779.429688 464.765625 L 779.429688 477.566406 L 773.074219 477.566406 L 773.074219 450.8125 "/>
<path style=" stroke:none;fill-rule:nonzero;fill:rgb(82.743835%,6.666565%,27.058411%);fill-opacity:1;" d="M 797.789063 437.703125 L 76.207031 437.703125 L 76.207031 435.703125 L 797.789063 435.703125 L 797.789063 437.703125 "/>
<g clip-path="url(#clip1)" clip-rule="nonzero">
<path style=" stroke:none;fill-rule:nonzero;fill:rgb(82.743835%,6.666565%,27.058411%);fill-opacity:1;" d="M 797.789063 491.871094 L 76.207031 491.871094 L 76.207031 489.871094 L 797.789063 489.871094 L 797.789063 491.871094 "/>
</g>
<path style=" stroke:none;fill-rule:nonzero;fill:rgb(8.235168%,29.019165%,48.626709%);fill-opacity:1;" d="M 313.183594 42.011719 L 310.707031 54.789063 L 324.65625 54.789063 L 327.085938 42.011719 L 330.867188 42.011719 L 325.0625 72.339844 L 321.328125 72.339844 L 324.027344 58.074219 L 310.078125 58.074219 L 307.378906 72.339844 L 303.644531 72.339844 L 309.445313 42.011719 L 313.183594 42.011719 "/>
<path style=" stroke:none;fill-rule:nonzero;fill:rgb(8.235168%,29.019165%,48.626709%);fill-opacity:1;" d="M 346.617188 55.734375 C 346.617188 53.980469 345.265625 52.992188 343.285156 52.992188 C 339.730469 52.992188 337.078125 56.457031 336.175781 59.875 C 342.027344 59.921875 346.617188 59.15625 346.617188 55.78125 Z M 347.425781 71.082031 C 345.808594 72.023438 343.152344 72.835938 340.226563 72.835938 C 334.46875 72.835938 331.945313 68.875 331.945313 64.0625 C 331.945313 57.492188 336.808594 50.066406 343.828125 50.066406 C 347.96875 50.066406 350.21875 52.539063 350.21875 55.644531 C 350.21875 61.359375 343.78125 62.890625 335.726563 62.757813 C 335.546875 63.699219 335.683594 65.726563 336.175781 66.894531 C 337.03125 68.832031 338.785156 69.820313 341.035156 69.820313 C 343.601563 69.820313 345.535156 69.011719 346.886719 68.289063 L 347.425781 71.082031 "/>
<path style=" stroke:none;fill-rule:nonzero;fill:rgb(8.235168%,29.019165%,48.626709%);fill-opacity:1;" d="M 352.152344 72.339844 L 358.226563 40.390625 L 361.960938 40.390625 L 355.84375 72.339844 L 352.152344 72.339844 "/>
<path style=" stroke:none;fill-rule:nonzero;fill:rgb(8.235168%,29.019165%,48.626709%);fill-opacity:1;" d="M 366.597656 68.695313 C 367.539063 69.460938 368.980469 69.867188 370.734375 69.867188 C 375.550781 69.867188 379.601563 63.925781 379.601563 58.210938 C 379.601563 55.914063 378.566406 53.171875 375.414063 53.171875 C 372.492188 53.171875 368.800781 56.546875 367.675781 62.621094 Z M 360.476563 81.25 L 364.839844 58.300781 C 365.289063 55.691406 365.742188 52.722656 366.054688 50.515625 L 369.476563 50.515625 L 368.847656 54.65625 L 368.9375 54.65625 C 370.914063 51.820313 373.796875 50.066406 376.765625 50.066406 C 381.492188 50.066406 383.46875 53.9375 383.46875 57.941406 C 383.46875 65.589844 377.980469 72.835938 370.734375 72.835938 C 368.394531 72.835938 366.867188 72.339844 366.011719 71.84375 L 365.921875 71.84375 L 364.164063 81.25 L 360.476563 81.25 "/>
<path style=" stroke:none;fill-rule:nonzero;fill:rgb(8.235168%,29.019165%,48.626709%);fill-opacity:1;" d="M 393.011719 46.828125 C 391.75 46.828125 390.894531 45.835938 390.894531 44.488281 C 390.941406 43.046875 392.019531 41.964844 393.371094 41.964844 C 394.722656 41.964844 395.574219 42.957031 395.574219 44.304688 C 395.53125 45.789063 394.496094 46.828125 393.054688 46.828125 Z M 386.035156 72.339844 L 390.222656 50.5625 L 393.957031 50.5625 L 389.769531 72.339844 L 386.035156 72.339844 "/>
<path style=" stroke:none;fill-rule:nonzero;fill:rgb(8.235168%,29.019165%,48.626709%);fill-opacity:1;" d="M 396.339844 72.339844 L 399.265625 56.90625 C 399.761719 54.476563 400.03125 52.359375 400.300781 50.5625 L 403.628906 50.5625 L 403.089844 54.835938 L 403.179688 54.835938 C 405.113281 51.777344 408.039063 50.066406 411.234375 50.066406 C 413.84375 50.066406 416.769531 51.550781 416.769531 56.140625 C 416.769531 57.085938 416.589844 58.480469 416.363281 59.652344 L 413.933594 72.339844 L 410.199219 72.339844 L 412.585938 59.785156 C 412.765625 58.929688 412.898438 57.894531 412.898438 56.996094 C 412.898438 54.789063 412.046875 53.171875 409.480469 53.171875 C 406.824219 53.171875 403.046875 56.367188 402.054688 61.765625 L 400.074219 72.339844 L 396.339844 72.339844 "/>
<path style=" stroke:none;fill-rule:nonzero;fill:rgb(8.235168%,29.019165%,48.626709%);fill-opacity:1;" d="M 437.289063 53.800781 C 436.613281 53.484375 435.265625 53.082031 433.691406 53.082031 C 428.246094 53.082031 424.511719 58.75 424.464844 64.152344 C 424.464844 66.535156 425.320313 69.371094 428.648438 69.371094 C 431.84375 69.371094 435.128906 65.320313 435.894531 61.046875 Z M 420.59375 77.289063 C 421.898438 78.101563 424.058594 78.730469 426.355469 78.730469 C 430 78.730469 432.878906 76.839844 434.183594 70.945313 L 434.90625 67.707031 L 434.769531 67.707031 C 432.878906 70.808594 430.226563 72.339844 427.210938 72.339844 C 422.84375 72.339844 420.59375 68.652344 420.59375 64.78125 C 420.550781 57.402344 425.996094 50.066406 434.410156 50.066406 C 436.929688 50.066406 439.675781 50.785156 441.382813 51.597656 L 438.054688 69.59375 C 437.15625 74.183594 435.9375 77.382813 433.644531 79.316406 C 431.484375 81.203125 428.558594 81.746094 426.039063 81.746094 C 423.386719 81.746094 420.910156 81.113281 419.515625 80.214844 L 420.59375 77.289063 "/>
<path style=" stroke:none;fill-rule:nonzero;fill:rgb(8.235168%,29.019165%,48.626709%);fill-opacity:1;" d="M 458.84375 57.039063 C 459.925781 57.265625 460.777344 57.355469 461.859375 57.355469 C 466.988281 57.355469 470.410156 54.160156 470.410156 49.886719 C 470.410156 46.285156 467.84375 44.847656 464.378906 44.847656 C 462.894531 44.847656 461.769531 44.980469 461.09375 45.160156 Z M 457.988281 42.460938 C 459.699219 42.054688 462.085938 41.785156 464.558594 41.785156 C 467.484375 41.785156 470.273438 42.507813 471.984375 44.128906 C 473.421875 45.476563 474.1875 47.230469 474.1875 49.617188 C 474.1875 53.035156 472.523438 55.871094 470.542969 57.535156 C 468.203125 59.472656 464.785156 60.414063 461.363281 60.414063 C 460.238281 60.414063 459.203125 60.324219 458.257813 60.191406 L 455.964844 72.339844 L 452.273438 72.339844 L 457.988281 42.460938 "/>
<path style=" stroke:none;fill-rule:nonzero;fill:rgb(8.235168%,29.019165%,48.626709%);fill-opacity:1;" d="M 488.992188 55.734375 C 488.992188 53.980469 487.644531 52.992188 485.664063 52.992188 C 482.109375 52.992188 479.453125 56.457031 478.554688 59.875 C 484.402344 59.921875 488.992188 59.15625 488.992188 55.78125 Z M 489.804688 71.082031 C 488.183594 72.023438 485.527344 72.835938 482.605469 72.835938 C 476.84375 72.835938 474.324219 68.875 474.324219 64.0625 C 474.324219 57.492188 479.183594 50.066406 486.203125 50.066406 C 490.34375 50.066406 492.59375 52.539063 492.59375 55.644531 C 492.59375 61.359375 486.160156 62.890625 478.105469 62.757813 C 477.925781 63.699219 478.058594 65.726563 478.554688 66.894531 C 479.410156 68.832031 481.164063 69.820313 483.414063 69.820313 C 485.980469 69.820313 487.914063 69.011719 489.265625 68.289063 L 489.804688 71.082031 "/>
<path style=" stroke:none;fill-rule:nonzero;fill:rgb(8.235168%,29.019165%,48.626709%);fill-opacity:1;" d="M 498.667969 63.746094 C 498.667969 67.300781 500.605469 69.867188 503.796875 69.867188 C 508.207031 69.867188 511.539063 64.195313 511.539063 59.109375 C 511.539063 56.589844 510.367188 53.035156 506.453125 53.035156 C 501.773438 53.035156 498.625 58.75 498.667969 63.746094 Z M 515.363281 59.15625 C 515.363281 65.859375 510.59375 72.835938 503.304688 72.835938 C 497.859375 72.835938 494.796875 68.785156 494.796875 63.882813 C 494.796875 56.726563 499.792969 50.066406 506.859375 50.066406 C 512.753906 50.066406 515.363281 54.519531 515.363281 59.15625 "/>
<path style=" stroke:none;fill-rule:nonzero;fill:rgb(8.235168%,29.019165%,48.626709%);fill-opacity:1;" d="M 522.15625 68.695313 C 523.101563 69.460938 524.542969 69.867188 526.296875 69.867188 C 531.113281 69.867188 535.160156 63.925781 535.160156 58.210938 C 535.160156 55.914063 534.128906 53.171875 530.976563 53.171875 C 528.050781 53.171875 524.363281 56.546875 523.238281 62.621094 Z M 516.039063 81.25 L 520.402344 58.300781 C 520.851563 55.691406 521.304688 52.722656 521.617188 50.515625 L 525.039063 50.515625 L 524.40625 54.65625 L 524.496094 54.65625 C 526.476563 51.820313 529.355469 50.066406 532.328125 50.066406 C 537.050781 50.066406 539.03125 53.9375 539.03125 57.941406 C 539.03125 65.589844 533.542969 72.835938 526.296875 72.835938 C 523.957031 72.835938 522.429688 72.339844 521.574219 71.84375 L 521.484375 71.84375 L 519.726563 81.25 L 516.039063 81.25 "/>
<path style=" stroke:none;fill-rule:nonzero;fill:rgb(8.235168%,29.019165%,48.626709%);fill-opacity:1;" d="M 541.644531 72.339844 L 547.71875 40.390625 L 551.453125 40.390625 L 545.332031 72.339844 L 541.644531 72.339844 "/>
<path style=" stroke:none;fill-rule:nonzero;fill:rgb(8.235168%,29.019165%,48.626709%);fill-opacity:1;" d="M 566.796875 55.734375 C 566.796875 53.980469 565.445313 52.992188 563.46875 52.992188 C 559.910156 52.992188 557.257813 56.457031 556.355469 59.875 C 562.207031 59.921875 566.796875 59.15625 566.796875 55.78125 Z M 567.605469 71.082031 C 565.984375 72.023438 563.332031 72.835938 560.40625 72.835938 C 554.648438 72.835938 552.128906 68.875 552.128906 64.0625 C 552.128906 57.492188 556.988281 50.066406 564.007813 50.066406 C 568.144531 50.066406 570.394531 52.539063 570.394531 55.644531 C 570.394531 61.359375 563.960938 62.890625 555.90625 62.757813 C 555.726563 63.699219 555.863281 65.726563 556.355469 66.894531 C 557.210938 68.832031 558.96875 69.820313 561.21875 69.820313 C 563.78125 69.820313 565.714844 69.011719 567.066406 68.289063 L 567.605469 71.082031 "/>
<path style=" stroke:none;fill-rule:nonzero;fill:rgb(8.235168%,29.019165%,48.626709%);fill-opacity:1;" d="M 573.863281 72.835938 C 572.421875 72.835938 571.433594 71.664063 571.433594 70.179688 C 571.433594 68.515625 572.601563 67.164063 574.265625 67.164063 C 575.796875 67.164063 576.785156 68.289063 576.785156 69.867188 C 576.785156 71.484375 575.617188 72.835938 573.90625 72.835938 L 573.863281 72.835938 "/>
<path style=" stroke:none;fill-rule:nonzero;fill:rgb(8.235168%,29.019165%,48.626709%);fill-opacity:1;" d="M 615.035156 71.351563 C 613.324219 72.117188 610.582031 72.835938 607.160156 72.835938 C 599.511719 72.835938 594.875 67.976563 594.875 60.234375 C 594.875 54.519531 597.171875 49.078125 601.355469 45.613281 C 604.460938 42.957031 608.332031 41.515625 612.785156 41.515625 C 616.160156 41.515625 618.546875 42.371094 619.355469 43.003906 L 618.140625 46.015625 C 617.015625 45.339844 614.855469 44.757813 612.15625 44.757813 C 609.007813 44.757813 605.8125 45.972656 603.472656 48.175781 C 600.636719 50.832031 598.835938 55.105469 598.835938 59.695313 C 598.835938 65.140625 601.3125 69.59375 608.0625 69.59375 C 610.355469 69.59375 612.875 69.144531 614.539063 68.289063 L 615.035156 71.351563 "/>
<path style=" stroke:none;fill-rule:nonzero;fill:rgb(8.235168%,29.019165%,48.626709%);fill-opacity:1;" d="M 618.007813 72.339844 L 624.082031 40.390625 L 627.816406 40.390625 L 625.117188 54.429688 L 625.207031 54.429688 C 627.050781 51.777344 629.707031 50.066406 632.992188 50.066406 C 635.464844 50.066406 638.390625 51.597656 638.390625 55.914063 C 638.390625 57.085938 638.253906 58.480469 638.03125 59.605469 L 635.601563 72.339844 L 631.867188 72.339844 L 634.296875 59.785156 C 634.429688 58.976563 634.566406 57.984375 634.566406 56.769531 C 634.566406 54.746094 633.621094 53.171875 631.191406 53.171875 C 628.3125 53.171875 624.664063 56.546875 623.765625 61.449219 L 621.742188 72.339844 L 618.007813 72.339844 "/>
<path style=" stroke:none;fill-rule:nonzero;fill:rgb(8.235168%,29.019165%,48.626709%);fill-opacity:1;" d="M 658.011719 53.351563 C 657.472656 53.214844 656.660156 53.035156 655.402344 53.035156 C 649.777344 53.035156 645.1875 58.929688 645.140625 64.960938 C 645.140625 67.390625 645.996094 69.777344 648.875 69.777344 C 651.980469 69.777344 655.671875 65.726563 656.75 59.921875 Z M 655.582031 72.339844 C 655.582031 71.035156 655.804688 68.964844 656.074219 66.714844 L 655.984375 66.714844 C 653.601563 71.214844 650.632813 72.835938 647.527344 72.835938 C 643.703125 72.835938 641.269531 69.777344 641.269531 65.636719 C 641.269531 58.074219 646.851563 50.066406 656.347656 50.066406 C 658.414063 50.066406 660.710938 50.425781 662.195313 50.921875 L 659.992188 62.261719 C 659.269531 66.039063 658.957031 69.910156 659.046875 72.339844 L 655.582031 72.339844 "/>
<path style=" stroke:none;fill-rule:nonzero;fill:rgb(8.235168%,29.019165%,48.626709%);fill-opacity:1;" d="M 663.726563 72.339844 L 666.648438 56.90625 C 667.144531 54.476563 667.414063 52.359375 667.683594 50.5625 L 671.015625 50.5625 L 670.476563 54.835938 L 670.566406 54.835938 C 672.5 51.777344 675.425781 50.066406 678.621094 50.066406 C 681.230469 50.066406 684.15625 51.550781 684.15625 56.140625 C 684.15625 57.085938 683.972656 58.480469 683.75 59.652344 L 681.320313 72.339844 L 677.585938 72.339844 L 679.96875 59.785156 C 680.148438 58.929688 680.285156 57.894531 680.285156 56.996094 C 680.285156 54.789063 679.429688 53.171875 676.863281 53.171875 C 674.210938 53.171875 670.429688 56.367188 669.441406 61.765625 L 667.460938 72.339844 L 663.726563 72.339844 "/>
<path style=" stroke:none;fill-rule:nonzero;fill:rgb(8.235168%,29.019165%,48.626709%);fill-opacity:1;" d="M 703.773438 53.800781 C 703.097656 53.484375 701.75 53.082031 700.175781 53.082031 C 694.730469 53.082031 690.996094 58.75 690.949219 64.152344 C 690.949219 66.535156 691.804688 69.371094 695.136719 69.371094 C 698.328125 69.371094 701.613281 65.320313 702.378906 61.046875 Z M 687.082031 77.289063 C 688.386719 78.101563 690.546875 78.730469 692.839844 78.730469 C 696.484375 78.730469 699.363281 76.839844 700.667969 70.945313 L 701.390625 67.707031 L 701.253906 67.707031 C 699.363281 70.808594 696.710938 72.339844 693.695313 72.339844 C 689.328125 72.339844 687.082031 68.652344 687.082031 64.78125 C 687.035156 57.402344 692.480469 50.066406 700.894531 50.066406 C 703.414063 50.066406 706.160156 50.785156 707.871094 51.597656 L 704.539063 69.59375 C 703.640625 74.183594 702.425781 77.382813 700.128906 79.316406 C 697.96875 81.203125 695.042969 81.746094 692.523438 81.746094 C 689.871094 81.746094 687.394531 81.113281 686 80.214844 L 687.082031 77.289063 "/>
<path style=" stroke:none;fill-rule:nonzero;fill:rgb(8.235168%,29.019165%,48.626709%);fill-opacity:1;" d="M 716.507813 46.828125 C 715.25 46.828125 714.394531 45.835938 714.394531 44.488281 C 714.441406 43.046875 715.519531 41.964844 716.871094 41.964844 C 718.21875 41.964844 719.074219 42.957031 719.074219 44.304688 C 719.03125 45.789063 717.996094 46.828125 716.554688 46.828125 Z M 709.535156 72.339844 L 713.71875 50.5625 L 717.453125 50.5625 L 713.269531 72.339844 L 709.535156 72.339844 "/>
<path style=" stroke:none;fill-rule:nonzero;fill:rgb(8.235168%,29.019165%,48.626709%);fill-opacity:1;" d="M 718.9375 72.339844 L 721.863281 56.90625 C 722.359375 54.476563 722.628906 52.359375 722.898438 50.5625 L 726.230469 50.5625 L 725.6875 54.835938 L 725.777344 54.835938 C 727.714844 51.777344 730.636719 50.066406 733.832031 50.066406 C 736.445313 50.066406 739.367188 51.550781 739.367188 56.140625 C 739.367188 57.085938 739.1875 58.480469 738.964844 59.652344 L 736.535156 72.339844 L 732.796875 72.339844 L 735.183594 59.785156 C 735.363281 58.929688 735.5 57.894531 735.5 56.996094 C 735.5 54.789063 734.644531 53.171875 732.078125 53.171875 C 729.421875 53.171875 725.644531 56.367188 724.652344 61.765625 L 722.675781 72.339844 L 718.9375 72.339844 "/>
<path style=" stroke:none;fill-rule:nonzero;fill:rgb(8.235168%,29.019165%,48.626709%);fill-opacity:1;" d="M 758.988281 53.800781 C 758.3125 53.484375 756.964844 53.082031 755.386719 53.082031 C 749.945313 53.082031 746.207031 58.75 746.164063 64.152344 C 746.164063 66.535156 747.019531 69.371094 750.347656 69.371094 C 753.542969 69.371094 756.828125 65.320313 757.59375 61.046875 Z M 742.292969 77.289063 C 743.597656 78.101563 745.757813 78.730469 748.054688 78.730469 C 751.699219 78.730469 754.578125 76.839844 755.882813 70.945313 L 756.601563 67.707031 L 756.46875 67.707031 C 754.578125 70.808594 751.921875 72.339844 748.910156 72.339844 C 744.542969 72.339844 742.292969 68.652344 742.292969 64.78125 C 742.25 57.402344 747.695313 50.066406 756.109375 50.066406 C 758.628906 50.066406 761.375 50.785156 763.082031 51.597656 L 759.753906 69.59375 C 758.851563 74.183594 757.636719 77.382813 755.34375 79.316406 C 753.183594 81.203125 750.257813 81.746094 747.738281 81.746094 C 745.082031 81.746094 742.609375 81.113281 741.214844 80.214844 L 742.292969 77.289063 "/>
<path style=" stroke:none;fill-rule:nonzero;fill:rgb(8.235168%,29.019165%,48.626709%);fill-opacity:1;" d="M 785.222656 42.011719 L 788.957031 42.011719 L 783.78125 69.101563 L 796.023438 69.101563 L 795.390625 72.339844 L 779.460938 72.339844 L 785.222656 42.011719 "/>
<path style=" stroke:none;fill-rule:nonzero;fill:rgb(8.235168%,29.019165%,48.626709%);fill-opacity:1;" d="M 806.191406 46.828125 C 804.933594 46.828125 804.078125 45.835938 804.078125 44.488281 C 804.121094 43.046875 805.203125 41.964844 806.550781 41.964844 C 807.902344 41.964844 808.757813 42.957031 808.757813 44.304688 C 808.710938 45.789063 807.675781 46.828125 806.238281 46.828125 Z M 799.21875 72.339844 L 803.402344 50.5625 L 807.136719 50.5625 L 802.953125 72.339844 L 799.21875 72.339844 "/>
<path style=" stroke:none;fill-rule:nonzero;fill:rgb(8.235168%,29.019165%,48.626709%);fill-opacity:1;" d="M 814.382813 50.5625 L 816.269531 62.980469 C 816.585938 65.457031 816.855469 67.121094 816.945313 68.335938 L 817.082031 68.335938 C 817.53125 67.164063 818.117188 65.726563 819.375 63.25 L 826.035156 50.5625 L 830.128906 50.5625 L 818.027344 72.339844 L 814.335938 72.339844 L 810.554688 50.5625 L 814.382813 50.5625 "/>
<path style=" stroke:none;fill-rule:nonzero;fill:rgb(8.235168%,29.019165%,48.626709%);fill-opacity:1;" d="M 844.53125 55.734375 C 844.53125 53.980469 843.179688 52.992188 841.199219 52.992188 C 837.644531 52.992188 834.992188 56.457031 834.089844 59.875 C 839.941406 59.921875 844.53125 59.15625 844.53125 55.78125 Z M 845.339844 71.082031 C 843.722656 72.023438 841.066406 72.835938 838.140625 72.835938 C 832.382813 72.835938 829.863281 68.875 829.863281 64.0625 C 829.863281 57.492188 834.722656 50.066406 841.742188 50.066406 C 845.878906 50.066406 848.128906 52.539063 848.128906 55.644531 C 848.128906 61.359375 841.695313 62.890625 833.640625 62.757813 C 833.460938 63.699219 833.597656 65.726563 834.089844 66.894531 C 834.945313 68.832031 836.699219 69.820313 838.949219 69.820313 C 841.515625 69.820313 843.449219 69.011719 844.800781 68.289063 L 845.339844 71.082031 "/>
<path style=" stroke:none;fill-rule:nonzero;fill:rgb(8.235168%,29.019165%,48.626709%);fill-opacity:1;" d="M 850.199219 68.558594 C 851.234375 69.191406 853.125 69.910156 854.878906 69.910156 C 857.398438 69.910156 859.019531 68.289063 859.019531 66.355469 C 859.019531 64.644531 858.253906 63.609375 856.003906 62.351563 C 853.484375 60.957031 852.089844 59.019531 852.089844 56.816406 C 852.089844 52.992188 855.375 50.066406 859.964844 50.066406 C 861.945313 50.066406 863.699219 50.605469 864.507813 51.144531 L 863.476563 53.980469 C 862.710938 53.53125 861.316406 52.992188 859.695313 52.992188 C 857.445313 52.992188 855.824219 54.386719 855.824219 56.277344 C 855.824219 57.851563 856.859375 58.839844 858.792969 59.921875 C 861.226563 61.316406 862.890625 63.207031 862.890625 65.636719 C 862.890625 70.226563 859.15625 72.835938 854.566406 72.835938 C 852.226563 72.789063 850.15625 72.070313 849.164063 71.304688 L 850.199219 68.558594 "/>
<g clip-path="url(#clip2)" clip-rule="nonzero">
<path style=" stroke:none;fill-rule:nonzero;fill:rgb(8.235168%,29.019165%,48.626709%);fill-opacity:1;" d="M 868.46875 72.835938 C 867.03125 72.835938 866.039063 71.664063 866.039063 70.179688 C 866.039063 68.515625 867.210938 67.164063 868.875 67.164063 C 870.40625 67.164063 871.394531 68.289063 871.394531 69.867188 C 871.394531 71.484375 870.226563 72.835938 868.515625 72.835938 L 868.46875 72.835938 "/>
</g>
<path style=" stroke:none;fill-rule:nonzero;fill:rgb(8.235168%,29.019165%,48.626709%);fill-opacity:1;" d="M 156.523438 422.824219 C 155.558594 423.332031 154.039063 423.652344 152.105469 423.652344 C 146.035156 423.652344 141.710938 418.773438 141.710938 408.238281 C 141.710938 396.003906 147.78125 392.09375 152.65625 392.09375 C 154.542969 392.09375 155.878906 392.460938 156.523438 392.875 L 155.742188 395.863281 C 155.003906 395.542969 154.222656 395.21875 152.613281 395.21875 C 149.300781 395.21875 145.4375 398.441406 145.4375 407.917969 C 145.4375 417.394531 148.933594 420.523438 152.703125 420.523438 C 154.039063 420.523438 155.234375 420.199219 155.972656 419.835938 L 156.523438 422.824219 "/>
<path style=" stroke:none;fill-rule:nonzero;fill:rgb(8.235168%,29.019165%,48.626709%);fill-opacity:1;" d="M 163.652344 412.242188 C 163.652344 415.921875 164.296875 420.9375 167.515625 420.9375 C 170.550781 420.9375 171.148438 415.691406 171.148438 412.242188 C 171.148438 408.835938 170.550781 403.59375 167.421875 403.59375 C 164.25 403.59375 163.652344 408.835938 163.652344 412.242188 Z M 174.738281 412.242188 C 174.738281 420.84375 170.734375 423.742188 167.332031 423.742188 C 163.328125 423.742188 160.109375 420.109375 160.109375 412.289063 C 160.109375 404.144531 163.742188 400.742188 167.5625 400.742188 C 171.519531 400.742188 174.738281 404.46875 174.738281 412.242188 "/>
<path style=" stroke:none;fill-rule:nonzero;fill:rgb(8.235168%,29.019165%,48.626709%);fill-opacity:1;" d="M 179.886719 406.859375 C 179.886719 404.238281 179.75 402.902344 179.703125 401.109375 L 182.785156 401.109375 L 182.96875 403.871094 L 183.0625 403.871094 C 184.027344 402.074219 185.730469 400.742188 188.078125 400.742188 C 190.148438 400.742188 191.894531 401.753906 192.722656 404.144531 L 192.816406 404.144531 C 193.414063 403.042969 194.195313 402.167969 195.023438 401.613281 C 195.898438 401.015625 196.957031 400.742188 198.105469 400.742188 C 201.097656 400.742188 203.441406 402.949219 203.441406 408.609375 L 203.441406 423.375 L 199.945313 423.375 L 199.945313 409.4375 C 199.945313 406.539063 199.53125 403.730469 196.816406 403.730469 C 195.347656 403.730469 194.058594 404.972656 193.550781 407.042969 C 193.460938 407.640625 193.414063 408.332031 193.414063 409.066406 L 193.414063 423.375 L 189.917969 423.375 L 189.917969 408.792969 C 189.917969 406.308594 189.457031 403.730469 186.835938 403.730469 C 185.410156 403.730469 183.9375 404.972656 183.523438 407.320313 C 183.429688 407.917969 183.382813 408.5625 183.382813 409.25 L 183.382813 423.375 L 179.886719 423.375 L 179.886719 406.859375 "/>
<path style=" stroke:none;fill-rule:nonzero;fill:rgb(8.235168%,29.019165%,48.626709%);fill-opacity:1;" d="M 209.605469 406.859375 C 209.605469 404.238281 209.464844 402.902344 209.421875 401.109375 L 212.503906 401.109375 L 212.6875 403.871094 L 212.777344 403.871094 C 213.746094 402.074219 215.445313 400.742188 217.792969 400.742188 C 219.863281 400.742188 221.609375 401.753906 222.4375 404.144531 L 222.53125 404.144531 C 223.128906 403.042969 223.910156 402.167969 224.738281 401.613281 C 225.613281 401.015625 226.671875 400.742188 227.820313 400.742188 C 230.8125 400.742188 233.160156 402.949219 233.160156 408.609375 L 233.160156 423.375 L 229.660156 423.375 L 229.660156 409.4375 C 229.660156 406.539063 229.246094 403.730469 226.535156 403.730469 C 225.0625 403.730469 223.773438 404.972656 223.269531 407.042969 C 223.175781 407.640625 223.128906 408.332031 223.128906 409.066406 L 223.128906 423.375 L 219.632813 423.375 L 219.632813 408.792969 C 219.632813 406.308594 219.171875 403.730469 216.550781 403.730469 C 215.125 403.730469 213.652344 404.972656 213.238281 407.320313 C 213.144531 407.917969 213.101563 408.5625 213.101563 409.25 L 213.101563 423.375 L 209.605469 423.375 L 209.605469 406.859375 "/>
<path style=" stroke:none;fill-rule:nonzero;fill:rgb(8.235168%,29.019165%,48.626709%);fill-opacity:1;" d="M 252.660156 417.304688 C 252.660156 419.789063 252.800781 421.71875 252.84375 423.375 L 249.761719 423.375 L 249.53125 421.027344 L 249.441406 421.027344 C 248.75 422.132813 247.050781 423.742188 244.65625 423.742188 C 240.746094 423.742188 239.226563 420.707031 239.226563 415.1875 L 239.226563 401.109375 L 242.769531 401.109375 L 242.769531 414.679688 C 242.769531 418.175781 243.320313 420.753906 245.761719 420.753906 C 247.832031 420.753906 248.75 418.820313 248.933594 417.808594 C 249.074219 417.210938 249.117188 416.519531 249.117188 415.785156 L 249.117188 401.109375 L 252.660156 401.109375 L 252.660156 417.304688 "/>
<path style=" stroke:none;fill-rule:nonzero;fill:rgb(8.235168%,29.019165%,48.626709%);fill-opacity:1;" d="M 258.824219 406.859375 C 258.824219 404.238281 258.6875 402.902344 258.640625 401.109375 L 261.722656 401.109375 L 261.90625 403.777344 L 261.996094 403.777344 C 262.964844 401.984375 264.757813 400.742188 267.105469 400.742188 C 270.1875 400.742188 272.488281 403.042969 272.488281 408.421875 L 272.488281 423.375 L 268.945313 423.375 L 268.945313 409.023438 C 268.945313 406.398438 268.4375 403.730469 265.863281 403.730469 C 264.390625 403.730469 262.964844 404.972656 262.503906 407.367188 C 262.410156 407.917969 262.367188 408.609375 262.367188 409.34375 L 262.367188 423.375 L 258.824219 423.375 L 258.824219 406.859375 "/>
<path style=" stroke:none;fill-rule:nonzero;fill:rgb(8.235168%,29.019165%,48.626709%);fill-opacity:1;" d="M 278.648438 423.375 L 278.648438 401.109375 L 282.191406 401.109375 L 282.191406 423.375 Z M 282.46875 395.359375 C 282.515625 396.738281 281.640625 397.660156 280.304688 397.660156 C 279.15625 397.660156 278.28125 396.738281 278.28125 395.359375 C 278.28125 393.976563 279.199219 393.058594 280.351563 393.058594 C 281.640625 393.058594 282.46875 393.976563 282.46875 395.359375 "/>
<path style=" stroke:none;fill-rule:nonzero;fill:rgb(8.235168%,29.019165%,48.626709%);fill-opacity:1;" d="M 292.632813 395.910156 L 292.632813 401.109375 L 296.910156 401.109375 L 296.910156 403.824219 L 292.632813 403.824219 L 292.632813 417.027344 C 292.632813 419.925781 293.691406 420.707031 294.980469 420.707031 C 295.53125 420.707031 295.992188 420.664063 296.40625 420.570313 L 296.542969 423.285156 C 295.898438 423.511719 295.070313 423.652344 293.921875 423.652344 C 292.542969 423.652344 291.300781 423.285156 290.425781 422.316406 C 289.550781 421.304688 289.089844 419.789063 289.089844 416.707031 L 289.089844 403.824219 L 286.378906 403.824219 L 286.378906 401.109375 L 289.089844 401.109375 L 289.089844 397.335938 L 292.632813 395.910156 "/>
<path style=" stroke:none;fill-rule:nonzero;fill:rgb(8.235168%,29.019165%,48.626709%);fill-opacity:1;" d="M 303.074219 401.109375 L 306.019531 413.898438 C 306.433594 415.648438 306.664063 417.117188 306.9375 418.5 L 307.03125 418.5 C 307.261719 417.257813 307.628906 415.554688 307.996094 413.945313 L 310.621094 401.109375 L 314.117188 401.109375 L 310.480469 415.417969 C 309.101563 421.027344 307.582031 426.414063 304.960938 429.769531 C 303.398438 431.75 301.742188 432.804688 300.957031 433.175781 L 299.671875 430.136719 C 300.683594 429.585938 301.785156 428.621094 302.800781 427.332031 C 303.71875 426.183594 304.453125 424.664063 304.824219 423.605469 C 305.007813 423.054688 305.054688 422.824219 305.054688 422.5 C 305.054688 422.226563 305.054688 421.949219 304.960938 421.671875 L 299.347656 401.109375 L 303.074219 401.109375 "/>
<path style=" stroke:none;fill-rule:nonzero;fill:rgb(8.235168%,29.019165%,48.626709%);fill-opacity:1;" d="M 337.160156 411.230469 L 335.550781 403.363281 C 335.089844 401.15625 334.675781 398.578125 334.308594 396.277344 L 334.125 396.277344 C 333.757813 398.625 333.296875 401.292969 332.882813 403.363281 L 331.273438 411.230469 Z M 330.765625 414.082031 L 328.695313 423.375 L 325.292969 423.375 L 332.375 392.367188 L 336.285156 392.367188 L 343.1875 423.375 L 339.691406 423.375 L 337.621094 414.082031 L 330.765625 414.082031 "/>
<path style=" stroke:none;fill-rule:nonzero;fill:rgb(8.235168%,29.019165%,48.626709%);fill-opacity:1;" d="M 358.828125 422.824219 C 358.046875 423.285156 356.710938 423.652344 355.148438 423.652344 C 350.269531 423.652344 347.003906 419.742188 347.003906 412.378906 C 347.003906 405.984375 350.226563 400.789063 355.789063 400.789063 C 356.988281 400.789063 358.273438 401.109375 358.917969 401.476563 L 358.230469 404.375 C 357.769531 404.144531 356.847656 403.777344 355.699219 403.777344 C 352.15625 403.777344 350.546875 408.007813 350.546875 412.378906 C 350.546875 417.578125 352.523438 420.707031 355.789063 420.707031 C 356.757813 420.707031 357.539063 420.476563 358.367188 420.109375 L 358.828125 422.824219 "/>
<path style=" stroke:none;fill-rule:nonzero;fill:rgb(8.235168%,29.019165%,48.626709%);fill-opacity:1;" d="M 367.382813 395.910156 L 367.382813 401.109375 L 371.660156 401.109375 L 371.660156 403.824219 L 367.382813 403.824219 L 367.382813 417.027344 C 367.382813 419.925781 368.441406 420.707031 369.730469 420.707031 C 370.28125 420.707031 370.738281 420.664063 371.152344 420.570313 L 371.292969 423.285156 C 370.648438 423.511719 369.820313 423.652344 368.671875 423.652344 C 367.289063 423.652344 366.046875 423.285156 365.175781 422.316406 C 364.300781 421.304688 363.839844 419.789063 363.839844 416.707031 L 363.839844 403.824219 L 361.125 403.824219 L 361.125 401.109375 L 363.839844 401.109375 L 363.839844 397.335938 L 367.382813 395.910156 "/>
<path style=" stroke:none;fill-rule:nonzero;fill:rgb(8.235168%,29.019165%,48.626709%);fill-opacity:1;" d="M 375.984375 423.375 L 375.984375 401.109375 L 379.523438 401.109375 L 379.523438 423.375 Z M 379.800781 395.359375 C 379.847656 396.738281 378.972656 397.660156 377.640625 397.660156 C 376.488281 397.660156 375.613281 396.738281 375.613281 395.359375 C 375.613281 393.976563 376.535156 393.058594 377.683594 393.058594 C 378.972656 393.058594 379.800781 393.976563 379.800781 395.359375 "/>
<path style=" stroke:none;fill-rule:nonzero;fill:rgb(8.235168%,29.019165%,48.626709%);fill-opacity:1;" d="M 388.21875 412.242188 C 388.21875 415.921875 388.863281 420.9375 392.082031 420.9375 C 395.121094 420.9375 395.71875 415.691406 395.71875 412.242188 C 395.71875 408.835938 395.121094 403.59375 391.992188 403.59375 C 388.816406 403.59375 388.21875 408.835938 388.21875 412.242188 Z M 399.304688 412.242188 C 399.304688 420.84375 395.304688 423.742188 391.898438 423.742188 C 387.898438 423.742188 384.675781 420.109375 384.675781 412.289063 C 384.675781 404.144531 388.3125 400.742188 392.128906 400.742188 C 396.085938 400.742188 399.304688 404.46875 399.304688 412.242188 "/>
<path style=" stroke:none;fill-rule:nonzero;fill:rgb(8.235168%,29.019165%,48.626709%);fill-opacity:1;" d="M 404.457031 406.859375 C 404.457031 404.238281 404.316406 402.902344 404.273438 401.109375 L 407.355469 401.109375 L 407.539063 403.777344 L 407.632813 403.777344 C 408.597656 401.984375 410.390625 400.742188 412.738281 400.742188 C 415.820313 400.742188 418.121094 403.042969 418.121094 408.421875 L 418.121094 423.375 L 414.578125 423.375 L 414.578125 409.023438 C 414.578125 406.398438 414.070313 403.730469 411.496094 403.730469 C 410.023438 403.730469 408.597656 404.972656 408.136719 407.367188 C 408.046875 407.917969 408 408.609375 408 409.34375 L 408 423.375 L 404.457031 423.375 L 404.457031 406.859375 "/>
<path style=" stroke:none;fill-rule:nonzero;fill:rgb(8.235168%,29.019165%,48.626709%);fill-opacity:1;" d="M 435.277344 412.242188 C 435.277344 415.921875 435.921875 420.9375 439.140625 420.9375 C 442.175781 420.9375 442.773438 415.691406 442.773438 412.242188 C 442.773438 408.835938 442.175781 403.59375 439.050781 403.59375 C 435.875 403.59375 435.277344 408.835938 435.277344 412.242188 Z M 446.363281 412.242188 C 446.363281 420.84375 442.359375 423.742188 438.957031 423.742188 C 434.953125 423.742188 431.734375 420.109375 431.734375 412.289063 C 431.734375 404.144531 435.367188 400.742188 439.1875 400.742188 C 443.144531 400.742188 446.363281 404.46875 446.363281 412.242188 "/>
<path style=" stroke:none;fill-rule:nonzero;fill:rgb(8.235168%,29.019165%,48.626709%);fill-opacity:1;" d="M 452.25 423.375 L 452.25 403.824219 L 449.445313 403.824219 L 449.445313 401.109375 L 452.25 401.109375 L 452.25 399.773438 C 452.25 397.382813 452.617188 394.898438 454.230469 393.058594 C 455.515625 391.632813 457.3125 391.171875 458.691406 391.171875 C 459.886719 391.171875 460.808594 391.402344 461.453125 391.722656 L 460.851563 394.484375 C 460.4375 394.300781 459.839844 394.117188 458.921875 394.117188 C 456.390625 394.117188 455.792969 396.832031 455.792969 399.730469 L 455.792969 401.109375 L 459.839844 401.109375 L 459.839844 403.824219 L 455.792969 403.824219 L 455.792969 423.375 L 452.25 423.375 "/>
<path style=" stroke:none;fill-rule:nonzero;fill:rgb(8.235168%,29.019165%,48.626709%);fill-opacity:1;" d="M 471.203125 419.28125 C 472.257813 419.972656 474.101563 420.523438 475.664063 420.523438 C 478.882813 420.523438 480.816406 418.40625 480.816406 415.277344 C 480.816406 412.425781 479.160156 410.679688 476.722656 408.835938 C 474.285156 407.136719 470.878906 404.238281 470.878906 400.234375 C 470.878906 395.542969 474.144531 392.09375 479.070313 392.09375 C 481 392.09375 482.703125 392.691406 483.4375 393.242188 L 482.566406 396.277344 C 481.78125 395.726563 480.496094 395.21875 478.882813 395.21875 C 475.847656 395.21875 474.421875 397.519531 474.421875 399.636719 C 474.421875 402.71875 476.03125 403.917969 478.976563 406.03125 C 482.703125 408.652344 484.359375 411.507813 484.359375 414.957031 C 484.359375 420.292969 480.585938 423.652344 475.664063 423.652344 C 473.546875 423.652344 471.292969 422.960938 470.417969 422.316406 L 471.203125 419.28125 "/>
<path style=" stroke:none;fill-rule:nonzero;fill:rgb(8.235168%,29.019165%,48.626709%);fill-opacity:1;" d="M 491.992188 412.242188 C 491.992188 415.921875 492.636719 420.9375 495.859375 420.9375 C 498.894531 420.9375 499.492188 415.691406 499.492188 412.242188 C 499.492188 408.835938 498.894531 403.59375 495.765625 403.59375 C 492.589844 403.59375 491.992188 408.835938 491.992188 412.242188 Z M 503.082031 412.242188 C 503.082031 420.84375 499.078125 423.742188 495.675781 423.742188 C 491.671875 423.742188 488.453125 420.109375 488.453125 412.289063 C 488.453125 404.144531 492.085938 400.742188 495.902344 400.742188 C 499.859375 400.742188 503.082031 404.46875 503.082031 412.242188 "/>
<path style=" stroke:none;fill-rule:nonzero;fill:rgb(8.235168%,29.019165%,48.626709%);fill-opacity:1;" d="M 521.574219 417.304688 C 521.574219 419.789063 521.710938 421.71875 521.757813 423.375 L 518.675781 423.375 L 518.445313 421.027344 L 518.351563 421.027344 C 517.660156 422.132813 515.960938 423.742188 513.566406 423.742188 C 509.65625 423.742188 508.140625 420.707031 508.140625 415.1875 L 508.140625 401.109375 L 511.679688 401.109375 L 511.679688 414.679688 C 511.679688 418.175781 512.234375 420.753906 514.671875 420.753906 C 516.742188 420.753906 517.660156 418.820313 517.847656 417.808594 C 517.984375 417.210938 518.03125 416.519531 518.03125 415.785156 L 518.03125 401.109375 L 521.574219 401.109375 L 521.574219 417.304688 "/>
<path style=" stroke:none;fill-rule:nonzero;fill:rgb(8.235168%,29.019165%,48.626709%);fill-opacity:1;" d="M 532.058594 395.910156 L 532.058594 401.109375 L 536.335938 401.109375 L 536.335938 403.824219 L 532.058594 403.824219 L 532.058594 417.027344 C 532.058594 419.925781 533.117188 420.707031 534.40625 420.707031 C 534.957031 420.707031 535.417969 420.664063 535.832031 420.570313 L 535.96875 423.285156 C 535.324219 423.511719 534.496094 423.652344 533.347656 423.652344 C 531.96875 423.652344 530.726563 423.285156 529.851563 422.316406 C 528.976563 421.304688 528.515625 419.789063 528.515625 416.707031 L 528.515625 403.824219 L 525.800781 403.824219 L 525.800781 401.109375 L 528.515625 401.109375 L 528.515625 397.335938 L 532.058594 395.910156 "/>
<path style=" stroke:none;fill-rule:nonzero;fill:rgb(8.235168%,29.019165%,48.626709%);fill-opacity:1;" d="M 540.660156 391.539063 L 544.203125 391.539063 L 544.203125 403.5 L 544.296875 403.5 C 544.753906 402.71875 545.445313 402.027344 546.136719 401.570313 C 546.964844 401.0625 547.835938 400.742188 549.125 400.742188 C 551.933594 400.742188 554.324219 402.996094 554.324219 408.609375 L 554.324219 423.375 L 550.78125 423.375 L 550.78125 409.023438 C 550.78125 406.308594 550.183594 403.730469 547.792969 403.730469 C 546.136719 403.730469 544.894531 404.925781 544.339844 407.273438 C 544.25 407.78125 544.203125 408.421875 544.203125 408.976563 L 544.203125 423.375 L 540.660156 423.375 L 540.660156 391.539063 "/>
<path style=" stroke:none;fill-rule:nonzero;fill:rgb(8.235168%,29.019165%,48.626709%);fill-opacity:1;" d="M 569.964844 409.941406 C 570.054688 405.480469 568.355469 403.5 566.652344 403.5 C 564.351563 403.5 563.15625 406.90625 563.015625 409.941406 Z M 562.972656 412.5625 C 563.015625 419.375 565.683594 420.84375 568.261719 420.84375 C 569.78125 420.84375 571.066406 420.476563 571.941406 419.972656 L 572.492188 422.59375 C 571.253906 423.285156 569.367188 423.652344 567.617188 423.652344 C 562.28125 423.652344 559.519531 419.28125 559.519531 412.472656 C 559.519531 405.25 562.558594 400.742188 567.019531 400.742188 C 571.574219 400.742188 573.367188 405.527344 573.367188 410.585938 C 573.367188 411.414063 573.367188 412.011719 573.320313 412.5625 L 562.972656 412.5625 "/>
<path style=" stroke:none;fill-rule:nonzero;fill:rgb(8.235168%,29.019165%,48.626709%);fill-opacity:1;" d="M 578.335938 406.859375 C 578.335938 404.972656 578.195313 402.765625 578.148438 401.109375 L 581.324219 401.109375 L 581.507813 404.605469 L 581.601563 404.605469 C 582.335938 402.488281 584.222656 400.742188 586.292969 400.742188 C 586.570313 400.742188 586.800781 400.789063 587.027344 400.789063 L 587.027344 404.421875 C 586.800781 404.375 586.570313 404.375 586.292969 404.375 C 584.039063 404.375 582.382813 406.445313 582.015625 409.023438 C 581.921875 409.621094 581.875 410.308594 581.875 411.046875 L 581.875 423.375 L 578.335938 423.375 L 578.335938 406.859375 "/>
<path style=" stroke:none;fill-rule:nonzero;fill:rgb(8.235168%,29.019165%,48.626709%);fill-opacity:1;" d="M 590.984375 406.859375 C 590.984375 404.238281 590.847656 402.902344 590.800781 401.109375 L 593.882813 401.109375 L 594.066406 403.777344 L 594.15625 403.777344 C 595.125 401.984375 596.917969 400.742188 599.265625 400.742188 C 602.347656 400.742188 604.648438 403.042969 604.648438 408.421875 L 604.648438 423.375 L 601.105469 423.375 L 601.105469 409.023438 C 601.105469 406.398438 600.597656 403.730469 598.023438 403.730469 C 596.550781 403.730469 595.125 404.972656 594.664063 407.367188 C 594.570313 407.917969 594.527344 408.609375 594.527344 409.34375 L 594.527344 423.375 L 590.984375 423.375 L 590.984375 406.859375 "/>
<path style=" stroke:none;fill-rule:nonzero;fill:rgb(8.235168%,29.019165%,48.626709%);fill-opacity:1;" d="M 623.046875 392.367188 L 623.046875 423.375 L 619.503906 423.375 L 619.503906 392.367188 L 623.046875 392.367188 "/>
<path style=" stroke:none;fill-rule:nonzero;fill:rgb(8.235168%,29.019165%,48.626709%);fill-opacity:1;" d="M 629.578125 406.859375 C 629.578125 404.238281 629.4375 402.902344 629.390625 401.109375 L 632.476563 401.109375 L 632.660156 403.777344 L 632.75 403.777344 C 633.71875 401.984375 635.511719 400.742188 637.859375 400.742188 C 640.941406 400.742188 643.238281 403.042969 643.238281 408.421875 L 643.238281 423.375 L 639.699219 423.375 L 639.699219 409.023438 C 639.699219 406.398438 639.191406 403.730469 636.617188 403.730469 C 635.144531 403.730469 633.71875 404.972656 633.257813 407.367188 C 633.164063 407.917969 633.117188 408.609375 633.117188 409.34375 L 633.117188 423.375 L 629.578125 423.375 L 629.578125 406.859375 "/>
<path style=" stroke:none;fill-rule:nonzero;fill:rgb(8.235168%,29.019165%,48.626709%);fill-opacity:1;" d="M 659.292969 409.574219 C 659.292969 409.113281 659.292969 408.609375 659.246094 408.101563 C 659.019531 405.800781 657.636719 403.777344 655.933594 403.777344 C 652.992188 403.777344 651.980469 407.871094 651.980469 412.335938 C 651.980469 417.027344 653.175781 420.800781 655.75 420.800781 C 656.855469 420.800781 658.375 420.199219 659.15625 416.980469 C 659.246094 416.566406 659.292969 416.0625 659.292969 415.507813 Z M 662.789063 391.539063 L 662.789063 418.039063 C 662.789063 419.558594 662.929688 422.085938 662.972656 423.375 L 659.9375 423.375 L 659.707031 420.570313 L 659.570313 420.570313 C 658.832031 422.179688 657.269531 423.742188 654.921875 423.742188 C 651.152344 423.742188 648.4375 419.648438 648.4375 412.335938 C 648.4375 404.421875 651.703125 400.742188 655.152344 400.742188 C 656.761719 400.742188 658.328125 401.523438 659.203125 403.410156 L 659.292969 403.410156 L 659.292969 391.539063 L 662.789063 391.539063 "/>
<path style=" stroke:none;fill-rule:nonzero;fill:rgb(8.235168%,29.019165%,48.626709%);fill-opacity:1;" d="M 668.953125 423.375 L 668.953125 401.109375 L 672.492188 401.109375 L 672.492188 423.375 Z M 672.769531 395.359375 C 672.816406 396.738281 671.941406 397.660156 670.609375 397.660156 C 669.457031 397.660156 668.582031 396.738281 668.582031 395.359375 C 668.582031 393.976563 669.503906 393.058594 670.652344 393.058594 C 671.941406 393.058594 672.769531 393.976563 672.769531 395.359375 "/>
<path style=" stroke:none;fill-rule:nonzero;fill:rgb(8.235168%,29.019165%,48.626709%);fill-opacity:1;" d="M 686.894531 411.875 C 685.050781 411.875 680.773438 412.195313 680.773438 417.027344 C 680.773438 419.925781 682.246094 420.984375 683.488281 420.984375 C 685.050781 420.984375 686.386719 419.835938 686.800781 417.625 C 686.894531 417.210938 686.894531 416.75 686.894531 416.382813 Z M 690.390625 418.316406 C 690.390625 420.015625 690.390625 421.949219 690.617188 423.375 L 687.398438 423.375 L 687.167969 421.027344 L 687.03125 421.027344 C 686.066406 422.730469 684.5 423.742188 682.613281 423.742188 C 679.625 423.742188 677.324219 421.214844 677.324219 417.394531 C 677.324219 411.828125 681.785156 409.34375 686.800781 409.296875 L 686.800781 408.609375 C 686.800781 405.617188 686.066406 403.546875 683.257813 403.546875 C 681.878906 403.546875 680.636719 404.007813 679.578125 404.699219 L 678.796875 402.214844 C 679.714844 401.523438 681.785156 400.742188 683.996094 400.742188 C 688.457031 400.742188 690.390625 403.683594 690.390625 408.699219 L 690.390625 418.316406 "/>
<path style=" stroke:none;fill-rule:nonzero;fill:rgb(8.235168%,29.019165%,48.626709%);fill-opacity:1;" d="M 696.550781 406.859375 C 696.550781 404.238281 696.414063 402.902344 696.367188 401.109375 L 699.449219 401.109375 L 699.632813 403.777344 L 699.726563 403.777344 C 700.691406 401.984375 702.484375 400.742188 704.832031 400.742188 C 707.914063 400.742188 710.214844 403.042969 710.214844 408.421875 L 710.214844 423.375 L 706.671875 423.375 L 706.671875 409.023438 C 706.671875 406.398438 706.167969 403.730469 703.589844 403.730469 C 702.117188 403.730469 700.691406 404.972656 700.230469 407.367188 C 700.140625 407.917969 700.09375 408.609375 700.09375 409.34375 L 700.09375 423.375 L 696.550781 423.375 L 696.550781 406.859375 "/>
<path style=" stroke:none;fill-rule:nonzero;fill:rgb(8.235168%,29.019165%,48.626709%);fill-opacity:1;" d="M 724.660156 411.875 C 722.816406 411.875 718.539063 412.195313 718.539063 417.027344 C 718.539063 419.925781 720.011719 420.984375 721.253906 420.984375 C 722.816406 420.984375 724.152344 419.835938 724.566406 417.625 C 724.660156 417.210938 724.660156 416.75 724.660156 416.382813 Z M 728.15625 418.316406 C 728.15625 420.015625 728.15625 421.949219 728.382813 423.375 L 725.164063 423.375 L 724.933594 421.027344 L 724.796875 421.027344 C 723.832031 422.730469 722.265625 423.742188 720.378906 423.742188 C 717.390625 423.742188 715.089844 421.214844 715.089844 417.394531 C 715.089844 411.828125 719.550781 409.34375 724.566406 409.296875 L 724.566406 408.609375 C 724.566406 405.617188 723.832031 403.546875 721.023438 403.546875 C 719.644531 403.546875 718.402344 404.007813 717.34375 404.699219 L 716.5625 402.214844 C 717.480469 401.523438 719.550781 400.742188 721.761719 400.742188 C 726.222656 400.742188 728.15625 403.683594 728.15625 408.699219 L 728.15625 418.316406 "/>
</g>
</svg>
