<svg xmlns="http://www.w3.org/2000/svg" width="294.144" height="75" viewBox="0 0 294.144 75">
  <g id="Group_3470" data-name="Group 3470" transform="translate(-165 -3683)">
    <g id="Rectangle_996" data-name="Rectangle 996" transform="translate(165 3683)" fill="#fff" stroke="#40033d" stroke-width="1.5">
      <rect width="80" height="75" stroke="none"/>
      <rect x="0.75" y="0.75" width="78.5" height="73.5" fill="none"/>
    </g>
    <g id="Path_14913" data-name="Path 14913" transform="translate(168 3686)" fill="#e6cce7">
      <path d="M 73.25 68.25 L 0.75 68.25 L 0.75 0.75 L 73.25 0.75 L 73.25 68.25 Z" stroke="none"/>
      <path d="M 1.5 1.5 L 1.5 67.5 L 72.5 67.5 L 72.5 1.5 L 1.5 1.5 M 0 0 L 74 0 L 74 69 L 0 69 L 0 0 Z" stroke="none" fill="#40033d"/>
    </g>
    <path id="Path_14912" data-name="Path 14912" d="M.834-1.549q3.485-.03,4.527-1.236A5.41,5.41,0,0,0,6.4-6.4V-35.355q0-2.5-1.191-3.291A9.525,9.525,0,0,0,.983-39.674v-1.549H16.352l12,28.236h.506L40.806-41.223H56.175v1.549a8.106,8.106,0,0,0-4.229,1.147q-1.132.908-1.132,4.453V-7.119q0,3.366,1.132,4.408t4.229,1.162V0H35.921V-1.549A8.673,8.673,0,0,0,40-2.457q1.37-.819,1.37-3.589V-35.861h-.447L25.973,0H24.334L9.233-35.146H8.965V-7.536A7.038,7.038,0,0,0,10.1-3.1q1.132,1.4,5,1.549V0H.834Z" transform="translate(177.166 3741.223)" fill="#d0d0d0" style="mix-blend-mode: multiply;isolation: isolate"/>
    <path id="Path_14911" data-name="Path 14911" d="M.834-1.549q3.485-.03,4.527-1.236A5.41,5.41,0,0,0,6.4-6.4V-35.355q0-2.5-1.191-3.291A9.525,9.525,0,0,0,.983-39.674v-1.549H16.352l12,28.236h.506L40.806-41.223H56.175v1.549a8.106,8.106,0,0,0-4.229,1.147q-1.132.908-1.132,4.453V-7.119q0,3.366,1.132,4.408t4.229,1.162V0H35.921V-1.549A8.673,8.673,0,0,0,40-2.457q1.37-.819,1.37-3.589V-35.861h-.447L25.973,0H24.334L9.233-35.146H8.965V-7.536A7.038,7.038,0,0,0,10.1-3.1q1.132,1.4,5,1.549V0H.834Z" transform="translate(175.166 3741.223)" fill="#40033d"/>
    <path id="Path_14909" data-name="Path 14909" d="M2.9-14.721a1.424,1.424,0,0,1,.62.158,1.206,1.206,0,0,1,.493.409L9.114-6.3l-1.05-.042,5.229-7.812a1.21,1.21,0,0,1,1.029-.567,1.318,1.318,0,0,1,.9.357,1.183,1.183,0,0,1,.4.924V-1.281a1.259,1.259,0,0,1-.357.914A1.257,1.257,0,0,1,14.322,0a1.293,1.293,0,0,1-.955-.368A1.24,1.24,0,0,1,13-1.281v-9.891l.819.189L9.534-4.452a1.765,1.765,0,0,1-.473.4.978.978,0,0,1-.577.147.94.94,0,0,1-.557-.147,1.765,1.765,0,0,1-.472-.4L3.444-10.794l.546-1.113V-1.281a1.3,1.3,0,0,1-.336.914A1.139,1.139,0,0,1,2.772,0a1.114,1.114,0,0,1-.861-.368,1.3,1.3,0,0,1-.336-.914V-13.44a1.216,1.216,0,0,1,.388-.9A1.292,1.292,0,0,1,2.9-14.721ZM24.171-11.4,19.635-.735a1.292,1.292,0,0,1-.451.62,1.1,1.1,0,0,1-.661.22,1.053,1.053,0,0,1-.84-.315,1.145,1.145,0,0,1-.273-.777,1.389,1.389,0,0,1,.063-.4L22.7-13.944a1.37,1.37,0,0,1,.514-.651,1.1,1.1,0,0,1,.745-.189,1.23,1.23,0,0,1,.7.221,1.244,1.244,0,0,1,.472.62L30.3-1.638a1.413,1.413,0,0,1,.105.5,1.164,1.164,0,0,1-.368.9A1.173,1.173,0,0,1,29.232.1a1.1,1.1,0,0,1-.682-.231,1.5,1.5,0,0,1-.472-.63L23.562-11.277ZM20.286-3.3l1.155-2.415h5.67l.4,2.415ZM33.537-14.7a1.261,1.261,0,0,1,.893.367,1.206,1.206,0,0,1,.389.914V-1.281a1.191,1.191,0,0,1-.4.914A1.323,1.323,0,0,1,33.495,0a1.257,1.257,0,0,1-.945-.368,1.259,1.259,0,0,1-.357-.914V-13.419a1.223,1.223,0,0,1,.378-.914A1.328,1.328,0,0,1,33.537-14.7Zm9.3,0a1.257,1.257,0,0,1,.945.367,1.259,1.259,0,0,1,.357.914V-1.281a1.24,1.24,0,0,1-.368.914A1.32,1.32,0,0,1,42.8,0a1.261,1.261,0,0,1-.892-.368,1.206,1.206,0,0,1-.389-.914V-13.419a1.191,1.191,0,0,1,.4-.914A1.323,1.323,0,0,1,42.84-14.7ZM33.474-8.589H42.84v2.415H33.474Zm24.255-6.132a1.139,1.139,0,0,1,.882.368,1.3,1.3,0,0,1,.336.913v7.6A6.258,6.258,0,0,1,58.2-2.751a5.418,5.418,0,0,1-2.048,2.1A5.913,5.913,0,0,1,53.13.1,5.971,5.971,0,0,1,50.1-.651a5.4,5.4,0,0,1-2.058-2.1,6.258,6.258,0,0,1-.745-3.087v-7.6a1.222,1.222,0,0,1,.378-.913,1.328,1.328,0,0,1,.966-.368,1.238,1.238,0,0,1,.872.368,1.206,1.206,0,0,1,.389.913v7.6a3.515,3.515,0,0,0,.451,1.817,3.191,3.191,0,0,0,1.2,1.186,3.18,3.18,0,0,0,1.585.42,3.478,3.478,0,0,0,1.68-.42,3.357,3.357,0,0,0,1.26-1.186,3.336,3.336,0,0,0,.483-1.817v-7.6a1.355,1.355,0,0,1,.315-.913A1.075,1.075,0,0,1,57.729-14.721ZM68.67-14.7a4.2,4.2,0,0,1,3,.945,3.691,3.691,0,0,1,.987,2.793,3.115,3.115,0,0,1-.483,1.733,3.121,3.121,0,0,1-1.428,1.155,5.865,5.865,0,0,1-2.331.41L68.5-8.61a7.269,7.269,0,0,1,1.491.179,5.6,5.6,0,0,1,1.628.63,3.732,3.732,0,0,1,1.3,1.26,3.791,3.791,0,0,1,.514,2.069A4.971,4.971,0,0,1,72.985-2.2,3.494,3.494,0,0,1,71.8-.84a4.58,4.58,0,0,1-1.575.661A7.777,7.777,0,0,1,68.607,0H63.378a1.24,1.24,0,0,1-.913-.368,1.24,1.24,0,0,1-.368-.914V-13.419a1.24,1.24,0,0,1,.368-.914,1.24,1.24,0,0,1,.913-.367Zm-.378,2.478H64.554l.273-.336v3.8l-.252-.189h3.78a1.669,1.669,0,0,0,1.092-.4A1.412,1.412,0,0,0,69.93-10.5a1.693,1.693,0,0,0-.451-1.312A1.7,1.7,0,0,0,68.292-12.222Zm.168,5.754H64.638l.189-.168V-2.2l-.21-.21h3.99A2.195,2.195,0,0,0,70.14-2.93a1.981,1.981,0,0,0,.567-1.543,2.014,2.014,0,0,0-.378-1.365,1.619,1.619,0,0,0-.9-.525A4.953,4.953,0,0,0,68.46-6.468ZM77.133-14.7h7.035a1.28,1.28,0,0,1,.913.347,1.172,1.172,0,0,1,.368.892,1.082,1.082,0,0,1-.368.851,1.328,1.328,0,0,1-.913.325h-5.88l.189-.357v4.1l-.168-.168h4.914a1.28,1.28,0,0,1,.913.347,1.172,1.172,0,0,1,.368.892,1.082,1.082,0,0,1-.368.851,1.328,1.328,0,0,1-.913.325H78.372l.1-.168v4.242l-.168-.189h5.859a1.24,1.24,0,0,1,.913.368,1.168,1.168,0,0,1,.368.85,1.114,1.114,0,0,1-.368.861A1.3,1.3,0,0,1,84.168,0H77.133a1.24,1.24,0,0,1-.914-.368,1.24,1.24,0,0,1-.368-.914V-13.419a1.24,1.24,0,0,1,.368-.914A1.24,1.24,0,0,1,77.133-14.7ZM88.62-5.187a1.259,1.259,0,0,1-.913-.357,1.206,1.206,0,0,1-.368-.9,1.172,1.172,0,0,1,.368-.892,1.28,1.28,0,0,1,.913-.346h3.654a1.24,1.24,0,0,1,.913.367,1.24,1.24,0,0,1,.368.914,1.147,1.147,0,0,1-.368.872,1.28,1.28,0,0,1-.913.347ZM109.7-7.35a8.12,8.12,0,0,1-.525,2.94,7.487,7.487,0,0,1-1.48,2.4,6.848,6.848,0,0,1-2.268,1.628,6.93,6.93,0,0,1-2.867.588,6.858,6.858,0,0,1-2.856-.588,6.878,6.878,0,0,1-2.257-1.628,7.487,7.487,0,0,1-1.48-2.4,8.12,8.12,0,0,1-.525-2.94,8.12,8.12,0,0,1,.525-2.94,7.487,7.487,0,0,1,1.48-2.4,6.878,6.878,0,0,1,2.257-1.627,6.858,6.858,0,0,1,2.856-.588,6.93,6.93,0,0,1,2.867.588,6.848,6.848,0,0,1,2.268,1.627,7.487,7.487,0,0,1,1.48,2.4A8.12,8.12,0,0,1,109.7-7.35Zm-2.73,0a5.668,5.668,0,0,0-.567-2.551,4.639,4.639,0,0,0-1.554-1.817,3.969,3.969,0,0,0-2.289-.672,3.969,3.969,0,0,0-2.289.672,4.575,4.575,0,0,0-1.543,1.806,5.739,5.739,0,0,0-.557,2.562A5.758,5.758,0,0,0,98.732-4.8a4.559,4.559,0,0,0,1.543,1.816,3.969,3.969,0,0,0,2.289.672,3.969,3.969,0,0,0,2.289-.672A4.639,4.639,0,0,0,106.407-4.8,5.668,5.668,0,0,0,106.974-7.35Zm9.7,7.35a1.328,1.328,0,0,1-.966-.368,1.222,1.222,0,0,1-.378-.914v-12.18h2.73v12.18a1.206,1.206,0,0,1-.388.914A1.393,1.393,0,0,1,116.676,0Zm-4.641-12.285a1.3,1.3,0,0,1-.914-.336,1.139,1.139,0,0,1-.368-.882,1.106,1.106,0,0,1,.368-.871,1.328,1.328,0,0,1,.914-.326h9.324a1.3,1.3,0,0,1,.913.336,1.139,1.139,0,0,1,.368.882,1.106,1.106,0,0,1-.368.872,1.328,1.328,0,0,1-.913.325Zm29.547-2.478a1.426,1.426,0,0,1,.924.368,1.23,1.23,0,0,1,.441,1,1.609,1.609,0,0,1-.063.42L138.747-.8a1.039,1.039,0,0,1-.452.577,1.455,1.455,0,0,1-.682.22,1.344,1.344,0,0,1-.7-.21,1.382,1.382,0,0,1-.535-.609l-3.108-7.056.189.126-3.066,6.93a1.382,1.382,0,0,1-.536.609,1.344,1.344,0,0,1-.7.21,1.494,1.494,0,0,1-.672-.22,1.027,1.027,0,0,1-.462-.577l-4.137-12.18a1.61,1.61,0,0,1-.063-.42,1.218,1.218,0,0,1,.451-1,1.467,1.467,0,0,1,.935-.368,1.413,1.413,0,0,1,.745.21,1.06,1.06,0,0,1,.473.609l3.339,10.122-.462-.021L132.279-11a1.413,1.413,0,0,1,.483-.6,1.109,1.109,0,0,1,.714-.2,1.109,1.109,0,0,1,.714.2,1.275,1.275,0,0,1,.462.6l2.73,6.846-.336.21,3.3-10a1.05,1.05,0,0,1,.483-.609A1.468,1.468,0,0,1,141.582-14.763Zm8.211,3.36L145.257-.735a1.292,1.292,0,0,1-.452.62,1.1,1.1,0,0,1-.661.22,1.053,1.053,0,0,1-.84-.315,1.145,1.145,0,0,1-.273-.777,1.39,1.39,0,0,1,.063-.4l5.229-12.558a1.37,1.37,0,0,1,.514-.651,1.1,1.1,0,0,1,.745-.189,1.23,1.23,0,0,1,.7.221,1.244,1.244,0,0,1,.473.62l5.166,12.306a1.413,1.413,0,0,1,.1.5,1.164,1.164,0,0,1-.367.9,1.173,1.173,0,0,1-.809.336,1.1,1.1,0,0,1-.683-.231,1.5,1.5,0,0,1-.472-.63l-4.515-10.521ZM145.908-3.3l1.155-2.415h5.67l.4,2.415Z" transform="translate(257.52 3718.755)" fill="#fff"/>
    <path id="Path_14910" data-name="Path 14910" d="M6.78-7.992a.637.637,0,0,1,.366.492.739.739,0,0,1-.174.612.546.546,0,0,1-.4.24.934.934,0,0,1-.5-.1,3.085,3.085,0,0,0-.606-.2A3.008,3.008,0,0,0,4.8-7.02a3.1,3.1,0,0,0-1.158.2,2.43,2.43,0,0,0-.87.582,2.516,2.516,0,0,0-.546.894A3.341,3.341,0,0,0,2.04-4.2a3.5,3.5,0,0,0,.21,1.272,2.484,2.484,0,0,0,.582.9,2.341,2.341,0,0,0,.876.534A3.325,3.325,0,0,0,4.8-1.32a3.552,3.552,0,0,0,.648-.06A2.224,2.224,0,0,0,6.072-1.6a.853.853,0,0,1,.5-.084.628.628,0,0,1,.414.252.724.724,0,0,1,.174.618.632.632,0,0,1-.366.462A4.22,4.22,0,0,1,6.15-.09a4.869,4.869,0,0,1-.666.156A4.3,4.3,0,0,1,4.8.12,4.84,4.84,0,0,1,3.162-.156a4.148,4.148,0,0,1-1.38-.816,3.772,3.772,0,0,1-.954-1.35A4.724,4.724,0,0,1,.48-4.2,4.471,4.471,0,0,1,.8-5.9a3.957,3.957,0,0,1,.9-1.35,4.15,4.15,0,0,1,1.374-.888A4.6,4.6,0,0,1,4.8-8.46a4.44,4.44,0,0,1,1.032.12A4.192,4.192,0,0,1,6.78-7.992ZM14.472-3.2a3.375,3.375,0,0,1-.438,1.734A3.144,3.144,0,0,1,12.858-.3a3.277,3.277,0,0,1-1.65.42A3.277,3.277,0,0,1,9.558-.3,3.144,3.144,0,0,1,8.382-1.47,3.375,3.375,0,0,1,7.944-3.2a3.375,3.375,0,0,1,.438-1.734A3.189,3.189,0,0,1,9.558-6.114a3.24,3.24,0,0,1,1.65-.426,3.24,3.24,0,0,1,1.65.426,3.189,3.189,0,0,1,1.176,1.176A3.375,3.375,0,0,1,14.472-3.2Zm-1.44,0a2.181,2.181,0,0,0-.246-1.062,1.831,1.831,0,0,0-.66-.7,1.731,1.731,0,0,0-.918-.252,1.731,1.731,0,0,0-.918.252,1.831,1.831,0,0,0-.66.7A2.181,2.181,0,0,0,9.384-3.2a2.155,2.155,0,0,0,.246,1.05,1.831,1.831,0,0,0,.66.7,1.731,1.731,0,0,0,.918.252,1.731,1.731,0,0,0,.918-.252,1.831,1.831,0,0,0,.66-.7A2.155,2.155,0,0,0,13.032-3.2ZM19.044-6.54a1.915,1.915,0,0,1,1.416.462,2.279,2.279,0,0,1,.6,1.194l-.2-.108.1-.192a2.748,2.748,0,0,1,.444-.594,2.706,2.706,0,0,1,.726-.54,2.033,2.033,0,0,1,.954-.222,2.018,2.018,0,0,1,1.314.372,1.888,1.888,0,0,1,.618.99A5.234,5.234,0,0,1,25.176-3.8V-.732a.72.72,0,0,1-.2.522.689.689,0,0,1-.516.21.689.689,0,0,1-.516-.21.72.72,0,0,1-.2-.522V-3.8a2.467,2.467,0,0,0-.1-.714.978.978,0,0,0-.348-.51,1.169,1.169,0,0,0-.72-.192,1.5,1.5,0,0,0-.78.192,1.24,1.24,0,0,0-.486.51,1.55,1.55,0,0,0-.162.714V-.732a.72.72,0,0,1-.2.522.689.689,0,0,1-.516.21.689.689,0,0,1-.516-.21.72.72,0,0,1-.2-.522V-3.8a2.467,2.467,0,0,0-.1-.714.978.978,0,0,0-.348-.51,1.169,1.169,0,0,0-.72-.192,1.5,1.5,0,0,0-.78.192,1.24,1.24,0,0,0-.486.51,1.55,1.55,0,0,0-.162.714V-.732a.72.72,0,0,1-.2.522.689.689,0,0,1-.516.21.689.689,0,0,1-.516-.21.72.72,0,0,1-.2-.522V-5.688a.72.72,0,0,1,.2-.522.689.689,0,0,1,.516-.21.689.689,0,0,1,.516.21.72.72,0,0,1,.2.522v.516l-.18-.036a2.686,2.686,0,0,1,.3-.438,2.6,2.6,0,0,1,.468-.438,2.5,2.5,0,0,1,.612-.33A2.069,2.069,0,0,1,19.044-6.54Zm11.064,0a1.915,1.915,0,0,1,1.416.462,2.279,2.279,0,0,1,.6,1.194l-.2-.108.1-.192a2.748,2.748,0,0,1,.444-.594,2.706,2.706,0,0,1,.726-.54,2.033,2.033,0,0,1,.954-.222,2.018,2.018,0,0,1,1.314.372,1.888,1.888,0,0,1,.618.99A5.235,5.235,0,0,1,36.24-3.8V-.732a.72.72,0,0,1-.2.522A.689.689,0,0,1,35.52,0,.689.689,0,0,1,35-.21a.72.72,0,0,1-.2-.522V-3.8a2.467,2.467,0,0,0-.1-.714.978.978,0,0,0-.348-.51,1.169,1.169,0,0,0-.72-.192,1.5,1.5,0,0,0-.78.192,1.24,1.24,0,0,0-.486.51,1.55,1.55,0,0,0-.162.714V-.732A.72.72,0,0,1,32-.21a.689.689,0,0,1-.516.21.689.689,0,0,1-.516-.21.72.72,0,0,1-.2-.522V-3.8a2.467,2.467,0,0,0-.1-.714.978.978,0,0,0-.348-.51,1.169,1.169,0,0,0-.72-.192,1.5,1.5,0,0,0-.78.192,1.24,1.24,0,0,0-.486.51,1.55,1.55,0,0,0-.162.714V-.732a.72.72,0,0,1-.2.522.689.689,0,0,1-.516.21.689.689,0,0,1-.516-.21.72.72,0,0,1-.2-.522V-5.688a.72.72,0,0,1,.2-.522.689.689,0,0,1,.516-.21.689.689,0,0,1,.516.21.72.72,0,0,1,.2.522v.516L28-5.208a2.686,2.686,0,0,1,.3-.438,2.6,2.6,0,0,1,.468-.438,2.5,2.5,0,0,1,.612-.33A2.069,2.069,0,0,1,30.108-6.54Zm12.456.12a.689.689,0,0,1,.516.21.72.72,0,0,1,.2.522V-2.64a2.8,2.8,0,0,1-.708,2.016,2.683,2.683,0,0,1-2.04.744A2.663,2.663,0,0,1,38.5-.624a2.818,2.818,0,0,1-.7-2.016V-5.688A.72.72,0,0,1,38-6.21a.689.689,0,0,1,.516-.21.689.689,0,0,1,.516.21.72.72,0,0,1,.2.522V-2.64a1.566,1.566,0,0,0,.324,1.086,1.253,1.253,0,0,0,.972.354,1.27,1.27,0,0,0,.984-.354,1.566,1.566,0,0,0,.324-1.086V-5.688a.72.72,0,0,1,.2-.522A.689.689,0,0,1,42.564-6.42Zm5.712-.12a2.113,2.113,0,0,1,1.35.372,1.891,1.891,0,0,1,.636.99A5.064,5.064,0,0,1,50.436-3.8V-.732a.72.72,0,0,1-.2.522.689.689,0,0,1-.516.21A.689.689,0,0,1,49.2-.21.72.72,0,0,1,49-.732V-3.8a2.332,2.332,0,0,0-.1-.714.986.986,0,0,0-.366-.51,1.271,1.271,0,0,0-.756-.192,1.587,1.587,0,0,0-.81.192,1.313,1.313,0,0,0-.5.51,1.463,1.463,0,0,0-.174.714V-.732a.72.72,0,0,1-.2.522.689.689,0,0,1-.516.21.689.689,0,0,1-.516-.21.72.72,0,0,1-.2-.522V-5.688a.72.72,0,0,1,.2-.522.689.689,0,0,1,.516-.21.689.689,0,0,1,.516.21.72.72,0,0,1,.2.522v.516l-.18-.036a2.373,2.373,0,0,1,.312-.438,2.993,2.993,0,0,1,.48-.438,2.44,2.44,0,0,1,.624-.33A2.2,2.2,0,0,1,48.276-6.54ZM53.352-.732a.72.72,0,0,1-.2.522.689.689,0,0,1-.516.21.689.689,0,0,1-.516-.21.72.72,0,0,1-.2-.522V-5.688a.72.72,0,0,1,.2-.522.689.689,0,0,1,.516-.21.689.689,0,0,1,.516.21.72.72,0,0,1,.2.522ZM52.62-7.2a.953.953,0,0,1-.576-.132.564.564,0,0,1-.168-.468v-.228a.533.533,0,0,1,.186-.474,1.029,1.029,0,0,1,.57-.126.979.979,0,0,1,.588.132.564.564,0,0,1,.168.468V-7.8a.542.542,0,0,1-.18.474A1.052,1.052,0,0,1,52.62-7.2Zm2.28.9h2.844a.651.651,0,0,1,.48.192.651.651,0,0,1,.192.48.617.617,0,0,1-.192.462.662.662,0,0,1-.48.186H54.9a.651.651,0,0,1-.48-.192.651.651,0,0,1-.192-.48.617.617,0,0,1,.192-.462A.662.662,0,0,1,54.9-6.3Zm1.284-1.5a.67.67,0,0,1,.51.21.732.732,0,0,1,.2.522v5.34a.522.522,0,0,0,.066.276.379.379,0,0,0,.18.156.627.627,0,0,0,.246.048.636.636,0,0,0,.264-.054.666.666,0,0,1,.276-.054.4.4,0,0,1,.306.156.63.63,0,0,1,.138.432A.634.634,0,0,1,58-.216,1.52,1.52,0,0,1,57.216,0a4.133,4.133,0,0,1-.558-.042,1.508,1.508,0,0,1-.576-.2,1.248,1.248,0,0,1-.45-.5,1.974,1.974,0,0,1-.18-.924v-5.4a.709.709,0,0,1,.21-.522A.709.709,0,0,1,56.184-7.8ZM64.5-6.42a.689.689,0,0,1,.516.21.72.72,0,0,1,.2.522v5.1a3.258,3.258,0,0,1-.414,1.758,2.354,2.354,0,0,1-1.11.942,4.045,4.045,0,0,1-1.56.288,5.944,5.944,0,0,1-.816-.06,2.751,2.751,0,0,1-.708-.18,1.024,1.024,0,0,1-.5-.39.588.588,0,0,1-.054-.5A.752.752,0,0,1,60.408.8a.6.6,0,0,1,.5-.03q.192.06.5.186a1.912,1.912,0,0,0,.72.126,2.435,2.435,0,0,0,.918-.15,1.061,1.061,0,0,0,.552-.5,2.1,2.1,0,0,0,.186-.966v-.8l.252.288a2.1,2.1,0,0,1-.51.654,2.078,2.078,0,0,1-.726.39,3.2,3.2,0,0,1-.96.132,2.063,2.063,0,0,1-1.11-.294A2,2,0,0,1,60-.99a2.61,2.61,0,0,1-.264-1.194v-3.5a.72.72,0,0,1,.2-.522.689.689,0,0,1,.516-.21.689.689,0,0,1,.516.21.72.72,0,0,1,.2.522v3.072a1.455,1.455,0,0,0,.342,1.1,1.347,1.347,0,0,0,.954.318,1.426,1.426,0,0,0,.708-.162,1.079,1.079,0,0,0,.444-.48,1.745,1.745,0,0,0,.156-.774V-5.688a.72.72,0,0,1,.2-.522A.689.689,0,0,1,64.5-6.42Zm8.844-.1L70.752-.42a.738.738,0,0,1-.258.354.631.631,0,0,1-.378.126.6.6,0,0,1-.48-.18.654.654,0,0,1-.156-.444.794.794,0,0,1,.036-.228L72.5-7.968A.783.783,0,0,1,72.8-8.34a.629.629,0,0,1,.426-.108.7.7,0,0,1,.4.126.711.711,0,0,1,.27.354L76.848-.936a.807.807,0,0,1,.06.288.665.665,0,0,1-.21.516.671.671,0,0,1-.462.192.629.629,0,0,1-.39-.132.858.858,0,0,1-.27-.36L73-6.444Zm-2.22,4.632.66-1.38h3.24l.228,1.38ZM80.6-6.54A4.417,4.417,0,0,1,81.8-6.4a1.937,1.937,0,0,1,.792.4.809.809,0,0,1,.282.618.781.781,0,0,1-.144.45.477.477,0,0,1-.42.21.811.811,0,0,1-.318-.054.832.832,0,0,1-.222-.138,1.264,1.264,0,0,0-.228-.156,1.1,1.1,0,0,0-.366-.114,2.406,2.406,0,0,0-.366-.042,1.934,1.934,0,0,0-1.038.264,1.76,1.76,0,0,0-.654.714A2.266,2.266,0,0,0,78.888-3.2a2.191,2.191,0,0,0,.234,1.026,1.832,1.832,0,0,0,.648.714,1.736,1.736,0,0,0,.954.264,3.189,3.189,0,0,0,.516-.036,1.279,1.279,0,0,0,.36-.108,2.183,2.183,0,0,0,.3-.2.615.615,0,0,1,.4-.108.6.6,0,0,1,.48.2.726.726,0,0,1,.168.486.687.687,0,0,1-.336.546,2.7,2.7,0,0,1-.882.4,4.449,4.449,0,0,1-1.182.15A3.022,3.022,0,0,1,78.9-.318a2.928,2.928,0,0,1-1.074-1.194A3.731,3.731,0,0,1,77.448-3.2a3.615,3.615,0,0,1,.4-1.734,2.981,2.981,0,0,1,1.116-1.176A3.135,3.135,0,0,1,80.6-6.54Zm3.456.24H86.9a.651.651,0,0,1,.48.192.651.651,0,0,1,.192.48.617.617,0,0,1-.192.462.662.662,0,0,1-.48.186H84.06a.651.651,0,0,1-.48-.192.651.651,0,0,1-.192-.48.617.617,0,0,1,.192-.462A.662.662,0,0,1,84.06-6.3Zm1.284-1.5a.67.67,0,0,1,.51.21.732.732,0,0,1,.2.522v5.34a.522.522,0,0,0,.066.276.379.379,0,0,0,.18.156.627.627,0,0,0,.246.048.636.636,0,0,0,.264-.054.666.666,0,0,1,.276-.054.4.4,0,0,1,.306.156.63.63,0,0,1,.138.432.634.634,0,0,1-.366.552A1.52,1.52,0,0,1,86.376,0a4.133,4.133,0,0,1-.558-.042,1.508,1.508,0,0,1-.576-.2,1.248,1.248,0,0,1-.45-.5,1.974,1.974,0,0,1-.18-.924v-5.4a.709.709,0,0,1,.21-.522A.709.709,0,0,1,85.344-7.8ZM90.252-.732a.72.72,0,0,1-.2.522.689.689,0,0,1-.516.21.689.689,0,0,1-.516-.21.72.72,0,0,1-.2-.522V-5.688a.72.72,0,0,1,.2-.522.689.689,0,0,1,.516-.21.689.689,0,0,1,.516.21.72.72,0,0,1,.2.522ZM89.52-7.2a.953.953,0,0,1-.576-.132.564.564,0,0,1-.168-.468v-.228a.533.533,0,0,1,.186-.474,1.029,1.029,0,0,1,.57-.126.979.979,0,0,1,.588.132.564.564,0,0,1,.168.468V-7.8a.542.542,0,0,1-.18.474A1.052,1.052,0,0,1,89.52-7.2Zm8.376,4a3.375,3.375,0,0,1-.438,1.734A3.144,3.144,0,0,1,96.282-.3a3.277,3.277,0,0,1-1.65.42,3.277,3.277,0,0,1-1.65-.42,3.144,3.144,0,0,1-1.176-1.17A3.375,3.375,0,0,1,91.368-3.2a3.375,3.375,0,0,1,.438-1.734,3.189,3.189,0,0,1,1.176-1.176,3.24,3.24,0,0,1,1.65-.426,3.24,3.24,0,0,1,1.65.426,3.189,3.189,0,0,1,1.176,1.176A3.375,3.375,0,0,1,97.9-3.2Zm-1.44,0a2.181,2.181,0,0,0-.246-1.062,1.831,1.831,0,0,0-.66-.7,1.731,1.731,0,0,0-.918-.252,1.731,1.731,0,0,0-.918.252,1.831,1.831,0,0,0-.66.7A2.181,2.181,0,0,0,92.808-3.2a2.155,2.155,0,0,0,.246,1.05,1.831,1.831,0,0,0,.66.7,1.731,1.731,0,0,0,.918.252,1.731,1.731,0,0,0,.918-.252,1.831,1.831,0,0,0,.66-.7A2.155,2.155,0,0,0,96.456-3.2Zm6.072-3.336a2.113,2.113,0,0,1,1.35.372,1.891,1.891,0,0,1,.636.99,5.064,5.064,0,0,1,.174,1.374V-.732a.72.72,0,0,1-.2.522.689.689,0,0,1-.516.21.689.689,0,0,1-.516-.21.72.72,0,0,1-.2-.522V-3.8a2.332,2.332,0,0,0-.1-.714.986.986,0,0,0-.366-.51,1.271,1.271,0,0,0-.756-.192,1.587,1.587,0,0,0-.81.192,1.313,1.313,0,0,0-.5.51,1.463,1.463,0,0,0-.174.714V-.732a.72.72,0,0,1-.2.522.689.689,0,0,1-.516.21A.689.689,0,0,1,99.3-.21a.72.72,0,0,1-.2-.522V-5.688a.72.72,0,0,1,.2-.522.689.689,0,0,1,.516-.21.689.689,0,0,1,.516.21.72.72,0,0,1,.2.522v.516l-.18-.036a2.373,2.373,0,0,1,.312-.438,2.994,2.994,0,0,1,.48-.438,2.44,2.44,0,0,1,.624-.33A2.2,2.2,0,0,1,102.528-6.54ZM113.2-8.4a2.087,2.087,0,0,1,1.17.36,2.691,2.691,0,0,1,.882.972,2.8,2.8,0,0,1,.336,1.368,2.771,2.771,0,0,1-.336,1.356,2.744,2.744,0,0,1-.882.978A2.063,2.063,0,0,1,113.2-3h-2.208l.12-.216V-.732a.745.745,0,0,1-.192.522.651.651,0,0,1-.5.21.637.637,0,0,1-.492-.21.745.745,0,0,1-.192-.522V-7.668a.709.709,0,0,1,.21-.522.709.709,0,0,1,.522-.21Zm0,4.032a.666.666,0,0,0,.444-.192,1.522,1.522,0,0,0,.36-.5,1.49,1.49,0,0,0,.144-.642A1.478,1.478,0,0,0,114-6.348a1.468,1.468,0,0,0-.36-.486.677.677,0,0,0-.444-.186h-2.232l.144-.216v3.06l-.132-.192ZM121.98-6.54a.7.7,0,0,1,.516.2.714.714,0,0,1,.2.528V-.732a.72.72,0,0,1-.2.522.689.689,0,0,1-.516.21.689.689,0,0,1-.516-.21.72.72,0,0,1-.2-.522V-1.32l.264.108a.675.675,0,0,1-.168.378A2.287,2.287,0,0,1,120.9-.4a2.8,2.8,0,0,1-.678.366,2.337,2.337,0,0,1-.846.15,2.743,2.743,0,0,1-1.5-.426,3,3,0,0,1-1.062-1.176,3.679,3.679,0,0,1-.39-1.722,3.706,3.706,0,0,1,.39-1.734,3.03,3.03,0,0,1,1.05-1.176,2.643,2.643,0,0,1,1.464-.426,2.773,2.773,0,0,1,.948.156,2.833,2.833,0,0,1,.75.4,2.269,2.269,0,0,1,.492.486.773.773,0,0,1,.174.414l-.432.156v-.876a.72.72,0,0,1,.2-.522A.689.689,0,0,1,121.98-6.54ZM119.556-1.2a1.627,1.627,0,0,0,.924-.264,1.783,1.783,0,0,0,.618-.72,2.3,2.3,0,0,0,.222-1.02,2.327,2.327,0,0,0-.222-1.032,1.783,1.783,0,0,0-.618-.72,1.627,1.627,0,0,0-.924-.264,1.606,1.606,0,0,0-.912.264,1.783,1.783,0,0,0-.618.72A2.327,2.327,0,0,0,117.8-3.2a2.3,2.3,0,0,0,.222,1.02,1.783,1.783,0,0,0,.618.72A1.606,1.606,0,0,0,119.556-1.2ZM124.98,0a.689.689,0,0,1-.516-.21.72.72,0,0,1-.2-.522V-5.688a.72.72,0,0,1,.2-.522.689.689,0,0,1,.516-.21.689.689,0,0,1,.516.21.72.72,0,0,1,.2.522V-4.56l-.084-.8a1.869,1.869,0,0,1,.342-.51,2.029,2.029,0,0,1,.474-.372A2.153,2.153,0,0,1,127-6.468a2.563,2.563,0,0,1,.6-.072.918.918,0,0,1,.606.2.608.608,0,0,1,.246.48.712.712,0,0,1-.2.57.671.671,0,0,1-.444.174,1,1,0,0,1-.414-.084,1.025,1.025,0,0,0-.426-.084,1.043,1.043,0,0,0-.438.1,1.206,1.206,0,0,0-.408.318,1.675,1.675,0,0,0-.3.534,2.224,2.224,0,0,0-.114.75V-.732a.72.72,0,0,1-.2.522A.689.689,0,0,1,124.98,0Zm4.56-6.3h2.844a.651.651,0,0,1,.48.192.651.651,0,0,1,.192.48.617.617,0,0,1-.192.462.662.662,0,0,1-.48.186H129.54a.651.651,0,0,1-.48-.192.651.651,0,0,1-.192-.48.617.617,0,0,1,.192-.462A.662.662,0,0,1,129.54-6.3Zm1.284-1.5a.67.67,0,0,1,.51.21.732.732,0,0,1,.2.522v5.34a.522.522,0,0,0,.066.276.379.379,0,0,0,.18.156.627.627,0,0,0,.246.048.636.636,0,0,0,.264-.054.666.666,0,0,1,.276-.054.4.4,0,0,1,.306.156.63.63,0,0,1,.138.432.634.634,0,0,1-.366.552,1.52,1.52,0,0,1-.786.216,4.133,4.133,0,0,1-.558-.042,1.508,1.508,0,0,1-.576-.2,1.248,1.248,0,0,1-.45-.5,1.974,1.974,0,0,1-.18-.924v-5.4a.709.709,0,0,1,.21-.522A.709.709,0,0,1,130.824-7.8Zm6.984,1.26a2.113,2.113,0,0,1,1.35.372,1.891,1.891,0,0,1,.636.99,5.064,5.064,0,0,1,.174,1.374V-.732a.72.72,0,0,1-.2.522.689.689,0,0,1-.516.21.689.689,0,0,1-.516-.21.72.72,0,0,1-.2-.522V-3.8a2.332,2.332,0,0,0-.1-.714.986.986,0,0,0-.366-.51,1.271,1.271,0,0,0-.756-.192,1.587,1.587,0,0,0-.81.192,1.313,1.313,0,0,0-.5.51,1.463,1.463,0,0,0-.174.714V-.732a.72.72,0,0,1-.2.522A.689.689,0,0,1,135.1,0a.689.689,0,0,1-.516-.21.72.72,0,0,1-.2-.522V-5.688a.72.72,0,0,1,.2-.522.689.689,0,0,1,.516-.21.689.689,0,0,1,.516.21.72.72,0,0,1,.2.522v.516l-.18-.036a2.374,2.374,0,0,1,.312-.438,2.993,2.993,0,0,1,.48-.438,2.44,2.44,0,0,1,.624-.33A2.2,2.2,0,0,1,137.808-6.54ZM144.492.12a3.525,3.525,0,0,1-1.77-.426,2.942,2.942,0,0,1-1.152-1.158,3.383,3.383,0,0,1-.4-1.656,3.639,3.639,0,0,1,.438-1.842,3.1,3.1,0,0,1,1.146-1.17,2.958,2.958,0,0,1,1.5-.408,2.731,2.731,0,0,1,1.158.252,3.166,3.166,0,0,1,.966.69,3.354,3.354,0,0,1,.666,1.014,3.084,3.084,0,0,1,.246,1.224.616.616,0,0,1-.228.468.763.763,0,0,1-.5.18h-4.584l-.36-1.2h4.4l-.264.24V-4a1.094,1.094,0,0,0-.246-.624,1.606,1.606,0,0,0-.552-.438,1.572,1.572,0,0,0-.7-.162,2.274,2.274,0,0,0-.672.1,1.287,1.287,0,0,0-.54.324,1.572,1.572,0,0,0-.36.612,3.033,3.033,0,0,0-.132.972,2.1,2.1,0,0,0,.27,1.1,1.84,1.84,0,0,0,.7.684,1.854,1.854,0,0,0,.906.234,2.789,2.789,0,0,0,.708-.072,1.591,1.591,0,0,0,.426-.174q.162-.1.294-.174a.915.915,0,0,1,.408-.108.584.584,0,0,1,.438.18.585.585,0,0,1,.174.42.749.749,0,0,1-.336.588,2.784,2.784,0,0,1-.876.462A3.489,3.489,0,0,1,144.492.12ZM149.208,0a.689.689,0,0,1-.516-.21.72.72,0,0,1-.2-.522V-5.688a.72.72,0,0,1,.2-.522.689.689,0,0,1,.516-.21.689.689,0,0,1,.516.21.72.72,0,0,1,.2.522V-4.56l-.084-.8a1.869,1.869,0,0,1,.342-.51,2.029,2.029,0,0,1,.474-.372,2.153,2.153,0,0,1,.564-.222,2.563,2.563,0,0,1,.6-.072.918.918,0,0,1,.606.2.608.608,0,0,1,.246.48.712.712,0,0,1-.2.57.671.671,0,0,1-.444.174,1,1,0,0,1-.414-.084,1.025,1.025,0,0,0-.426-.084,1.043,1.043,0,0,0-.438.1,1.206,1.206,0,0,0-.408.318,1.675,1.675,0,0,0-.3.534,2.224,2.224,0,0,0-.114.75V-.732a.72.72,0,0,1-.2.522A.689.689,0,0,1,149.208,0Zm4.116-1a.671.671,0,0,1-.108-.432.579.579,0,0,1,.312-.456.65.65,0,0,1,.408-.1.681.681,0,0,1,.42.222,2.831,2.831,0,0,0,.732.54,2.137,2.137,0,0,0,.96.192,3.208,3.208,0,0,0,.4-.054.759.759,0,0,0,.378-.192.6.6,0,0,0,.162-.462.528.528,0,0,0-.18-.42,1.516,1.516,0,0,0-.474-.264q-.294-.108-.654-.2t-.762-.24a3.182,3.182,0,0,1-.714-.342,1.644,1.644,0,0,1-.528-.558,1.71,1.71,0,0,1-.2-.876,1.581,1.581,0,0,1,.336-1.02,2.194,2.194,0,0,1,.87-.648A2.828,2.828,0,0,1,155.8-6.54a3.622,3.622,0,0,1,.78.09,3.052,3.052,0,0,1,.78.288,1.927,1.927,0,0,1,.624.522.852.852,0,0,1,.156.432.515.515,0,0,1-.228.456.579.579,0,0,1-.42.126.635.635,0,0,1-.4-.162,1.418,1.418,0,0,0-.546-.42,1.875,1.875,0,0,0-.786-.156,2,2,0,0,0-.39.042.77.77,0,0,0-.366.18.556.556,0,0,0-.156.438.56.56,0,0,0,.18.438,1.362,1.362,0,0,0,.486.264q.306.1.654.2t.732.228a2.9,2.9,0,0,1,.684.348,1.651,1.651,0,0,1,.5.558,1.762,1.762,0,0,1,.192.87,1.577,1.577,0,0,1-.36,1.044,2.279,2.279,0,0,1-.9.654,2.879,2.879,0,0,1-1.1.222A4.291,4.291,0,0,1,154.5-.126,2.451,2.451,0,0,1,153.324-1Zm9.528-5.544a2.018,2.018,0,0,1,1.314.372,1.888,1.888,0,0,1,.618.99,5.235,5.235,0,0,1,.168,1.374V-.732a.72.72,0,0,1-.2.522.689.689,0,0,1-.516.21.689.689,0,0,1-.516-.21.72.72,0,0,1-.2-.522V-3.8a2.467,2.467,0,0,0-.1-.714.978.978,0,0,0-.348-.51,1.169,1.169,0,0,0-.72-.192,1.5,1.5,0,0,0-.78.192,1.241,1.241,0,0,0-.486.51,1.55,1.55,0,0,0-.162.714V-.732a.72.72,0,0,1-.2.522A.689.689,0,0,1,160.2,0a.689.689,0,0,1-.516-.21.72.72,0,0,1-.2-.522V-8.148a.72.72,0,0,1,.2-.522.689.689,0,0,1,.516-.21.689.689,0,0,1,.516.21.72.72,0,0,1,.2.522v2.976l-.18-.036a2.686,2.686,0,0,1,.3-.438,2.6,2.6,0,0,1,.468-.438,2.5,2.5,0,0,1,.612-.33A2.069,2.069,0,0,1,162.852-6.54Zm5.016,5.808a.72.72,0,0,1-.2.522.689.689,0,0,1-.516.21.689.689,0,0,1-.516-.21.72.72,0,0,1-.2-.522V-5.688a.72.72,0,0,1,.2-.522.689.689,0,0,1,.516-.21.689.689,0,0,1,.516.21.72.72,0,0,1,.2.522ZM167.136-7.2a.953.953,0,0,1-.576-.132.564.564,0,0,1-.168-.468v-.228a.533.533,0,0,1,.186-.474,1.029,1.029,0,0,1,.57-.126.979.979,0,0,1,.588.132.564.564,0,0,1,.168.468V-7.8a.542.542,0,0,1-.18.474A1.052,1.052,0,0,1,167.136-7.2Zm5.532.66a2.735,2.735,0,0,1,1.506.426,3.023,3.023,0,0,1,1.056,1.17,3.669,3.669,0,0,1,.39,1.728,3.706,3.706,0,0,1-.39,1.734,3.047,3.047,0,0,1-1.044,1.176,2.635,2.635,0,0,1-1.47.426,2.564,2.564,0,0,1-.9-.156,2.882,2.882,0,0,1-.738-.4,2.269,2.269,0,0,1-.492-.486.773.773,0,0,1-.174-.414l.372-.156V1.668a.72.72,0,0,1-.2.522.689.689,0,0,1-.516.21.7.7,0,0,1-.516-.2.714.714,0,0,1-.2-.528V-5.688a.72.72,0,0,1,.2-.522.689.689,0,0,1,.516-.21.689.689,0,0,1,.516.21.72.72,0,0,1,.2.522V-5.1l-.2-.108a.675.675,0,0,1,.168-.378,2.419,2.419,0,0,1,.456-.444,2.6,2.6,0,0,1,.666-.366A2.222,2.222,0,0,1,172.668-6.54Zm-.18,1.32a1.627,1.627,0,0,0-.924.264,1.792,1.792,0,0,0-.618.714,2.289,2.289,0,0,0-.222,1.026,2.338,2.338,0,0,0,.222,1.026,1.774,1.774,0,0,0,.618.726,1.627,1.627,0,0,0,.924.264,1.6,1.6,0,0,0,.918-.264,1.792,1.792,0,0,0,.612-.726,2.338,2.338,0,0,0,.222-1.026,2.289,2.289,0,0,0-.222-1.026,1.809,1.809,0,0,0-.612-.714A1.6,1.6,0,0,0,172.488-5.22ZM178.644-.1a1.41,1.41,0,0,1-.114.486,2.844,2.844,0,0,1-.312.582,2.072,2.072,0,0,1-.45.48.859.859,0,0,1-.528.192.739.739,0,0,1-.408-.108.408.408,0,0,1-.168-.372q0-.276.174-.336t.294-.108a.776.776,0,0,0,.246-.2.441.441,0,0,0,.09-.282.3.3,0,0,0-.126-.234.508.508,0,0,0-.33-.1.927.927,0,0,0-.168.018.448.448,0,0,0-.168.066.8.8,0,0,1-.21-.15.4.4,0,0,1-.09-.294.687.687,0,0,1,.18-.468,1.288,1.288,0,0,1,.45-.324,1.259,1.259,0,0,1,.51-.12,1.077,1.077,0,0,1,.822.324A1.331,1.331,0,0,1,178.644-.1ZM185.1-.732a.681.681,0,0,1-.228.522.756.756,0,0,1-.528.21.719.719,0,0,1-.54-.21.72.72,0,0,1-.2-.522V-7.668a.7.7,0,0,1,.216-.522.759.759,0,0,1,.552-.21.721.721,0,0,1,.51.21.689.689,0,0,1,.222.522Zm5.112-5.808a2.113,2.113,0,0,1,1.35.372,1.891,1.891,0,0,1,.636.99,5.064,5.064,0,0,1,.174,1.374V-.732a.72.72,0,0,1-.2.522.689.689,0,0,1-.516.21.689.689,0,0,1-.516-.21.72.72,0,0,1-.2-.522V-3.8a2.332,2.332,0,0,0-.1-.714.986.986,0,0,0-.366-.51,1.271,1.271,0,0,0-.756-.192,1.587,1.587,0,0,0-.81.192,1.313,1.313,0,0,0-.5.51,1.463,1.463,0,0,0-.174.714V-.732a.72.72,0,0,1-.2.522A.689.689,0,0,1,187.5,0a.689.689,0,0,1-.516-.21.72.72,0,0,1-.2-.522V-5.688a.72.72,0,0,1,.2-.522.689.689,0,0,1,.516-.21.689.689,0,0,1,.516.21.72.72,0,0,1,.2.522v.516l-.18-.036a2.374,2.374,0,0,1,.312-.438,2.993,2.993,0,0,1,.48-.438,2.44,2.44,0,0,1,.624-.33A2.2,2.2,0,0,1,190.212-6.54Zm6.516,0a4.417,4.417,0,0,1,1.194.144,1.937,1.937,0,0,1,.792.4.809.809,0,0,1,.282.618.781.781,0,0,1-.144.45.477.477,0,0,1-.42.21.811.811,0,0,1-.318-.054.832.832,0,0,1-.222-.138,1.264,1.264,0,0,0-.228-.156,1.1,1.1,0,0,0-.366-.114,2.407,2.407,0,0,0-.366-.042,1.934,1.934,0,0,0-1.038.264,1.759,1.759,0,0,0-.654.714,2.266,2.266,0,0,0-.228,1.038,2.191,2.191,0,0,0,.234,1.026,1.832,1.832,0,0,0,.648.714,1.736,1.736,0,0,0,.954.264,3.189,3.189,0,0,0,.516-.036,1.28,1.28,0,0,0,.36-.108,2.183,2.183,0,0,0,.3-.2.615.615,0,0,1,.4-.108.6.6,0,0,1,.48.2.726.726,0,0,1,.168.486.687.687,0,0,1-.336.546,2.7,2.7,0,0,1-.882.4,4.449,4.449,0,0,1-1.182.15,3.022,3.022,0,0,1-1.644-.438,2.927,2.927,0,0,1-1.074-1.194,3.731,3.731,0,0,1-.378-1.692,3.615,3.615,0,0,1,.4-1.734,2.981,2.981,0,0,1,1.116-1.176A3.135,3.135,0,0,1,196.728-6.54Zm4.02,6.528a.723.723,0,0,1-.534-.186.723.723,0,0,1-.186-.534v-.2a.723.723,0,0,1,.186-.534.723.723,0,0,1,.534-.186h.156a.723.723,0,0,1,.534.186.723.723,0,0,1,.186.534v.2a.723.723,0,0,1-.186.534.723.723,0,0,1-.534.186Z" transform="translate(257.52 3734.755)" fill="#fff"/>
  </g>
</svg>
