<svg id="Layer_1" data-name="Layer 1" xmlns="http://www.w3.org/2000/svg" viewBox="0 0 1145.88 639.14"><defs><style>.cls-1{fill:#23185b;}.cls-2{fill:#898989;}.cls-3{fill:#261c5d;}.cls-4{fill:#2c2161;}.cls-5{fill:#312665;}.cls-6{fill:#2d2362;}</style></defs><path class="cls-1" d="M696.9,639.77a7,7,0,0,1-2.64-.5c-4-1.64-8.49-.8-12.65-1.25-18.12-2-33.68-9.21-47.84-20.28a91.64,91.64,0,0,1-24.31-28.49C603.34,578,599,566,598.54,553.1c-.27-7.48-.84-14.9-.44-22.5a93.86,93.86,0,0,1,12.46-42.4c7.7-13.43,18.6-24.17,31.37-33a89.12,89.12,0,0,1,36.82-14.75,146.41,146.41,0,0,1,37-.66c12.78,1.27,24.17,5.45,35.24,11.27a77.26,77.26,0,0,1,22.07,17.15c4.14,4.66,4.13,4.23-.32,9.16-5,5.47-9.62,11.19-14.71,16.54-2.17,2.28-3.25,2.09-5.45,0-10.74-10.27-23.08-18.67-37.94-20.37C701,472,687,472,673.57,477.83c-16,6.95-27.66,17.83-34.8,33.51-6.82,15-7.14,30.59-2.95,46.31,3.86,14.45,12.78,25.54,24,35a54.89,54.89,0,0,0,26.25,11.92c14.44,2.51,29,1.26,42.45-5,7.55-3.55,14.23-9,20.32-14.84,2.64-2.55,4.36-2.91,7,.07,5.46,6.19,11.24,12.11,17,18,2,2.1,1.36,2.86-.61,4.82-7.57,7.54-15.47,14.61-25,19.64-9.95,5.28-20.17,9.61-31.7,10.77-3.58.36-7.49-.39-11,1.1C703.65,639.53,696.9,639.77,696.9,639.77Z" transform="translate(-0.09 -1.05)"/><path class="cls-1" d="M703.65,639.53" transform="translate(-0.09 -1.05)"/><path class="cls-2" d="M.09,215.7c2.18-3,2.86-6.71,4.83-9.93,6.85-11.24,21.88-15.1,31.26-12.38,15,4.35,22.22,14.32,23,28.47,1,18-16.37,32.5-31.57,30.8C16.18,251.38,5.32,244.1,2,232.92c-.36-1.22-.7-2.52-1.94-3.25Z" transform="translate(-0.09 -1.05)"/><path class="cls-1" d="M379.85,627.93c-.06-6.31-.16-12.63-.16-18.94q0-79.57-.09-159.14c0-3.63.7-4.82,4.56-4.68,8.8.33,17.63.14,26.45.08a6,6,0,0,1,5.55,2.78c12.58,16.39,26,32.18,38.29,48.74,9,12.1,18.4,23.92,27.59,35.87,8.92,11.6,17.77,23.29,27.11,34.58,4.71,5.69,9.07,11.67,14.38,18.54V579.3q0-64.6-.09-129.21c0-3.8.79-5.08,4.82-4.92,8.47.34,17,.32,25.45,0,3.93-.15,4.88,1,4.87,4.86q-.21,72.35-.09,144.68c0,13.8-.1,27.6.07,41.4,0,3-.7,4-3.83,3.87-8.48-.23-17-.69-25.44.13-5.71.57-9.08-2.07-11.74-5.83-8.71-12.34-18.24-24.07-27.55-35.9-11.7-14.88-23.1-30-35.1-44.67-9.46-11.55-18.18-23.69-27.28-35.54-4-5.25-8.16-10.42-13.14-16.78V624.94a6.81,6.81,0,0,1-4.73,2.41c-8.54.56-17.08,1.27-25.57,2.37A4.34,4.34,0,0,1,379.85,627.93Z" transform="translate(-0.09 -1.05)"/><path class="cls-2" d="M317.21,96.92c13.8-1,30,12.86,29.71,30.31-.24,16-14.78,30.53-30.44,29.56-18.67-1.15-29.17-13.16-29.3-30.06C287.05,110.53,297.75,97.38,317.21,96.92Z" transform="translate(-0.09 -1.05)"/><path class="cls-2" d="M508,96.92c16.73-.65,30.38,13,30.47,29.84.08,16.4-13.25,30.5-30.15,30-18-.51-29.28-13.16-29.5-29.77C478.61,110.83,490.41,97.36,508,96.92Z" transform="translate(-0.09 -1.05)"/><path class="cls-2" d="M316.65,192.74c14.43-1.26,30.48,13,30.29,30.24-.16,15.72-14.65,30.23-29.51,29.63-18.93-.76-30.25-13.45-30.31-30C287.06,206.94,297.66,193.19,316.65,192.74Z" transform="translate(-0.09 -1.05)"/><path class="cls-2" d="M413.17,252.63c-18.79-1.27-29.51-12.15-30.2-29.21-.63-16,10.89-30.66,30.63-30.76,14.26-.08,29,13.1,29.09,29.89A30.16,30.16,0,0,1,413.17,252.63Z" transform="translate(-0.09 -1.05)"/><path class="cls-2" d="M412.86,96.92c15.48-.93,30,13.78,29.8,30.15-.21,16-13.3,30.38-30.12,29.64-18.78-.83-29.23-12.8-29.52-29.78C382.75,111.41,393.56,97.14,412.86,96.92Z" transform="translate(-0.09 -1.05)"/><path class="cls-2" d="M604.16,156.81c-17.92-.77-28.94-13-29.56-29.93-.57-15.28,12.14-30.2,30.45-30A29.73,29.73,0,0,1,634.31,127C634.23,144.28,620.56,156.59,604.16,156.81Z" transform="translate(-0.09 -1.05)"/><path class="cls-2" d="M220.74,192.74c14.27-1.33,30.42,12.86,30.36,30.16-.06,16.28-15.26,30.24-29.53,29.72-19-.69-29.95-14.15-30.51-30.55C190.56,206.25,204.83,192.74,220.74,192.74Z" transform="translate(-0.09 -1.05)"/><path class="cls-2" d="M604.27,252.63c-18.11-1-28.86-12.81-29.66-29.84-.71-15.36,12.52-30.91,31.34-30.17,14.3.56,28.46,13.42,28.41,30.08A30.15,30.15,0,0,1,604.27,252.63Z" transform="translate(-0.09 -1.05)"/><path class="cls-2" d="M221.22,1.1c14.47-1,29.84,13.45,29.88,30,.05,17.21-16.69,30.86-30.13,30C202.59,59.92,191.23,47,191.24,30.92S202.94,1.53,221.22,1.1Z" transform="translate(-0.09 -1.05)"/><path class="cls-2" d="M508.67,192.74c15.57-.8,29.93,13.15,29.82,30.06S524.61,253,508.8,252.43c-18.61-.71-29.41-11.65-30-29.74a29,29,0,0,1,28-29.95C507.44,192.72,508.05,192.72,508.67,192.74Z" transform="translate(-0.09 -1.05)"/><path class="cls-2" d="M700.35,252.63a30.06,30.06,0,0,1-30-30.1c0-15.76,13.53-30.57,31.27-29.93,14.57.52,28.66,13.82,28.57,29.75C730.08,240.39,714.77,252.82,700.35,252.63Z" transform="translate(-0.09 -1.05)"/><path class="cls-2" d="M250.82,126.73c.92,17-14.79,30.55-30.21,30.16s-30.87-15.26-29.5-30.71c1.4-15.87,10.76-28.71,30.77-29.35C234.45,96.43,252.05,109.42,250.82,126.73Z" transform="translate(-0.09 -1.05)"/><path class="cls-2" d="M700.49,156.81A30,30,0,0,1,670.34,127v0c-.12-15.11,12.31-30.14,30-30.05a30,30,0,0,1,.18,59.93Z" transform="translate(-0.09 -1.05)"/><path class="cls-2" d="M604.07,61c-15.13.59-30.12-14.53-29.56-30.18.6-16.35,12.3-29.45,30.26-29.72C620.9.85,634.51,15,634.35,31.19,634.19,48,620.1,61.45,604.07,61Z" transform="translate(-0.09 -1.05)"/><path class="cls-2" d="M825.2,222.36c2.7,16.47-16,30.93-29.22,30.42-15.64-.6-30.16-13.18-29.78-31.44.29-14.1,13.85-29.27,30.25-28.72C813.1,193.18,825.2,205.2,825.2,222.36Z" transform="translate(-0.09 -1.05)"/><path class="cls-2" d="M413.94,288.59c18.15,1,29.83,15.86,28.68,32.43-1.15,16.81-17.46,29.51-32.66,27.27-17.21-2.53-27.56-14.06-27-31.23C383.41,300.43,399.18,287.35,413.94,288.59Z" transform="translate(-0.09 -1.05)"/><path class="cls-2" d="M604.93,348.45c-18.4-1.3-29.3-11.93-30.45-30.71-.84-13.73,15.26-29.18,27.89-29.35,19-.25,31.57,13.4,32,29.94S619.56,348.68,604.93,348.45Z" transform="translate(-0.09 -1.05)"/><path class="cls-2" d="M125.24,192.74c13.81-1,29.94,12.52,30,30s-16.72,30.38-29.53,30.08c-14.9-.35-30.85-13.41-29.87-31.44C96.63,206.27,108.64,192.25,125.24,192.74Z" transform="translate(-0.09 -1.05)"/><path class="cls-2" d="M250.82,318.6c1,16.87-14.71,30.29-29.73,29.8-17.68-.57-30.55-14.24-29.84-30.6.74-16.69,12-27.83,28.69-29.24C237.46,287.08,252.15,303.62,250.82,318.6Z" transform="translate(-0.09 -1.05)"/><path class="cls-2" d="M346.72,318c.72,17.87-15,30.92-29.64,30.43-18.21-.61-29.64-13.43-30.06-29.83-.41-16.13,13.54-29.39,28.44-30C333.85,287.78,347.32,303,346.72,318Z" transform="translate(-0.09 -1.05)"/><path class="cls-2" d="M509.85,288.59c18.86,1,29.36,16.55,28.61,31.53-.91,18-17.28,30.22-32.44,28.18-17.81-2.4-28.35-14.81-27.17-32.51C479.9,300.18,494.48,287.38,509.85,288.59Z" transform="translate(-0.09 -1.05)"/><path class="cls-2" d="M670.37,318.37c-.55-15.17,14.34-29.53,28-29.94,17.87-.53,31.51,13,31.74,29.5.23,16.8-13.74,30.85-29.28,30.41C683.33,347.84,671.05,336.44,670.37,318.37Z" transform="translate(-0.09 -1.05)"/><path class="cls-2" d="M604.32,444.27c-16.64-.83-29.91-12.69-29.73-30.73a29.44,29.44,0,0,1,29.8-29.08h.31c17.09.42,29.3,12.25,29.57,29.72C634.56,431.31,621.31,443.65,604.32,444.27Z" transform="translate(-0.09 -1.05)"/><path class="cls-2" d="M250.82,414.59c.62,16.86-14.17,29.85-29.41,29.6-18.09-.3-30.39-13.82-30.13-30.43s12-29.16,30.38-29.24C237.56,384.45,251.2,396.31,250.82,414.59Z" transform="translate(-0.09 -1.05)"/><path class="cls-2" d="M96,318.44c-1-16.88,14-29.34,28.11-29.92,18.15-.75,31.1,13.89,31,30.39s-14.75,29.64-29.89,29.56C109.56,348.4,94.88,334.25,96,318.44Z" transform="translate(-0.09 -1.05)"/><path class="cls-2" d="M96,126.86c-.87-16.5,13.5-30.14,30.07-30.09,13.09,0,29.33,12.76,29.11,30.52-.2,16.63-15.63,30.23-30.48,29.58C109.56,156.21,95,143.35,96,126.86Z" transform="translate(-0.09 -1.05)"/><path class="cls-3" d="M379.85,627.93c3.8,2.49,7.52-.46,11.33-.42,7.76.07,15.53-1.61,23.3-2.57v9c-7.39,1.75-15,.39-22.44,1.52-2.45.37-4.77,1.32-7.27,1.34a6.15,6.15,0,0,1-4.91-1.86Z" transform="translate(-0.09 -1.05)"/><path class="cls-4" d="M379.85,634.92c6.68,2,13-2,19.51-1.27,5.07.56,10.12-1.43,15.11.27v3c-1.11,1.54-2.79,1.66-4.44,1.62-10.07-.21-20.12,1-30.19.38Z" transform="translate(-0.09 -1.05)"/><path class="cls-5" d="M379.85,638.91c4.59-1.08,9.27-.93,13.93-1.1,6.9-.24,13.8-.59,20.7-.9.18,1.47.69,3-1.82,3-10.8-.09-21.62-.11-32.43-.2C380.1,639.72,380,639.19,379.85,638.91Z" transform="translate(-0.09 -1.05)"/><path class="cls-6" d="M1146,450.66c.18-4.12-.6-5.52-5.25-5.52q-59.9.3-119.79,0c-4.36,0-5,1.25-5,5.25q.09,92.26.09,184.54a35.62,35.62,0,0,0,.1,4c.13,1.2,1.12.88,1.91.81h18c2.48.06,5,.15,7.44.2,6.73,0,6.73,0,6.36-7h0v-10h-.09l.07-.05c.07-19.45.22-38.9.07-58.34,0-3.7.84-4.64,4.6-4.64,25.46.17,50.92,0,76.37.17,3.25,0,4.22-.81,4.12-4.09-.27-7.8-.34-15.63,0-23.43.16-3.83-1-4.58-4.66-4.58-25.29.19-50.58,0-75.87.19-3.83,0-4.64-1-4.57-4.67.26-13.46.32-26.93,0-40.39-.1-4.25,1.21-5,5.21-5,28.45.17,56.91,0,85.36.17,3.9,0,5.77-.69,5.55-5.18C1145.58,465.66,1145.62,458.13,1146,450.66Z" transform="translate(-0.09 -1.05)"/><path class="cls-1" d="M990.39,636.61c-3.22-6.83-5.81-13.93-9-20.75-6.26-13.38-12-26.93-18-40.38-8.06-18.17-16-36.45-24-54.66-6-13.48-12.09-26.9-18-40.38-4.55-10.44-9.55-20.68-13.33-31.44-1-2.89-2.88-3.84-6-3.76-9.46.2-19,.17-28.46,0-2.73-.05-4.23.84-5.23,3.34-7.25,17.64-15.43,34.89-23,52.37-11.09,25.41-22.13,50.83-33.56,76.1-8.88,19.62-17,39.57-25.72,59.27-1.39,3.15-.73,3.65,2.27,3.65,9.7-.08,19.36-.19,29,.06,3.21.08,4.71-1.18,5.9-3.87,5.47-12.44,11.39-24.71,16.39-37.32,1.42-3.56,3.1-3.85,6.1-3.85h42.44c14.32,0,28.63.13,42.94-.08,3.45,0,4.81,1.33,6,4.27,5.38,12.69,11.06,25.26,16.51,37.93.93,2.17,2.18,2.86,4.48,2.86,10-.08,20,0,30,0C990.78,640,991.78,639.61,990.39,636.61ZM855,563.77l33.23-75.24,16.73,38c5.42,12.3,10.84,24.61,16.41,37.24Z" transform="translate(-0.09 -1.05)"/><path class="cls-1" d="M-59.15,425.56" transform="translate(-0.09 -1.05)"/></svg>